<svg xmlns="http://www.w3.org/2000/svg" viewBox="0 0 500 500">
    <title>Archive</title>
    <path fill="currentColor" d="M432.85 96.25H67.15c-6.65 0-12.04 5.39-12.04 12.04v283.42c0 3.23 1.3 6.33 3.61 8.6 2.25 2.21 5.28 3.44 8.43 3.44h.23l365.69-7.13c6.56-.13 11.81-5.48 11.81-12.04V108.29c.01-6.65-5.38-12.04-12.03-12.04zm-12.04 276.52L79.2 379.43V250.21c126.15-5.1 318.35-10.87 339.96-6.12.55.12 1.1.19 1.65.23v128.45zm0-152.78c-43.42-5.53-295.3 4.26-341.61 6.12V120.33h341.61v99.66z"/>
    <path fill="currentColor" d="M199.15 143.49h105.89v55.57H199.15z"/>
</svg>
