<svg xmlns="http://www.w3.org/2000/svg" viewBox="0 0 500 500">
    <path fill="currentColor" d="M454.8 28.9c-14.4-9.4-33.6-5.3-43 9.1l-227 349.1-96.3-155.8c-9-14.6-28.2-19.1-42.8-10.1-14.6 9-19.1 28.2-10.1 42.8l122 197.5c.1.1.1.2.2.3.6 1 1.3 2 2.1 3l.1.1c.8.9 1.6 1.8 2.5 2.7.3.3.6.5.9.8l1.8 1.5 1.2.9c.2.2.4.3.7.5.6.4 1.3.8 2 1.2.1 0 .2.1.2.1 1 .6 2.1 1 3.1 1.5.1.1.2.1.4.2 1.1.4 2.3.8 3.4 1.1.1 0 .2.1.3.1 1.2.3 2.4.5 3.5.7h.3c1.2.1 2.4.2 3.6.2 1.2 0 2.4-.1 3.6-.2h.2c1.2-.1 2.3-.4 3.5-.6.1 0 .2-.1.3-.1 1.1-.3 2.2-.6 3.3-1 .2-.1.3-.1.4-.2 1-.4 2.1-.9 3.1-1.4.1-.1.3-.2.4-.2.5-.3 1-.5 1.4-.8.3-.2.5-.4.8-.5l1.2-.9 1.8-1.5c.3-.2.6-.5.9-.7.9-.8 1.7-1.7 2.5-2.6.1-.1.1-.2.2-.3.7-.9 1.4-1.8 2-2.7.1-.1.2-.2.2-.3L463.9 71.8c9.4-14.3 5.3-33.6-9.1-42.9z"/>
</svg>
