<svg xmlns="http://www.w3.org/2000/svg" viewBox="0 0 500 500" style="enable-background:new 0 0 500 500" xml:space="preserve">
    <path d="m86.6 188.3 169.6-64s-6.4-9.6-19.2-12.8L62.6 161.1s-16 12.8-28.8 16c0 0-19.2 22.4 16 32l-16 86.4h-5.2s-7.6 3.2-7.6 9.6c0 6.4 3.2 12.8 3.2 12.8l9.6 3.2s-3.2 48 9.6 64 32 32 76.8 19.2S245 343.5 245 343.5s3.2-19.2-12.8-22.4c0 0-48 32-118.4 54.4 0 0-44.8 16-51.2-22.4 0 0-3.2-35.2 0-38.4 0 0 70.4-28.8 80-35.2 9.6-6.4 22.4-25.6 22.4-25.6s-9.4-16.8-17.5-13.2L133 253.9s-57.6 25.6-70.4 25.6c0 0 16-64 24-91.2zM286.6 305.1s-3.2-153.6 19.2-201.6l-3.7-4.3-15.7-12.4s-9.4 3.9-12.6 3.9c0 0-22.4 144-12.8 201.6 0 0 1.6 52.3-2.4 59.7 0 0-4 13.9-4 20.3l6.4 12.8s12.8 7.1 19.2 3.6c0 0 6.4 6 6.4-38.8l57.6-54.4s25.6 54.4 54.4 73.6c0 0 56.4 57 71.4 41.3 0 0 20.2 0 0-19.1 0 0-44.5-22.8-80.4-72.1 0 0-15.5-23.4-16.1-50.8l89-84.9s3.2-6.4 6.4-19.2c0 0-9.6-16-16-16 0 0-9.6 6.4-16 16 .1 0-102.3 115.2-150.3 140.8z"/>
</svg>