<svg xmlns="http://www.w3.org/2000/svg" viewBox="0 0 500 500" style="enable-background:new 0 0 500 500" xml:space="preserve">
  <title>Exit</title>
  <path fill="currentColor" d="M459.2 51.8H155.3c-8.2 0-14.8 6.6-14.8 14.8v166.9L53.8 236c-15.8.4-28.2 13.5-27.8 29.3.4 15.5 13.1 27.8 28.5 27.8h.8l85.1-2.3v142.6c0 4 1.6 7.9 4.5 10.7 2.8 2.7 6.5 4.2 10.3 4.2h.5l303.8-9.2c8-.2 14.4-6.8 14.4-14.8V66.7c.1-8.2-6.5-14.9-14.7-14.9zm-14.9 357.9L170.2 418V289.9l49.5-1.4 2 73.9 174.7-107.3-180.3-97.6 2 73.9-47.9 1.3V81.5h274.1v328.2z"/>
</svg>
