<svg xmlns="http://www.w3.org/2000/svg" viewBox="0 0 500 500">
	<title>Lock</title>
	<path fill="currentColor" d="M278.85 330.33c17.97-9.95 30.17-29.1 30.17-51.05 0-32.15-26.16-58.31-58.31-58.31s-58.31 26.16-58.31 58.31c0 27.8 19.56 51.1 45.64 56.9l-6.81 58.8c-.09.74.16 1.47.67 2 .47.49 1.12.77 1.8.77.06 0 .12 0 .17-.01l57.19-4.01c.73-.05 1.4-.42 1.83-1.01.43-.59.58-1.34.41-2.05l-14.45-60.34z"/>
	<path fill="currentColor" d="M364.75 177.41a108.08 108.08 0 00-14.81-8.34c-.34-45.35-36.4-100.79-83.03-126.2-32.05-17.46-63.09-17.43-87.58.03-11.51 5.48-76.23 42.29-48.79 165.01-16.64 10.64-30.3 21.83-38.84 32.31-6.33 7.76-25.58 31.39 19.78 133.05 21.18 47.47 46.03 89.14 47.08 90.89a12.44 12.44 0 0010.67 6.05c.2 0 .39 0 .59-.01l224.79-10.56c5.68-.27 10.46-4.36 11.6-9.93 1.78-8.78 42.93-215.5-41.46-272.3zM190.3 65.22c.97-.39 1.88-.91 2.72-1.53 21.06-15.6 45.34-8.06 62 1.02 35.64 19.42 64.82 60.58 69.46 95.41l-5.95-.73c-4.51-.81-9.14-1.45-13.89-1.87-21.14-46.32-48.32-59.27-67.82-61.82-23.54-3.07-47.27 7.76-63.51 29-15.14 19.8-20.5 44.74-15.09 67.45-1.7.87-3.39 1.74-5.06 2.63C132.87 91.21 187.97 66.22 190.3 65.22zm-8.86 116.09c-1.87-14.13 2.17-29.18 11.61-41.52 10.77-14.09 25.91-21.36 40.53-19.45 15.97 2.09 30.92 15 43.06 36.85-21.15 1.3-43.98 5.89-67.95 13.82-9.16 3.04-18.31 6.51-27.25 10.3zm202.21 253.95l-207.48 9.75c-7.75-13.48-26.22-46.51-42.07-82.06-36.21-81.21-26.86-102.45-23.13-107.03 11.53-14.16 36.34-31.41 66.63-45.71.16-.06.33-.08.49-.15.34-.14.64-.35.96-.52 33.78-15.75 74.15-27.76 110.56-27.76 3.5 0 6.96.13 10.38.36l15.1 1.86c13.11 2.43 25.24 6.94 35.78 14.03 55.55 37.4 43.75 175.81 32.78 237.23z"/>
</svg>
