<svg xmlns="http://www.w3.org/2000/svg" viewBox="0 0 500 500">
  <title>Edit</title>
  <path fill="currentColor" d="M388.35 280.05c.02-.06.03-.12.04-.18l-7.98-18.9-.63-.6-.42-.97-2.75-2.56-.5.05L140.76 33.81a15.64 15.64 0 00-10.2-4.28c-21.44-11.88-55 2.64-80.38 35.63-26.94 35.02-31.4 73.63-10.42 89.89.53.71 1.12 1.4 1.79 2.03l238.73 226.29 26.49 13.46 166.66 78.59-85.08-195.37zM58.96 130.25c-.39-.3-2.11-3.82-.46-12.29 2.01-10.34 8.04-22.61 16.54-33.66 19.12-24.86 37.89-29.18 40.29-27.33.39.3 2.11 3.82.46 12.29-2.01 10.34-8.04 22.61-16.54 33.66-19.12 24.85-37.89 29.17-40.29 27.33zM282.1 303.9c-5.35 8.86-8.49 18.55-9.48 28.99L85.36 155.39c13.68-6.81 27.42-18.6 38.76-33.35 10.04-13.05 17.38-27.33 21.06-40.81l193.06 183c-19.29 6.2-43 17.91-56.14 39.67zm104.37 101.17l-77.14-36.38-.09-.15-.24.46c-8-6-7.64-11.2-7.64-11.2-4.2-15.85-3.07-29.31 3.42-40.11 12.31-20.46 40.79-28.85 56.11-31.98l1.56 1.48c.02.02.04.03.06.05l43.37 99.61c-7.87 4.72-15.17 12.92-19.41 18.22z"/>
</svg>
