<svg xmlns="http://www.w3.org/2000/svg" viewBox="0 0 500 500">
  <title>Question mark</title>
  <circle fill="currentColor" cx="241.11" cy="427.34" r="29.66"/>
  <path fill="currentColor" d="M233.7 377.17c-19.79 0-35.83-16.04-35.83-35.83v-80.89a35.847 35.847 0 0140.41-35.55c45.54 5.86 89.24-30.03 93.68-56.55 4.99-29.84-51.1-43.81-68.42-47.38-71.65-14.78-88.87.67-91.59 3.92-7.74 9.22-2.42 31.64-.22 37.16 7.31 18.39-1.67 39.23-20.07 46.54-18.39 7.31-39.22-1.67-46.54-20.07-2.64-6.63-24.69-66.04 11.91-109.68C146.5 43.69 199.16 34.52 278 50.78c131.19 27.05 128.56 105.88 124.63 129.39-5.55 33.2-28.06 65.25-61.75 87.92-21.7 14.6-46.43 24.01-71.35 27.52v45.72c0 19.79-16.04 35.84-35.83 35.84z"/>
</svg>
