<svg xmlns="http://www.w3.org/2000/svg" viewBox="0 0 500 500">
  <title>Reset</title>
  <path fill="currentColor" d="M255.95 64.33c-48.64 0-92.63 21.02-124.34 54.94-12.61-10.84-22.49-22.56-26.49-34.51L69 246.41l133.15-83.64c-12.45-5.87-27.06-13.49-41.18-22.3 25.01-24.41 58.37-39.35 94.98-39.35 77.37 0 140.31 66.64 140.31 148.55s-62.94 148.55-140.31 148.55c-55.53 0-103.62-34.33-126.35-83.99l-11.68 16.04-11.5 15.8c30.74 53.33 86.2 88.94 149.53 88.94C352.63 435 431 352.02 431 249.67S352.63 64.33 255.95 64.33z"/>
</svg>
