<svg xmlns="http://www.w3.org/2000/svg" viewBox="0 0 500 500">
  <title>☀ | Sun</title>
  <path fill="currentColor" d="M239.4 358.2c-35.9 0-63.7-9.7-82.7-28.9-20.6-20.9-29.9-51.8-27.7-91.9 1.6-28.2 18.1-77.1 110.5-88.4 32.5-4 69 9.4 97.6 35.8 26.4 24.4 41.5 56 40.3 84.5-.3 7.4-6.6 13.2-14 12.9-7.4-.3-13.2-6.6-12.9-14 .8-20.8-11-44.5-31.7-63.6-22.9-21.1-51.3-31.9-76.1-28.9-38.3 4.7-84.4 19.4-86.9 63.1-1.8 32.2 4.9 56.2 19.9 71.5 14.9 15.1 38.9 22.1 71.3 20.7 25.7-1.1 42.7-11.6 50.5-31.1 8.3-20.8 2.7-43-.9-47.9-6-2.9-9.1-9.8-7-16.3 2.3-7.1 9.9-11 16.9-8.7 17.6 5.6 24.8 36.6 21.4 62-5.5 41.2-35.4 67-79.8 68.9-2.8.3-5.8.3-8.7.3zM215.8 111.5c14.5-4.1 37.3-8.3 47.7 0L238.6 43l-22.8 68.5zM93.4 260.8c-4.1-14.5-8.3-37.3 0-47.7L25 238l68.4 22.8zM406.6 260.8c4.1-14.5 8.3-37.3 0-47.7L475 238l-68.4 22.8zM324.5 117.3c14.1 5.4 34.9 15.7 38.2 28.6l21.1-69.7-59.3 41.1zM149.4 117.3c-14.1 5.4-34.9 15.7-38.2 28.6L90.1 76.2l59.3 41.1zM232.4 388.5c14.5 4.1 37.3 8.3 47.7 0L255.2 457l-22.8-68.5zM341 382.7c14.1-5.4 34.9-15.7 38.2-28.6l21.1 69.7-59.3-41.1zM166 382.7c-14.1-5.4-34.9-15.7-38.2-28.6l-21.1 69.7 59.3-41.1z"/>
</svg>
