<svg xmlns="http://www.w3.org/2000/svg" viewBox="0 0 500 500">
  <title>Trash Can</title>
  <path fill="currentColor" d="M395.4 140.64h-30.86a73.144 73.144 0 00-8-14.43C348.55 115 334.41 102 309.9 94.89c-.23-20.41-8.15-43.17-21.47-59.09-12.37-14.8-26.71-20.54-41.44-16.58-.19.05-.38.08-.58.08h-.11c-1.83.06-44.8 2.21-56.98 73.88-15.58 4.77-27.67 12.22-36.1 22.36l-5.38 6.48v19.59l-44.23 1.88-22.34.95V218.73h35.03v231.28l13.55 6.26c2.28 1.05 56.59 25.74 128.36 25.74 42.64 0 82.71-8.68 119.09-25.81l13.39-6.31V218.73H418.72v-78.09H395.4zM225.74 60.11c12.63-7.62 26.9-8.44 38.17-2.2 7.66 4.24 16.73 13.25 20.67 32.35-1.93-.17-3.89-.33-5.91-.44-4.85-.73-21.19-2.95-40.47-2.95-12.37 0-23.61.91-33.73 2.69 2.43-11.9 10.09-22.71 21.27-29.45zm-43.42 383.42c-17.33-4.56-29.72-9.37-34.91-11.53V233.57h34.91v209.96zm77.66 10.41c-16.57-.06-31.71-1.53-44.64-3.52-8.48-1.31-16.42-2.88-23.69-4.57V233.57h68.33v220.37zm62.68-7.07c-18.54 4.43-36.57 6.46-53.34 6.96V233.57h53.34v213.3zm43.16-14.77c-11.32 5.15-22.64 9.18-33.83 12.33V233.57h33.83V432.1zm28.03-241.36H112.37v-19.46l66.57-2.83v-36.24c24.64-26.65 98.92-14.66 99.68-14.54l.55.06c64.35 3.02 65.61 44.52 65.63 46.26l.02 4.65h49.04v22.1z"/>
</svg>
