<svg xmlns="http://www.w3.org/2000/svg" xmlns:xlink="http://www.w3.org/1999/xlink" viewBox="0 0 265.3 193.2"
    style="enable-background:new 0 0 265.3 193.2;" id="emakina-logo">
    <style type="text/css">
        .st0 {
            fill: #FFFFFF;
        }
    </style>
    <g>
        <g>
            <rect x="144.1" y="45.6" class="st0" width="7.6" height="38.1" />
            <rect x="128.9" y="45.6" class="st0" width="7.6" height="38.1" />
            <rect x="113.7" y="45.6" class="st0" width="7.6" height="38.1" />
            <rect x="113.6" y="0" class="st0" width="38.1" height="7.6" />
            <rect x="113.6" y="15.2" class="st0" width="38.1" height="7.6" />
            <rect x="113.7" y="30.5" class="st0" width="38.1" height="7.6" />
            <g>
                <polygon class="st0" points="37.9,120.9 43.6,120.9 58,138.3 72.3,120.9 78,120.9 78,150.2 71.4,150.2 71.4,130 58.3,146.7
				56.9,146.7 43.6,130.5 43.6,150.2 37.9,150.2 			" />
                <path class="st0"
                    d="M81.7,150.2h7.2l3.7-6.4H112l3.7,6.4h8L106,120.9h-6.9L81.7,150.2z M95.6,138.4l6.6-12.2l6.9,12.2H95.6z" />
                <polygon class="st0" points="127.3,120.9 134.6,120.9 134.6,132.7 151.7,120.9 162,120.9 141.8,134.5 164.3,150.2 153,150.2
				134.6,137 134.6,150.2 127.3,150.2 			" />
                <rect x="168.3" y="120.9" class="st0" width="7.1" height="29.3" />
                <polygon class="st0" points="183.7,120.9 188.7,120.9 213.6,140.4 213.6,120.9 220,120.9 220,150.2 215.1,150.2 190.2,130.4
				190.2,150.2 183.7,150.2 			" />
                <path class="st0" d="M223.4,150.2h7.1l3.7-6.4h19.4l3.7,6.4h8l-17.7-29.3h-6.9L223.4,150.2z M237.3,138.4l6.6-12.2l6.9,12.2
				H237.3z" />
                <polygon class="st0" points="0,120.9 0,150.2 32.4,150.2 32.4,144.7 30,144.7 7.2,144.7 7.2,137.5 28.2,137.5 28.2,132.5
				7.2,132.5 7.2,126.1 32.4,126.1 32.4,120.9 			" />
            </g>
        </g>
        <g>
            <path class="st0" d="M30.4,188.7H25l-1.5,4.3h-1.4l4.9-13.4h1.4l4.9,13.4h-1.4L30.4,188.7z M27.7,181c0,0-0.3,1.1-0.5,1.7
			l-1.8,4.8H30l-1.7-4.8C28,182.1,27.7,181,27.7,181L27.7,181z" />
            <path class="st0" d="M38.5,179.6h1.3l6.8,9.6c0.5,0.7,1.1,1.8,1.1,1.8l0,0c0,0-0.1-1.1-0.1-1.8v-9.6h1.3V193h-1.3l-6.8-9.6
			c-0.5-0.7-1.1-1.8-1.1-1.8l0,0c0,0,0.1,1.1,0.1,1.8v9.6h-1.3V179.6z" />
            <path class="st0" d="M64,179.6h7.5v1.2h-6.2v4.9h5.1v1.2h-5.1v5h6.6v1.2H64L64,179.6L64,179.6z" />
            <path class="st0" d="M77.9,179.6h4.6c2.4,0,4.1,1.6,4.1,4c0,2.5-1.7,4.1-4.1,4.1h-3.3v5.2h-1.3V179.6z M82.3,186.5
			c1.8,0,2.9-1.1,2.9-2.9s-1.2-2.8-2.9-2.8h-3.2v5.8h3.2V186.5z" />
            <path class="st0" d="M98.4,188.7H93l-1.5,4.3h-1.4l4.9-13.4h1.4l4.9,13.4h-1.4L98.4,188.7z M95.7,181c0,0-0.3,1.1-0.5,1.7
			l-1.8,4.8H98l-1.7-4.8C96,182.1,95.7,181,95.7,181L95.7,181z" />
            <path class="st0" d="M107.2,179.6h1.4l3.5,7.8c0.3,0.7,0.6,1.6,0.6,1.6l0,0c0,0,0.4-1,0.7-1.6l3.5-7.8h1.3l1.1,13.4H118l-0.7-9.3
			c-0.1-0.7,0-1.9,0-1.9l0,0c0,0-0.4,1.2-0.7,1.9l-3.1,6.9h-1.2l-3.1-6.9c-0.3-0.7-0.7-1.9-0.7-1.9l0,0c0,0,0,1.2,0,1.9l-0.7,9.3
			h-1.3L107.2,179.6z" />
            <path class="st0" d="M139.7,179.4c3.2,0,4.8,1.7,4.8,1.7l-0.7,1c0,0-1.6-1.5-4.1-1.5c-3.1,0-5.4,2.4-5.4,5.6s2.2,5.8,5.4,5.8
			c2.7,0,4.3-1.8,4.3-1.8l0.8,0.9c0,0-1.8,2.1-5.1,2.1c-4,0-6.8-3.1-6.8-7C133,182.3,135.9,179.4,139.7,179.4z" />
            <path class="st0" d="M156.6,179.4c3.8,0,6.8,3,6.8,6.8c0,3.9-3,7-6.8,7c-3.8,0-6.8-3.1-6.8-7S152.8,179.4,156.6,179.4z
			 M156.6,191.9c3,0,5.4-2.5,5.4-5.8c0-3.2-2.4-5.6-5.4-5.6s-5.4,2.4-5.4,5.6C151.1,189.4,153.6,191.9,156.6,191.9z" />
            <path class="st0" d="M170,179.6h1.4l3.5,7.8c0.3,0.7,0.6,1.6,0.6,1.6l0,0c0,0,0.4-1,0.7-1.6l3.5-7.8h1.3l1.1,13.4h-1.3l-0.7-9.3
			c-0.1-0.7,0-1.9,0-1.9l0,0c0,0-0.4,1.2-0.7,1.9l-3.1,6.9h-1.2l-3.1-6.9c-0.3-0.7-0.7-1.9-0.7-1.9l0,0c0,0,0,1.2,0,1.9l-0.7,9.3
			h-1.3L170,179.6z" />
            <path class="st0" d="M188.6,179.6h4.6c2.4,0,4.1,1.6,4.1,4c0,2.5-1.7,4.1-4.1,4.1h-3.3v5.2h-1.3V179.6z M193.1,186.5
			c1.8,0,2.9-1.1,2.9-2.9s-1.2-2.8-2.9-2.8h-3.2v5.8h3.2V186.5z" />
            <path class="st0" d="M209.1,188.7h-5.4l-1.5,4.3h-1.4l4.9-13.4h1.4L212,193h-1.4L209.1,188.7z M206.4,181c0,0-0.3,1.1-0.5,1.7
			l-1.8,4.8h4.6l-1.7-4.8C206.7,182.1,206.4,181,206.4,181L206.4,181z" />
            <path class="st0" d="M217.3,179.6h1.3l6.8,9.6c0.5,0.7,1.1,1.8,1.1,1.8l0,0c0,0-0.1-1.1-0.1-1.8v-9.6h1.3V193h-1.3l-6.8-9.6
			c-0.5-0.7-1.1-1.8-1.1-1.8l0,0c0,0,0.1,1.1,0.1,1.8v9.6h-1.3V179.6z" />
            <path class="st0" d="M237.5,187.2l-4.5-7.6h1.5l2.8,4.8c0.4,0.7,0.8,1.6,0.8,1.6l0,0c0,0,0.4-0.9,0.8-1.6l2.8-4.8h1.5l-4.5,7.6
			v5.7h-1.3v-5.7H237.5z" />
        </g>
    </g>



</svg>