<svg xmlns="http://www.w3.org/2000/svg" viewBox="0 0 77.873 27.402">
    <path fill="#fff"
        d="M14.7 9.318h4.308V4.746a1.692 1.692 0 0 0-1.913-1.915h-.479a1.692 1.692 0 0 0-1.915 1.915zm-.009 2.918.009 5.029a1.692 1.692 0 0 0 1.915 1.915h.558a1.692 1.692 0 0 0 1.913-1.915v-2.472h2.95v2.352c0 3.23-1.634 4.865-4.864 4.865h-.638c-3.23 0-4.865-1.636-4.865-4.486V5.243C11.669 1.636 13.305 0 16.534 0h.638c3.23 0 4.864 1.636 4.864 4.865l-.009 7.371z"
        data-name="Path 1" />
    <path fill="#fff"
        d="M27.036 18.023a4.283 4.283 0 0 0 2.791 1.115 1.545 1.545 0 0 0 1.755-1.754V4.626a1.546 1.546 0 0 0-1.755-1.755 4.285 4.285 0 0 0-2.791 1.117zM24.004.239h3.03v1.4A5.071 5.071 0 0 1 30.742.003c2.591 0 3.868 1.715 3.868 4.267v13.477c0 2.552-1.277 4.267-3.868 4.267a5.2 5.2 0 0 1-3.708-1.556v6.947h-3.03z"
        data-name="Path 2" />
    <path fill="#fff"
        d="M43.699 18.143v-7.1l-2.751 1.042a2 2 0 0 0-1.475 2.227v3.27c0 1.037.519 1.556 1.476 1.556a4.767 4.767 0 0 0 2.751-1m-7.257-3.868c0-2.671.878-3.748 3.19-4.546L43.7 8.329V4.74a1.721 1.721 0 0 0-1.915-1.955h-.492a1.721 1.721 0 0 0-1.915 1.955v3.05h-2.949V4.86c0-3.23 1.636-4.865 4.865-4.865h.572c3.23 0 4.865 1.636 4.865 4.865v16.906h-3.03v-1.354a5.123 5.123 0 0 1-3.708 1.6c-2.432 0-3.549-1.4-3.549-3.788z"
        data-name="Path 3" />
    <path fill="#fff"
        d="M58.985 21.771h-3.03V4.426c0-1.077-.519-1.554-1.436-1.554a4.85 4.85 0 0 0-2.791 1.076v17.824h-3.026V.239h3.03v1.4A5.213 5.213 0 0 1 55.44.003a3.229 3.229 0 0 1 3.15 1.755A6.188 6.188 0 0 1 62.697.003c2.352 0 3.549 1.436 3.549 3.788v17.983h-3.03V4.426c0-1.077-.519-1.554-1.436-1.554a4.846 4.846 0 0 0-2.791 1.076z"
        data-name="Path 4" />
    <path fill="#00abcd" d="M7.786 2.223v3.96l-5.1 4.859 5.1 4.773v4.046L0 12.543V9.629z" data-name="Path 5" />
    <path fill="#00abcd" d="M77.873 9.629v2.914l-7.786 7.318v-4.046l5.1-4.773-5.1-4.859v-3.96z" data-name="Path 6" />
</svg>