<?xml version="1.0" encoding="utf-8"?>
<!-- Generator: Adobe Illustrator 27.8.0, SVG Export Plug-In . SVG Version: 6.00 Build 0)  -->
<svg version="1.1" id="Layer_1" xmlns="http://www.w3.org/2000/svg" xmlns:xlink="http://www.w3.org/1999/xlink" x="0px" y="0px"
	 viewBox="0 0 1367.39 1795.85" style="enable-background:new 0 0 1367.39 1795.85;" xml:space="preserve">
<style type="text/css">
	.st0{fill-rule:evenodd;clip-rule:evenodd;}
</style>
<path class="st0" d="M682.9,143.56c-267.96,0-485.22,217.13-485.22,485.21c0,267.84,217.27,485.15,485.22,485.15
	c267.83,0,484.49-217.31,484.49-485.15C1167.38,360.69,950.72,143.56,682.9,143.56z M538.43,755.29
	c-14.37,20.81-38.08,33.2-63.37,33.1c-42.22,0-77.17-34.59-77.17-77.31c0-42.59,34.95-77.16,77.17-77.16
	c25.72-0.07,49.79,12.68,64.17,34.01c14.49-20.65,38.13-32.94,63.36-32.94c42.62,0,77.31,34.64,77.31,77.18
	c-0.02,42.69-34.62,77.29-77.31,77.31C575.88,789.48,552.5,775.94,538.43,755.29z M681.96,1093.1c-42.48,0-85.67-70.8-85.67-140.94
	c0-77.75,38.52-140.86,85.67-140.86c47.12,0,85.26,63.11,85.26,140.86C767.23,1030.02,729.08,1093.1,681.96,1093.1z M584.34,1679.68
	c0-64.3,82.33-116.4,182.89-116.4c100.84,0,182.9,52.1,182.9,116.4c0,64.02-82.05,116.17-182.9,116.17
	C666.67,1795.85,584.34,1743.68,584.34,1679.68z"/>
<path class="st0" d="M562.16,1679.68c0-27.72,12.3-53.5,33.03-75.07c-36.85-26.51-93.77-43.4-157.6-43.4
	c-111.57,0-202.35,52.2-202.35,116.29c0,64.19,90.79,116.35,202.35,116.35c62.4,0,118.36-16.11,155.24-41.76
	C573.48,1731.23,562.16,1706.26,562.16,1679.68L562.16,1679.68z"/>
<path class="st0" d="M1243.05,476.15C1190.77,205,959.89,0,683.96,0c-276.42,0-507.39,204.82-560,475.89
	C50.82,501.88,0,572.23,0,654.92C0,759.11,106.3,848.7,210.08,844.85c-26.6-88.05-34.71-171.1-35.43-236.97c0,0,0-28,0.13-39.12
	c12.3-281.85,235.74-507.23,509.18-507.23c269.39,0,490.44,219.69,507.7,496.53c0.74,12.97,1.09,49.83,1.09,49.83h0.1
	c-0.58,65.87-8.51,148.92-34.86,236.97c103.38,3.85,209.4-85.73,209.4-189.93C1367.38,572.59,1315.91,502.42,1243.05,476.15
	L1243.05,476.15z"/>
<path class="st0" d="M815.2,1260.08c-34.53-46.28-154.6-102.59-172.51-110.81c-26.25-14.11-55.6-21.47-85.41-21.43
	c-98.23,0-178.15,78.19-178.15,174.35c0,2.27,0.13,12.61,0.13,12.61c0,86.03,20.88,165.86,56.68,224.39h1.67
	c53.33,0,102.72,11.58,141.27,31.04c-8.95-13.58-19.57-33.5-30.08-62.68c-10.61-29.96-13.61-48.49-15.98-59.62
	c-0.13-2.74-0.61-5.46-1.44-8.08c-1.32-0.05-2.62-0.16-5.47-0.16c-27.2,0-67.4-19.2-69.08-20.13c-3.82-1.86-6.23-5.75-6.21-10
	c0.01-1.65,0.42-3.27,1.19-4.72c2.6-5.4,9.09-7.68,14.49-5.08c0.02,0.01,0.04,0.02,0.06,0.03c10.38,5.05,41.05,17.96,59.54,17.96
	c21.94,0,25.16,7.06,28.77,26.15c2.02,10.51,5.11,28.05,15.12,56.33c22.32,64.07,44.38,77.31,44.75,77.42
	c2.42,1.39,4.21,3.65,5.01,6.33c37.6-26.35,89.98-42.74,147.69-42.74c1.67,0,3.54,0.17,5.1,0.27
	c-9.93-25.44-18.04-51.55-24.29-78.13l-1.19-5.15c-0.23-1.19-0.3-2.17-0.66-3.24c23.41-13.84,50.34-32.22,69.03-53.07
	C857.03,1355.89,852.72,1310.13,815.2,1260.08L815.2,1260.08z"/>
<path class="st0" d="M745.92,1338.08c-5.5,5.91-12.31,9.99-12.31,9.99l-8.13,4.11c0,0-2.15-31.5-2.15-39.69
	c0-8.35,6.33-14.62,6.33-14.62s2.28,1.37,5.4,3.7v-0.4c4.49,3.29,10.58,8.24,14.41,13.89c2.61,2.72,4.03,5.29,3.45,7.61
	C753.67,1328.18,750.17,1333.69,745.92,1338.08L745.92,1338.08z"/>
</svg>
