<svg xmlns="http://www.w3.org/2000/svg" xml:space="preserve" viewBox="0 0 1000 452.04">
	<title>Leeds Metropolitan University</title>
	<path
		d="M44.787 116.458c-.98.435.871 46.15 34.505 67.376 20.028 12.518 43.321 17.96 68.9 13.715 28.845-4.79 54.533-19.048 63.785-43.648.544-1.306.98-4.027-.762-1.96-.653.763-.436.327-1.307 1.416-8.925 10.776-19.592 17.524-28.082 21.334-8.708 3.918-33.307 14.586-35.593 2.612-1.306-6.422 7.728-8.925 18.504-14.041 15.347-7.293 24.817-19.048 31.021-30.695 8.164-15.456 6.858-34.287 5.77-37.008-.654-1.633-2.395 3.919-2.83 6.422-4.355 27.103-23.403 48.002-49.962 52.464-6.204.98-12.3.98-18.177.11-1.524-.218-2.068-1.851-1.089-2.613 3.592-2.612 5.552-7.184 4.79-11.864-1.089-6.749-7.51-11.212-14.15-10.123-6.205.98-10.668 7.51-10.559 13.497 0 2.83-2.612 3.374-5.442 1.088-14.803-11.973-27.43-32.218-25.47-65.961.217-4.245.87-13.28-.436-12.3-2.285 1.85-6.748 18.83-6.857 35.92-.109 29.824 22.205 56.165 16 62.26-7.51 7.402-21.769-10.122-27.102-18.613-5.66-8.816-7.837-15.674-11.974-24.817-2.177-4.571-3.483-4.571-3.483-4.571" />
	<path
		d="M182.32 248.45c-1.524.218-20.028 6.531-34.505 6.858 6.314-2.069 10.776-4.572 16.219-7.62 8.599-4.789 13.061-11.973 12.626-12.3-1.742-.98-19.375 8.055-35.158 11.756l-1.306.327c-12.953 3.592-22.64.217-29.497-5.007-.98-.762-.218-2.504 1.959-2.395 8.055.326 14.803-4.68 15.02-11.211.218-6.422-6.095-11.973-14.15-12.3-5.66-.218-10.666 2.177-13.17 5.878-.87 1.088-2.177-.436-2.395-1.089-4.353-10.34-8.816-25.579-34.178-28.953-28.953-3.919-34.94-18.178-37.334-26.123-2.177-8.382-4.463-32.763-4.572-32.763-1.306-12.736-2.503-19.593-3.265-18.722-1.306 1.197-3.81 13.606-4.027 21.007-.11 7.402-.98 22.75 1.959 37.988-6.313-14.368-6.749-20.137-8.49-27.865-1.742-7.728-3.375-20.68-4.79-19.375C1.851 127.74.654 138.08.654 141.453c-.98 41.253 7.62 65.2 48.002 77.5 18.177 5.55 30.15 25.796 44.518 33.633 22.423 12.191 34.94 14.586 60.084 10.994 17.198-2.612 30.912-15.456 29.062-15.13M8.577 79.496c-.01.02-.01.04-.02.06a3.012 3.012 0 0 1 .02-.06zM8.337 80.166c.1-.24.15-.44.22-.61-.07.2-.14.41-.22.61zM187.347 22.566c-7.65-1.02-17.87-6.43-23.34-11.59-9.95-9.56-25.4-11.33-41.33-10.14-14.2 1.06-28.29 3.53-45.63 19.95-12.65 11.92-34.86 12.7-48.09 25.58-14.87 14.51-19.41 32.21-20.41 36.71-2.41 10.55-.08 24.7.73 22.6 1.5-4.41 2.63-11.68 4.66-17.85 1.98-6.2 5.46-14.06 10.43-18.09 0 0 1.96-1.13 1.77.03-1.31 6.42 1.03 13.05 5.9 13.43 7.87.58 10-5.45 11.56-11.58.26-.84.9-.91.56 1.31-.56 3.45-1.82 11.76-1.87 12.48-.58 10.78 2.08 24 3.71 22.44 1.56-1.39 2.93-17.32 3.73-22.32.85-5.45 5.75-15.97 8.5-19.82 11.14-15.88 14.96-15.6 35.14-26.25 18.38-9.76 21.33-26.15 39.11-23.09.53.1.99.37 1.38.49 8.14 3.15 13.53 15.03 20.75 21.28 6.38 5.55 26.31 8.32 28.96 8.32 7.21-.27 1.27-2.39-.87-3.49-6.64-3.34-17.35-9.6-19.52-10.91-4.82-3-6.31-11.67-14.48-19.22 5.51 3.12 10.45 7.79 15.42 9.88 12.41 5.21 26.79 2.95 29.06 2.43 2.63-.66-3.17-2.24-5.83-2.58z" />
	<path
		d="M180.904 76.588c-1.633-10.667-4.136-16-8.926-20.899-7.292-7.51-15.456-5.224-21.987-7.183-9.252-2.722-10.122-8.817-21.77-6.64-15.129 2.83-24.163 10.45-29.061 24.164-8.055 22.314 7.075 39.947 8.163 37.988.327-.545-.762-2.286-1.959-8.382-1.96-10.558 1.197-21.225 4.245-26.123 4.898-8.708 13.497-13.388 23.402-13.606 3.157-.109 3.592 5.225 1.96 9.034-3.048 7.293-.436 15.24 5.768 17.851 6.096 2.722 13.606-.87 16.545-7.945.762-1.85.98-2.286 1.089-4.137 0-1.632 2.177-2.068 3.483-.653 6.422 9.797 9.143 22.967-.762 35.484-4.463 5.116-11.756 8.817-24.817 10.232-6.205.762-11.43 1.85-12.518 2.721 0 .11-.109.218-.109.327v.109c.436 1.632 13.062 3.7 27.539 1.959 23.293-2.721 33.307-20.681 29.715-44.3M205.459 85.572l.326.327.436.435.326.327c-1.088-1.197-2.286-2.395-3.483-3.592.109.218.218.326.327.435a18.552 18.552 0 0 0 2.068 2.068" />
	<path
		d="M217.099 31.012c-6.53-5.987-14.477-10.559-15.892-9.905-.217.108-.326.217-.326.435.217 1.306 16.218 15.892 23.728 28.409 3.701 6.095 11.32 19.375 14.15 32.11.654 2.83-.326 4.354-.98 2.612-.979-2.068-2.176-4.354-3.7-6.53-5.007-6.858-11.647-10.668-14.694-8.382-3.048 2.286-1.524 9.688 3.483 16.654.653.762 1.088 1.415 1.632 2.068 2.069 2.503.871 2.939-1.85.762-3.265-2.721-6.313-5.987-8.708-8.381-4.027-4.572-27.756-27.865-28.626-26.994 0 0-1.524 1.415 1.741 7.728 1.85 3.374 4.68 7.51 10.994 16 4.571 6.204 23.075 28.518 26.667 40.818 5.116 17.633 5.77 39.838-22.422 73.145-13.824 16.436-35.376 25.035-56.71 23.402-2.285-.108-12.735-.98-2.503 3.592 9.578 4.245 26.232 2.068 26.232 2.068 41.688-5.66 60.519-35.375 62.043-36.137 4.571-2.177-1.633 19.593-21.552 43.648-4.571 5.986-8.708 10.558-14.477 16.218-7.51 7.184 1.307 3.266 1.742 3.048 48.981-27.32 73.363-78.37 63.567-134.209-8.055-45.389-37.008-76.193-43.54-82.18M322.552 149.036h31.675v11.429h-44.41V92.762h12.735v56.274zM375.682 104.247v15.892h32.545v10.885h-32.545v18.068h37.987v11.43h-50.396V92.926h48.002v11.32h-35.593zM434.55 104.247v15.892h32.546v10.885H434.55v18.068h37.987v11.43h-50.396V92.926h48.002v11.32H434.55zM492.94 104.439v44.736h5.333c9.578 0 12.953-.435 15.783-1.524 4.898-1.96 10.123-6.204 10.123-20.245 0-6.314-.98-16.654-10.34-21.117-3.702-1.632-5.661-1.741-14.26-1.85h-6.64zm-12.627-11.43h24.164c5.878 0 12.953.11 20.028 5.226 11.32 7.945 13.062 21.551 13.062 29.062 0 11.538-3.919 23.402-13.933 29.062-6.748 3.918-13.823 4.027-21.77 4.136h-21.66c.11 0 .11-67.485.11-67.485zM553.153 140.424c1.632 2.503 6.748 10.231 20.898 10.231 2.395 0 4.898-.217 7.293-1.197 4.898-1.96 5.769-5.442 5.769-7.728 0-4.354-2.939-5.878-5.116-6.749-1.524-.435-1.633-.544-7.837-2.068l-8.055-1.632c-4.353-1.089-6.422-1.524-8.599-2.395-3.047-1.306-11.32-5.442-11.32-16.545 0-12.844 10.776-21.007 26.668-21.007 14.585 0 22.422 7.184 27.212 13.714l-10.34 7.62c-2.287-3.375-6.75-10.014-17.525-10.014-6.749 0-12.735 3.047-12.735 8.272 0 5.769 6.313 6.857 12.408 8.055l6.967 1.524c9.143 1.85 21.987 5.55 21.987 20.028 0 15.456-14.368 21.769-28.736 21.769-3.7 0-7.946-.435-12.082-1.524-4.463-1.415-12.409-4.68-17.524-12.844l10.667-7.51zM373.276 182.636v67.594h-8.925l1.306-56.71-21.334 56.601h-6.966l-21.008-55.839.98 55.839h-8.817v-67.485h11.538l20.79 55.403 20.898-55.403h11.538zM394.921 219.386v22.967h39.077v7.837h-47.784v-67.595H432.8v7.946h-37.879v20.899h32.872v7.946h-32.872zM467.86 190.485v59.757h-9.034v-59.757H438.47v-7.946h49.526v7.946H467.86zM504.716 214.023h17.85c2.94 0 5.552 0 8.273-.653 6.204-1.524 8.381-5.987 8.381-10.885 0-1.741-.218-6.313-4.027-9.47-3.483-3.047-7.946-2.938-13.062-2.938h-17.415v23.946zm0 7.51v28.736h-8.817v-67.594h25.035c9.47.109 15.02.109 20.245 4.136 5.007 3.7 7.075 9.361 7.075 15.565 0 15.783-12.735 17.96-16 18.613l18.94 29.28h-10.668l-18.395-28.736h-17.415zM590.296 188.187c-17.09 0-24.273 13.062-24.273 28.3 0 14.15 6.966 28.3 24.381 28.3 18.178 0 24.165-15.13 24.056-28.953-.11-16.327-8.6-27.647-24.164-27.647m-.327 63.784c-20.572 0-33.743-14.476-33.743-35.484 0-25.035 17.307-35.484 34.07-35.484 18.939 0 33.96 12.844 33.96 34.831 0 20.246-11.864 36.137-34.287 36.137M644.095 213.644h18.831c5.116 0 8.708 0 11.756-3.048 2.285-2.285 3.265-5.66 3.265-9.034 0-2.286-.435-5.987-3.592-8.599-2.939-2.503-6.204-2.612-9.36-2.612h-20.9v23.293zm0 7.946v28.627h-8.707v-67.594h29.17c3.375 0 7.185 0 10.777 1.197 7.945 2.721 11.537 10.123 11.537 17.96 0 7.401-3.483 16-12.408 18.721-3.374 1.089-6.749 1.089-10.776 1.089h-19.593zM725.932 188.187c-17.089 0-24.273 13.062-24.273 28.3 0 14.15 6.967 28.3 24.382 28.3 18.178 0 24.164-15.13 24.055-28.953-.109-16.327-8.599-27.647-24.164-27.647m-.326 63.784c-20.572 0-33.743-14.476-33.743-35.484 0-25.035 17.307-35.484 34.07-35.484 18.939 0 33.96 12.844 33.96 34.831 0 20.246-11.865 36.137-34.287 36.137M779.251 242.162h32.763v8.055h-41.688v-67.703h8.925v59.648zM828.129 250.224h-9.034V182.63h9.034v67.594zM863.957 190.485v59.757h-9.034v-59.757h-20.355v-7.946h49.526v7.946h-20.137zM919.478 221.968l-9.905-28.192-10.34 28.192h20.245zm2.721 7.619h-25.797l-7.51 20.68h-9.579l25.797-67.593h9.36l24.6 67.594h-9.578c0-.109-7.293-20.681-7.293-20.681zM999.5 182.636v67.594h-8.163l-37.009-54.968.762 54.968h-8.38v-67.594h8.38l36.682 54.206-.435-54.206h8.163zM360.45 272.218v43.104c-.108 2.72-.108 5.768-.87 8.816-1.96 8.164-9.47 17.416-25.253 17.416-5.007 0-14.368-.762-20.79-9.035-4.462-5.769-4.462-10.775-4.462-18.395v-41.906h9.143v40.709c-.109 6.204-.109 11.429 3.483 15.783 4.027 5.007 9.905 5.224 12.626 5.224 7.946 0 14.15-3.81 16.219-11.21.761-2.94.761-5.77.87-10.015v-40.49h9.035zM427.17 272.313v67.594h-8.164l-37.008-54.968.762 54.968h-8.381v-67.594h8.38l36.682 54.206-.435-54.206h8.164zM449.232 339.914h-9.143V272.32h9.143v67.594zM501.74 272.313h9.58l-23.838 67.594h-9.034l-22.75-67.594h9.579l17.85 56.491 18.614-56.491zM527.69 309.064v22.967h39.076v7.837h-47.784v-67.594h46.587v7.945H527.69v20.9h32.98v7.945h-32.98zM584.654 303.701h17.851c2.939 0 5.551 0 8.272-.653 6.205-1.524 8.382-5.987 8.382-10.885 0-1.741-.218-6.313-4.028-9.47-3.483-3.047-7.946-2.938-13.061-2.938h-17.416V303.7zm0 7.51v28.736h-8.817v-67.594h25.035c9.361.109 14.912.109 20.137 4.136 5.116 3.701 7.184 9.361 7.184 15.565 0 15.783-12.735 17.96-16 18.613l18.939 29.28h-10.667l-18.395-28.736h-17.416zM662.183 308.68c-9.797-2.068-24.164-5.225-24.164-19.266 0-6.749 3.592-10.885 6.204-13.17 6.095-5.117 13.497-5.66 18.177-5.66 4.79 0 12.082.435 18.178 5.006 6.64 4.898 8.054 11.756 8.708 15.892l-9.144.544c-.108-2.068-.326-7.51-5.442-11.211-3.483-2.504-7.728-3.266-12.082-3.266-8.164 0-15.347 3.375-15.347 10.667 0 7.51 7.51 9.144 13.279 10.559l7.51 1.85c5.116 1.306 7.946 1.85 10.667 2.939 10.123 4.245 11.647 12.3 11.647 16.871 0 6.313-2.612 12.3-8.599 16.327-6.53 4.354-14.259 4.79-18.395 4.79-6.095 0-27.103-.98-28.627-23.294l9.688-1.197c.108 2.612.435 8.49 5.442 13.062 3.81 3.374 8.925 4.462 13.932 4.462 9.579 0 16.872-4.68 16.872-13.497 0-7.837-6.205-9.905-12.844-11.32l-5.66-1.088zM709.703 339.914h-9.034V272.32h9.034v67.594zM745.458 280.157v59.757h-9.143v-59.757H716.07v-7.945h49.525v7.945h-20.137zM803.57 308.968v30.913h-9.142v-30.913l-23.838-36.681h10.667L799 300.913l18.069-28.626h10.776l-24.273 36.681zM30.242 236.166l-4.898-.436c37.226 29.28 69.009 71.513 65.417 116.358l23.293-11.211c-2.939-41.798-40.817-82.289-83.812-104.711" />
	<path
		d="M48.578 451.536h20.137C85.26 354.553 149.806 274.986 253.538 253l.544-3.592c-117.446 20.246-188.197 94.044-205.504 202.13" />
</svg>