<svg xmlns="http://www.w3.org/2000/svg" xml:space="preserve" x="0" y="0" version="1.1" viewBox="0 0 148.5 81.59">
	<title>Movie MAX logo</title>
	<path
		d="m.07 49.23 3.9-31.42.04-.31.31-.06 15.33-2.82.31-.06.15.29 7 14.01 3.93-16.07.07-.26.27-.05L46.7 9.66l.36-.06.12.34 10.34 28.81.18.48-.5.09-14.23 2.61-.4.07-.1-.39-3.7-14.85-6.41 16.9-.08.22-.23.05-7.97 1.46-.32.06-.14-.29-7.25-14.5-.83 15.97-.01.34-.34.06L.57 49.7l-.57.1.07-.57zM43.1 11.78l.86 2.54 2.69-.49-.86-2.55-2.69.5zm1.65 4.88.88 2.58 2.68-.49-.87-2.58-2.69.49zm1.66 4.88.88 2.58 2.68-.49-.87-2.58-2.69.49zm1.65 4.89.88 2.58 2.69-.49-.87-2.58-2.7.49zm1.66 4.88.88 2.58 2.69-.49-.88-2.58-2.69.49zm1.65 4.88.88 2.58 2.68-.5-.87-2.58-2.69.5zM11.15 81.01l3.9-31.43.04-.31.31-.05 15.33-2.82.32-.06.14.29 7 14.01 3.93-16.07.06-.26.28-.06 15.33-2.81.35-.06.13.34L68.6 70.53l.18.47-.5.09-14.22 2.61-.4.08-.09-.39-3.72-14.85-6.4 16.9-.08.23-.24.04-7.97 1.46-.32.06-.14-.29-7.25-14.5-.82 15.96-.02.34-.33.06-14.62 2.68-.57.11.06-.58zm43.03-37.45.87 2.55 2.69-.49-.87-2.56-2.69.5zm1.65 4.89.87 2.58 2.69-.49-.88-2.58c.01 0-1.91.35-2.68.49zm1.65 4.89.88 2.58 2.69-.49-.88-2.59-2.69.5zm1.66 4.88.87 2.58 2.68-.49-.87-2.58-2.68.49zm1.66 4.87.88 2.59 2.69-.5-.88-2.58-2.69.49zm1.65 4.89.88 2.58 2.68-.5-.88-2.58-2.68.5zM77.92 13.61l7.95-1.45 3.5 6.07 1.01-6.9 8.31-1.52-4.05 16.87-6.93 1.27-9.79-14.34zM105.7.03c2.48-.25 4.49 1.21 4.49 3.26s-2.01 3.92-4.49 4.17c-2.48.26-4.5-1.2-4.5-3.25.01-2.06 2.02-3.93 4.5-4.18zM102.71 9.07l7.59-1.4 2.5 15.68-7.59 1.39-2.5-15.67zM124.15 14.21c.26 1.46.73 2 1.44 2.33 1.12.52 2.52-.2 2.38-1.53l8.31-1.52c-.93 3.91-4.99 7.19-9.88 7.68-5.57.57-10.08-2.69-10.08-7.29 0-4.59 4.51-8.79 10.08-9.36 5.56-.57 10.07 2.7 10.07 7.3v.13l-12.32 2.26zm-.54-3.06 3.94-.73c-.03-.02-.07-.05-.1-.06-.3-.89-.62-1.83-2.01-1.63-1.05.15-2.11.84-1.83 2.42zM66.69 14.99c.43-.05.87-.07 1.29-.07 5.27 0 9.25 3.33 9.25 7.78 0 4.78-4.64 9.19-10.46 9.79-.43.05-.86.07-1.29.07-5.27 0-9.25-3.34-9.25-7.79 0-4.77 4.64-9.18 10.46-9.78zm.04 6.56c-1.23.15-2.23 1.25-2.23 2.46 0 1.2 1 2.06 2.23 1.91 1.23-.15 2.23-1.25 2.23-2.46 0-1.2-.99-2.06-2.23-1.91zM75.92 38.71c.45-.08 13.79-2.53 13.79-2.53l18.34 27.34-12.84 2.35-2.38-4.17-9.67 1.78-.66 4.73-12.6 2.32 6.02-31.82zm8.21 17.76 5.19-.96-4.08-7.18-1.11 8.14zM105.45 33.29l13.86-2.54 4.06 3.64 2.39-4.83 13.81-2.54-7.52 15.17 15.65 14.05-13.87 2.55-6.92-6.23-4.08 8.25-13.81 2.53 9.21-18.58-12.78-11.47zM144.25 28.81l.99-.2c.5-.1.81-.41.72-.86-.08-.43-.4-.6-.88-.52l-1.09.21.26 1.37zm.36-3.1c1.77-.35 3.49.81 3.83 2.56.35 1.76-.82 3.47-2.59 3.82-1.78.35-3.49-.8-3.83-2.56-.35-1.76.81-3.48 2.59-3.82zm-2.22 3.75c.3 1.56 1.82 2.57 3.39 2.26 1.56-.31 2.59-1.82 2.29-3.37-.3-1.55-1.83-2.56-3.39-2.26-1.57.3-2.6 1.81-2.29 3.37zm3.28-.49 1.63 1.61-.57.11-1.61-1.56-.77.15.35 1.82-.45.09-.8-4.08 1.54-.31c.78-.15 1.34.27 1.45.87.11.6-.15 1.07-.77 1.3z" />
</svg>