<?xml version="1.0" encoding="utf-8"?>
<!-- Generator: Adobe Illustrator 27.8.0, SVG Export Plug-In . SVG Version: 6.00 Build 0)  -->
<svg version="1.1" id="Layer_1" xmlns="http://www.w3.org/2000/svg" xmlns:xlink="http://www.w3.org/1999/xlink" x="0px" y="0px"
	 viewBox="0 0 172.86 222.89" style="enable-background:new 0 0 172.86 222.89;" xml:space="preserve">
<style type="text/css">
	.st0{fill:#FFFFFF;}
</style>
<g>
	<path d="M0.76,156.32c6.34,2.55,12.78,4.87,18.99,7.7c11.01,5.03,21.87,10.36,33.21,14.76c-16.44-7.52-32.53-15.58-46.73-27.06
		c4.16,2.22,8.33,4.44,12.48,6.68c15.77,8.48,32.16,15.19,49.88,18.61c9.83,1.9,19.26,1.04,28.51-2.25
		c11.77-4.19,14.69-16.43,5.28-24.76c-6.26-5.54-13.96-9.56-21.25-13.84c-18.5-10.87-37.49-20.97-55.6-32.44
		C13.4,96.03,5.02,84.59,1.8,70.25c-3.74-16.65,0.52-31.28,12.23-43.78C30.08,9.35,50.26,1.53,73.25,0.22
		c24.98-1.43,48.67,4.21,71.41,14.07c5.2,2.25,9.77,5.94,14.4,9.65c-3.86-1.52-7.71-3.05-11.57-4.57c-0.15,0.24-0.31,0.49-0.46,0.73
		c2.83,1.62,5.66,3.24,8.49,4.87c-0.2,0.41-0.41,0.82-0.61,1.23c-5.88-1.91-11.95-3.38-17.62-5.81
		C112.48,9.78,86.84,6.83,60.56,12.52c-19.52,4.22-39.58,19.82-42.4,41.5c-2.06,15.88,2.47,29.88,13.86,40.48
		c8.91,8.29,19.45,15.03,29.91,21.4c17.2,10.46,35.02,19.89,52.35,30.14c3.27,1.93,6.25,5.22,8.08,8.58
		c5.2,9.51,1.9,19.03-8.34,24.87c-13.92,7.93-28.89,9.79-44.46,6.54c-23.84-4.98-46.25-13.67-67.03-26.44
		c-0.92-0.56-1.69-1.36-2.53-2.05C0.25,157.12,0.5,156.72,0.76,156.32z M63.66,9.06c-0.49-0.46-0.59-0.63-0.72-0.66
		c-0.48-0.11-0.97-0.29-1.44-0.24c-16.94,1.8-32.51,6.93-44.72,19.45c-8.68,8.9-12,27.8-6.74,38.65
		C10.35,30.42,33.69,16.85,63.66,9.06z M7.27,41.35c-11.74,23.1,0.67,52.58,30.29,67.5C16.78,91.43,2.18,71.03,7.27,41.35z
		 M48.31,6.56c12.57-0.35,27-1.71,41.3-0.87c14.48,0.86,28.84,3.9,42.84,5.92C108.21,0.68,68.18-2.36,48.31,6.56z M25.74,31.36
		c-10.41,9.52-13.87,21.51-12.87,35.2c0.83,11.4,7.05,22.73,15.17,26.62C13.16,72.82,11.55,52.36,25.74,31.36z M116.11,158.9
		c-3.69,4.98-6.78,10.53-11.18,14.71c-4.4,4.17-10.11,6.95-15.61,10.58c10.21-0.03,18.78-3.24,25.16-11
		C118.28,168.56,118.3,163.21,116.11,158.9z M107.35,145.39c0.28-0.37,0.57-0.75,0.85-1.12c-25.13-14.23-50.26-28.46-75.75-42.9
		C55.25,120.26,82.68,130.48,107.35,145.39z M117.47,174.28c5.66-3.68,6.09-8.98,5.16-14.55c-0.98-5.86-4.78-9.64-9.93-12.37
		C118.28,155.68,122.74,164.01,117.47,174.28z M91.48,179.54c-11.18-0.74-22.76-1.51-34.98-2.32
		C68.62,182.24,80.19,184.67,91.48,179.54z M111.13,162.8c4.55-6.39,1.99-12.32-6.68-15.78C106.6,152.11,108.9,157.53,111.13,162.8z
		"/>
	<path d="M154.71,200.05c-6.66,8.02-15.91,11.83-25.29,15.25c-25.67,9.36-52.01,9.57-78.17,3.35c-15.95-3.79-31.33-9.97-46.94-15.14
		c-1.39-0.46-2.62-1.43-3.5-3.17c4.87,1.23,9.73,2.47,15.08,3.83c-0.6-6.07-6.45-4.88-8.77-8.5c2.91,1.1,5.77,2.34,8.72,3.27
		c12.51,3.95,24.83,8.97,37.64,11.45c22.28,4.32,44.76,4.28,66.57-3.39c19.02-6.69,32.73-18.34,35.31-39.76
		c1.93-16.03-4.53-28.94-15.16-40.15c-12.33-13.01-27.67-21.71-43.39-29.9c-12.68-6.61-25.62-12.93-37.52-20.78
		c-14.92-9.83-15.03-20.51-1.8-32.36c8.73-7.82,19.27-9.25,30.36-8.5c17.94,1.21,34.4,7.5,50.31,15.34
		c7.09,3.49,13.82,7.74,20.71,11.64c-0.16,0.37-0.32,0.74-0.48,1.11c-6.95-3.2-13.9-6.39-20.85-9.59c-0.18,0.37-0.36,0.74-0.53,1.11
		c5.86,3,11.72,6.01,17.58,9.01c-0.15,0.41-0.3,0.83-0.46,1.24c-4.48-1.2-9.11-2-13.42-3.66c-12.55-4.84-24.68-10.97-37.53-14.72
		c-7.52-2.19-16.12-1.38-24.16-0.82c-6.08,0.42-10.99,4.13-13.02,10.22c-2.13,6.4,0.13,11.98,5.05,16.15
		c3.39,2.87,7.3,5.26,11.27,7.29c20.75,10.63,41.86,20.67,60.42,35c5.43,4.19,10,9.51,14.96,14.31c0,0,0.06-0.06,0.06-0.06
		c-1.97-1.35-3.95-2.71-6.99-4.79c4.38,7.04,8.27,12.64,11.49,18.6c5.68,10.5,7.32,21.81,3.82,33.27
		c-2.05,6.73-5.54,13.02-8.38,19.51C156.72,197.15,155.72,198.6,154.71,200.05z M163.42,153.67c0.34,18.14-8.27,31.93-20.73,43.8
		c-12.56,11.97-28,18.09-44.69,21.54c23.33-1.05,43.98-8.21,58.62-27.52C165.1,180.33,167.36,167.49,163.42,153.67z M156.76,174.94
		c7.46-13.65,6.18-30.87-4.05-41.91c-6.73-7.26-14.9-13.19-22.48-19.65c-0.84-0.72-1.99-1.09-2.99-1.62
		C147.54,128.06,162.99,146.28,156.76,174.94z M36.24,208.26c16.81,11.65,66.97,12.46,80.29,1.78
		C89.86,216.67,63.45,215.42,36.24,208.26z M66.47,40.44c17.94-1.88,35.45,1.91,53.03,4.61C102.24,38.27,84.82,33.46,66.47,40.44z
		 M136.57,114.13C115.2,96.76,88.3,88.91,66.02,73.08C87.17,90.8,114.34,98.24,136.57,114.13z M78.04,43.44
		c-0.15-0.61-0.3-1.22-0.45-1.82c-5.86,1.51-11.96,2.44-17.52,4.7c-5.72,2.32-6.63,8.38-2.57,14.06
		C60.22,49.57,68.69,45.97,78.04,43.44z M66.05,78c-2.39-3.55-5.28-7.3-7.56-11.4c-2.34-4.2-4.07-8.74-6-12.97
		C45.94,62.29,55.76,73.75,66.05,78z M64.78,52.55c-6.04,4.64-6.36,12.66,0,15.85C64.78,63.09,64.78,57.78,64.78,52.55z"/>
	<path d="M154.71,200.05c1.01-1.45,2.01-2.9,3.02-4.35c13.57-12.77,17.65-34.02,9.41-50.85c-2.67-5.46-6.21-10.51-9.35-15.74
		c0,0-0.06,0.06-0.06,0.06c8.65,7.16,13.06,16.82,14.6,27.5c2.31,16.01-3.01,29.85-14.29,41.37
		C157.16,198.94,155.83,199.39,154.71,200.05z"/>
	<path class="st0" d="M63.66,9.06c-29.97,7.79-53.31,21.36-53.62,57.2C4.78,55.41,8.1,36.51,16.78,27.61
		C28.98,15.09,44.56,9.96,61.5,8.16c0.47-0.05,0.97,0.13,1.44,0.24C63.07,8.43,63.17,8.6,63.66,9.06z"/>
	<path class="st0" d="M7.27,41.35c-5.09,29.67,9.51,50.07,30.29,67.5C7.94,93.93-4.47,64.45,7.27,41.35z"/>
	<path class="st0" d="M48.31,6.56c19.88-8.92,59.91-5.87,84.14,5.05c-14.01-2.03-28.36-5.07-42.84-5.92
		C75.3,4.84,60.87,6.21,48.31,6.56z"/>
	<path class="st0" d="M25.74,31.36c-14.19,21-12.57,41.46,2.29,61.82c-8.12-3.89-14.33-15.22-15.17-26.62
		C11.86,52.86,15.32,40.87,25.74,31.36z"/>
	<path class="st0" d="M116.11,158.9c2.18,4.31,2.17,9.66-1.64,14.29c-6.38,7.75-14.95,10.97-25.16,11
		c5.5-3.63,11.21-6.41,15.61-10.58C109.33,169.43,112.43,163.87,116.11,158.9z"/>
	<path class="st0" d="M107.35,145.39c-24.66-14.91-52.09-25.14-74.9-44.02c25.5,14.44,50.62,28.67,75.75,42.9
		C107.92,144.64,107.63,145.02,107.35,145.39z"/>
	<path class="st0" d="M117.47,174.28c5.27-10.27,0.81-18.6-4.77-26.92c5.15,2.74,8.96,6.51,9.93,12.37
		C123.56,165.3,123.13,170.6,117.47,174.28z"/>
	<path class="st0" d="M91.48,179.54c-11.3,5.13-22.86,2.7-34.98-2.32C68.73,178.03,80.31,178.8,91.48,179.54z"/>
	<path class="st0" d="M111.13,162.8c-2.23-5.27-4.53-10.7-6.68-15.78C113.12,150.49,115.68,156.41,111.13,162.8z"/>
	<path class="st0" d="M163.42,153.67c3.94,13.82,1.67,26.66-6.79,37.82c-14.65,19.31-35.29,26.46-58.62,27.52
		c16.68-3.44,32.13-9.57,44.69-21.54C155.15,185.6,163.77,171.81,163.42,153.67z"/>
	<path class="st0" d="M156.76,174.94c6.23-28.66-9.22-46.88-29.52-63.18c1,0.53,2.15,0.9,2.99,1.62
		c7.57,6.47,15.75,12.4,22.48,19.65C162.94,144.07,164.22,161.29,156.76,174.94z"/>
	<path class="st0" d="M157.79,129.11c3.14,5.23,6.67,10.28,9.35,15.74c8.24,16.83,4.16,38.08-9.41,50.85
		c2.84-6.49,6.33-12.78,8.38-19.51c3.5-11.46,1.86-22.76-3.82-33.27c-3.22-5.96-7.11-11.56-11.49-18.6
		C153.84,126.4,155.82,127.76,157.79,129.11z"/>
	<path class="st0" d="M36.24,208.26c27.21,7.16,53.61,8.41,80.29,1.78C103.21,220.72,53.05,219.91,36.24,208.26z"/>
	<path class="st0" d="M66.47,40.44c18.34-6.98,35.76-2.17,53.03,4.61C101.92,42.35,84.42,38.56,66.47,40.44z"/>
	<path class="st0" d="M136.57,114.13c-22.23-15.89-49.4-23.33-70.55-41.05C88.3,88.91,115.2,96.76,136.57,114.13z"/>
	<path class="st0" d="M78.04,43.44c-9.34,2.53-17.81,6.13-20.53,16.93c-4.07-5.68-3.15-11.73,2.57-14.06
		c5.56-2.26,11.66-3.19,17.52-4.7C77.74,42.23,77.89,42.83,78.04,43.44z"/>
	<path class="st0" d="M66.05,78c-10.3-4.25-20.12-15.72-13.56-24.37c1.93,4.23,3.66,8.77,6,12.97C60.77,70.7,63.67,74.46,66.05,78z"
		/>
	<path class="st0" d="M64.78,52.55c0,5.23,0,10.54,0,15.85C58.42,65.21,58.74,57.19,64.78,52.55z"/>
</g>
</svg>
