<svg xmlns="http://www.w3.org/2000/svg" xml:space="preserve" viewBox="0 0 39.56 39.56">
	<title>Universiteit Utrecht</title>
	<path
		d="M16.39 21.62c0 .85.69 1.54 1.54 1.54h.73c.37 0 .7.22.84.56h.55c.14-.34.47-.56.84-.56h.72c.85 0 1.54-.69 1.54-1.54V16.4h-6.76v5.22zm6.13-4.59v4.59a.9.9 0 0 1-.26.64L17 17.03h5.52zM21.84.11a19.1 19.1 0 0 0-4.14 0l2.07 11.76L21.84.11zm-2.78 1.32c0-.4.32-.72.72-.72.4 0 .72.32.72.72s-.32.72-.72.72h-.01c-.39 0-.71-.32-.71-.71v-.01M26.49 1.17c-.43-.15-.88-.29-1.32-.42.1.06.21.11.31.18l-.33.46c-.17-.11-.36-.19-.55-.25-.34-.09-.5 0-.54.18s0 .23.33.37c.66.33.78.66.69 1-.17.68-.78.8-1.39.65-.29-.08-.57-.2-.82-.36l.32-.49c.19.11.39.2.6.27.23 0 .47.07.53-.19s-.25-.36-.55-.53a.798.798 0 0 1-.45-1c.11-.39.47-.65.88-.63-.57-.13-1.14-.23-1.73-.31l-.8 11.91 4.82-10.84zM34.37 6.43c-.5-.54-1.02-1.05-1.57-1.53l-1.42 1.64c.3.27.6.55.89.84l-.45.4c-.43-.44-.89-.86-1.38-1.25l1.77-2.17c-.31-.24-.62-.48-.94-.71L25 13.86l9.37-7.43zM37.14 10.31c-.66-1.21-1.46-2.35-2.36-3.4l-8.49 8.38 10.85-4.98zm-1.68-1.36c.23.33.15.77-.18 1-.33.23-.77.15-1-.18a.712.712 0 0 1 .18-1 .73.73 0 0 1 1 .18M38.9 14.78c-.14-.55-.31-1.08-.5-1.61l-2.64.94c-.08-.2-.16-.42-.25-.63l2.61-1c-.2-.52-.44-1-.69-1.53l-10.26 6.1 11.73-2.27zM39.05 24.21c.1-.45.2-.91.27-1.37-.04.12-.09.23-.15.34l-.5-.27c.1-.18.16-.38.19-.58 0-.35-.07-.5-.24-.52s-.23.06-.33.38c-.25.7-.57.86-1 .81-.69-.08-.89-.67-.82-1.3.04-.3.14-.58.27-.85l.52.25c-.09.2-.16.41-.2.63 0 .23 0 .48.26.51s.32-.3.46-.62a.78.78 0 0 1 .89-.56c.4.06.71.39.73.8.06-.58.1-1.17.11-1.76l-11.88.68 11.42 3.43zM37.43 28.69c.14-.27.27-.55.4-.84l-.57-.25c.1-.22.2-.44.29-.67l-2-.82c.08-.2.16-.42.24-.63l2.06.74c.08-.23.15-.45.22-.68l.6.19c.1-.3.18-.6.26-.91l-11.76-2.23 10.26 6.1zM34.78 32.66c.37-.43.71-.87 1-1.32L33.5 29.7l.39-.56 2.34 1.56c.31-.47.6-.95.87-1.44l-10.85-5 8.53 8.4zM31.27 35.87l.74-.55-.39-.49c.19-.15.38-.3.56-.46l-1.41-1.67.5-.44 1.48 1.61.52-.49.44.44c.22-.22.44-.45.65-.69L25 25.7l6.27 10.17zM27.08 38.16c.52-.21 1-.43 1.53-.68l-1.26-2.52.6-.32 1.36 2.47c.49-.27.97-.56 1.44-.87l-7.3-9.46 3.63 11.38zM17.71 39.45c.68.07 1.37.11 2.06.11s1.38-.04 2.07-.11l-2.07-11.76-2.06 11.76zm2.78-1.32c0 .4-.32.72-.72.72-.4 0-.72-.32-.72-.72 0-.4.32-.72.72-.72.39-.01.71.31.72.7v.02M13.05 38.39c.53.19 1.07.36 1.62.5l.73-2.71.66.15-.62 2.75c.54.12 1.08.22 1.63.29l.81-11.91-4.83 10.93zM8.8 36.24c.61.4 1.24.77 1.89 1.11l1-1.94c-.36-.18-.72-.38-1.07-.6l.38-.53c.53.32 1.08.61 1.64.88l-1.2 2.54c.35.16.71.32 1.07.46l3.59-11.38-7.3 9.46zM5.18 33.13c.49.54 1.02 1.05 1.57 1.53l1.43-1.64c-.31-.27-.6-.54-.89-.83l.44-.41c.44.44.9.86 1.38 1.25l-1.76 2.14c.3.24.61.48.93.7l6.25-10.17-9.35 7.43zM.64 24.78c.12.46.26.9.41 1.34v-.36h.57c0 .2.04.41.1.6.13.33.29.41.46.34s.17-.15.12-.48c-.11-.74.09-1 .47-1.16.65-.25 1.1.17 1.32.76.11.28.16.58.17.88h-.59c-.01-.22-.05-.45-.11-.66-.09-.21-.21-.42-.46-.33s-.15.42-.13.76c.09.4-.13.8-.52.92a.865.865 0 0 1-1-.37c.21.54.45 1.07.71 1.59l10.26-6.1L.64 24.78zM0 20.1v.94h.61l.06.72 2.18-.22c0 .22 0 .45.08.67l-2.13.27.12.7-.61.11c0 .31.12.61.18.92l11.43-3.43L0 20.1zM4.76 6.91c-.9 1.05-1.69 2.19-2.35 3.4l10.85 5-8.5-8.4zm-.49 3a.715.715 0 0 1 .1-1.01c.2-.16.47-.21.71-.12.3.26.33.71.07 1.02-.22.26-.59.32-.88.16M17.07.19c-.46.06-.92.14-1.38.23h.37L16 1c-.2-.03-.41-.03-.61 0-.34.08-.44.24-.4.41s.13.19.47.18c.74 0 1 .22 1.1.6.17.68-.31 1.08-.92 1.23-.3.07-.6.09-.9.06V2.9c.22.03.44.03.66 0 .23-.06.45-.16.39-.42s-.4-.2-.74-.21a.79.79 0 0 1-.85-.64c-.1-.41.12-.84.51-1-.58.15-1.14.32-1.7.52l4.83 10.93L17.07.19zM30.75 3.32c-.42-.28-.86-.54-1.3-.79.44.46.53 1.15.21 1.7-.34.72-1.2 1.03-1.92.69-.05-.02-.09-.05-.13-.07a1.442 1.442 0 0 1-.68-1.93c.02-.05.05-.09.07-.14.28-.58.91-.9 1.54-.79-.46-.22-.93-.43-1.41-.62l-3.68 11.41 7.3-9.46z" />
	<path
		d="M27.63 3.16c-.25.35-.16.84.19 1.09.35.25.84.16 1.09-.19.04-.06.07-.12.09-.18.26-.34.2-.83-.15-1.09s-.83-.2-1.09.15c-.05.06-.09.14-.12.22M36.67 18.18c0-.27-.06-.53-.1-.79l2.62-1.37c0-.22-.09-.44-.14-.66l-11.42 3.47 11.92.63v-.61l-2.88-.67z" />
	<path
		d="m37.34 17.69 2.22.44-.17-1.38-2.05.93zM12.46 1.4c-.47.19-.94.4-1.4.62.62-.12 1.25.19 1.53.76.38.71.12 1.58-.59 1.96-.02.01-.05.02-.07.04-.69.39-1.57.15-1.96-.55-.02-.02-.03-.05-.04-.07-.31-.55-.23-1.24.21-1.7-.44.25-.87.51-1.29.79l7.25 9.53L12.46 1.4z" />
	<path
		d="M11.66 4.33c.38-.21.52-.69.32-1.07l-.06-.09a.792.792 0 0 0-.98-.52c-.41.13-.64.56-.52.98.03.09.07.18.13.25.13.41.57.63.98.5.05-.01.09-.03.13-.05M8.28 3.69l-.53.39 1.67 2.25-.59.45-2.06-.65 1.3 1.36-.43.43-2-2-.45.47 9.35 7.43L8.28 3.69z" />
	<path
		d="m7.13 4.48-.88.78 2.08.7zM2.11 10.87c-.24.48-.46 1-.66 1.46l3 .09c-.11.23-.22.47-.32.71h-.67c-.12.3-.24.61-.35.93l.52.42c-.08.24-.15.48-.22.72l-2.3-2c-.11.46-.32 1-.47 1.58l11.73 2.23-10.26-6.14z" />
	<path
		d="m1.78 12.95.92.7c.07-.21.15-.41.23-.62l-1.15-.08zM.5 15.36c-.14.61-.25 1.22-.33 1.84.1-.47.37-.83.82-.8.4.01.71.34.7.74v.02c.11-.12.24-.21.38-.28.33-.16.66-.31 1-.43-.06.26-.1.5-.14.76 0 0-.45.12-.65.2s-.5.24-.53.44v.1l1.1.11c0 .23 0 .45-.05.68L0 18.58v.88l11.92-.63L.5 15.36z" />
	<path
		d="M1 17.14c-.23 0-.38.1-.41.39v.33l.71.07v-.32c0-.11 0-.44-.3-.47M2.41 29.26c.1.18.2.36.31.54l2.85-.74c.14.23.29.45.45.66l-1.68 2.42.42.52 8.5-8.38-10.85 4.98z" />
	<path
		d="m5.19 29.82-2.16.63.79 1.14 1.38-1.77zM21.67 27.46l.8 11.91c.2-.02.41-.05.61-.09l-.1-.61c.38-.06.76-.14 1.18-.24l-.16-.48c-.38.09-.71.16-1.06.22l-.09-.56c.33 0 .65-.12 1-.2l-.13-.49c-.39.09-.74.16-1.09.22l-.1-.62c.57-.1 1.14-.22 1.7-.38l.22.74c.3-.08.6-.18.9-.28l.11-.41-3.79-8.73z" />
	<path d="m24.92 38.42.31-1.16-.61.18.3.98zM25.44 38.81l1.12-.27-.61-1.37z" />
</svg>