<svg xmlns="http://www.w3.org/2000/svg" viewBox="0 0 500 500">
    <path fill="currentColor" d="M63.5 269.76c-.33-.7-.62-1.42-.91-2.14-.29-.71-.59-1.41-.84-2.13-.2-.58-.37-1.16-.54-1.75-.26-.85-.53-1.71-.74-2.57-.12-.51-.21-1.02-.32-1.54-.19-.93-.39-1.85-.52-2.78-.08-.56-.12-1.12-.18-1.68-.09-.88-.19-1.75-.23-2.63-.03-.71-.02-1.42-.02-2.14 0-.72-.02-1.45.02-2.17.04-.87.14-1.74.23-2.61.06-.57.1-1.14.18-1.7.13-.92.32-1.84.51-2.75.11-.52.2-1.05.32-1.57.21-.85.47-1.69.73-2.53.18-.6.35-1.2.56-1.79.25-.7.54-1.39.82-2.09.3-.73.59-1.47.93-2.18.26-.54.54-1.08.82-1.62.44-.85.89-1.68 1.38-2.5.1-.17.17-.34.28-.5.19-.3.4-.57.59-.86.53-.82 1.08-1.64 1.67-2.43.36-.48.73-.93 1.1-1.39.55-.69 1.12-1.36 1.72-2.02.48-.53.97-1.03 1.47-1.53.53-.53 1.06-1.05 1.62-1.56.63-.57 1.27-1.11 1.92-1.63.49-.4.98-.79 1.49-1.17.76-.57 1.54-1.09 2.33-1.61.31-.2.6-.44.92-.64L371.03 32.22c21.45-13.25 49.58-6.61 62.83 14.84s6.61 49.58-14.84 62.83L191.66 250.4l227.37 140.51c21.45 13.25 28.09 41.38 14.83 62.83-8.63 13.97-23.58 21.66-38.88 21.66-8.19 0-16.48-2.2-23.96-6.82L80.82 289.24c-.55-.34-1.04-.73-1.57-1.08-.58-.39-1.16-.77-1.73-1.19-1.25-.93-2.45-1.92-3.58-2.95-.14-.13-.3-.24-.44-.37-1.32-1.24-2.53-2.58-3.68-3.95-.27-.33-.53-.68-.8-1.01-.93-1.18-1.79-2.39-2.59-3.64-.14-.22-.31-.41-.45-.63-.11-.17-.19-.35-.29-.53-.48-.8-.91-1.61-1.34-2.44-.28-.57-.58-1.12-.85-1.69z"/>
</svg>
