<svg xmlns="http://www.w3.org/2000/svg" viewBox="0 0 500 500" style="enable-background:new 0 0 500 500" xml:space="preserve">
  <title>Copy</title>
  <path fill="currentColor" d="M401.3 21.5h-202c-11.6 0-20.9 9.4-20.9 20.9v61.1h-83c-9.8 0-17.7 7.9-17.7 17.7v339.6c0 4.8 2 9.4 5.4 12.7 3.3 3.2 7.7 5 12.3 5h.6l252-8.5c9.5-.3 17.1-8.2 17.1-17.7v-74.8h36.2c11.6 0 20.9-9.4 20.9-20.9v-314c.1-11.7-9.3-21.1-20.9-21.1zm-71.6 413.6-216.5 7.3V138.9h65.2v217.5c0 11.6 9.4 20.9 20.9 20.9h130.4v57.8zm50.7-99.6H220.2V63.4h160.2v272.1z"/>
</svg>
