<svg xmlns="http://www.w3.org/2000/svg" viewBox="0 0 460 103.1" style="enable-background:new 0 0 460 103.1" xml:space="preserve">
    <path fill="currentColor" d="M206.6 56.5s-1.7-5-3.6-4.2c-.3.1-.5.2-.8.2-1-.2-2 0-2.8.3-.8.1-1.6.5-2.3 1.2 0 0-12.9 34.8-21.9 35.8-9 1-11.9-2-15.9-10 0 0 10.8-3 17.9-10 0 0 4.9-5 2.5-14-2.4-8.9-5.7-12.7-8.6-12.3 0 0-13.8-.6-20.8 15.3 0 0-1.2 4-1.7 9.4l-2.9-11.9-4.2-6.6s-2.2-2.9-5.2-1.9c0 0-13 3.8-19 24.3 0 0-.8-9.6-1.5-20.6 5.3-6 4.5-14.1 4.5-14.1s-2 1.7-5.1 4c-.5-10.8-.8-20.7.1-22.4 2-4 5-9.5 5-9.5s-3-7.5-8-5.5c0 0-4 7-6 14.9l1.1 27.8c-5.5 3.4-11.8 6.6-17 7 0 0 2-22.9 4-29.9 0 0 2-7-4-9 0 0-3.1 1-4.5 3.5-1 1.7-2.7 17.4-3.8 27.9-.9-.7-2.3-1.3-4.6-1.5 0 0-9.1.7-15.5 4.9 0 0-8.4 5.1-9.4 8.1s5 9 9 11.9l13.9 9s-.2 9.1-7.6 10L65 84.1c2.8-1.6 4.5-2.6 4.5-2.6s1-6-4-7c0 0-1.7 1.1-4.8 2.9l-1.2-1.9s-3 0-3 2c0 .3.1 1 .4 2-6.5 3.5-16.3 8.1-28.3 11.9 0 0-13.9 5-15.9-7 0 0-1-11 0-11.9 0 0 21.9-9 24.9-11s7-8 7-8-2.9-5.2-5.4-4.1L34.8 54s-17.9 8-21.9 8c0 0 5-19.9 7.5-28.4l52.8-19.9s-2-3-6-4L12.9 25.1s-5 4-9 5c0 0-6 7 5 10L4 66.9H2.4s-2.4 1-2.4 3 1 4 1 4l3 1S3 89.8 7 94.8s10 10 23.9 6c8.2-2.4 20.3-8.5 28.8-13.2 2.2 5.7 5.3 11.7 8.5 11.9 0 0 8.3 1.8 15.4-8.9l.3-.6c2.1 5 5.4 8.5 10.8 7.8 0 0 7.9-.9 14.7-5.9l.2 4.8s-1.4 1.7 1.8 2.9 7.3 3.1 9.2-4.8c0 0 6.9-31.8 14.9-34.8 0 0 5 25.9 7 27.9 0 0 6 11 11.9 4l-.4-1.6c1.4 1.7 3.2 3.3 5.4 4.5 0 0 13 11 25.9 0 2.2-1.9 4.3-4.1 6.2-6.5.6 3.8 1.7 5.6 1.7 5.6 11.9 8 11-6 11-6-1-13.9 4-19.9 4-19.9 8-11 21-11.4 21-11.4 5.1.5 9.4-.6 9.4-.6l-2.5-6.1c-14.9-9.1-29.5 6.6-29.5 6.6zM63.7 59.9s4-3 9.5-4c4.2-.7 6.9-1.5 8.4-2.7-.2 1.7-.3 2.7-.3 2.7s-2.7 1-3.7 2 0 6 3 7c0 0-.2 3.1 0 7.3-1.2-.6-13.1-6.6-16.9-12.3zm33.7 28.7s-4.8 1.2-6.8-5.8c0 0-3-11-2-17.9 0 0 11-3.2 19.4-7.6l.9 24.4c-2 1.9-5.5 4.3-11.5 6.9zm59.9-18.7s-2-9.4 12.9-17.6c0 0 2 3.3 0 7.5 0-.1 1 5.1-12.9 10.1zM411.1 63.9s-3.9-2-5.9 0c0 0-9.9-.2-16.9 5.4-.5.4-1.1.9-1.6 1.5-.4-1.2-.9-2.1-1.4-2.6-3-3.2-6-5.2-13.9-5.2l-5-3s-11.8.4-12.9 4.7l-6 5.3s-6 9-3 17.9c.3.8.6 1.5 1 2.2-5-3.7-11.7-9.5-17.7-17.7 0 0-4.8-7.3-5-15.8l27.7-26.4s1-2 2-6c0 0-3-5-5-5 0 0-3 2-5 5 0 0-31.9 35.8-46.8 43.8 0 0-1-47.8 6-62.7L300.6 4l-5-4s-2.9 1.2-3.9 1.2c0 0-7 44.8-4 62.7 0 0 .5 16.3-.7 18.6 0 0-1.2 4.3-1.2 6.3l2 4s4 2.2 6 1.1c0 0 2 1.9 2-12.1l17.9-16.9s8 16.9 16.9 22.9c0 0 17.6 17.7 22.2 12.8 0 0 2.3 0 2.7-1.3 4.7 2.7 9.7 4.2 12.4 3.6 5.3-1.2 12.1-.3 17-7.7 1 .8 2.1 1.6 3.4 2.2 13.9 7.2 21.9.3 21.9.3s7.8-4.7 9.4-15.3-8.5-18.5-8.5-18.5zm-48.7 28.9c-12.9-4-8-14.9-8-14.9 6-9 11.8-6.2 11.8-6.2.9 1.7 9.1 2.2 9.1 2.2h1l1.1-2.2c3.2 1.3 4.5 3.4 4.8 5.7-1.3 2.7-2 5.7-1.9 8.6-.4.6-5.4 10.6-17.9 6.8zm48.8-8c-3 6-7 7-14.9 6-8-1-5-9-4-11.9 1-3 9-6 10-5s3 1 3 1 1-3 3-3c1.9 0 5.9 7 2.9 12.9zM460 91.1s0-2.3-2-2.3l-6 2s-8.1.7-11 .3c-2.9-.3-9.7-9.6-10.3-19.9-.6-10.3.4-38.2.4-38.2l-3-4s-3-2-6 1c0 0-4 1.7 0 8.8 0 0-2 33 1 40s8.1 24 21.5 21.9c13.4-2 12.4-5 12.4-5v-2.9l3-1.7z"/>
</svg>