<svg xmlns="http://www.w3.org/2000/svg" viewBox="0 0 500 500">
  <title>Grid</title>
  <path fill="currentColor" d="M196.5 36.1H52.7c-6.1 0-11.1 5-11.1 11.1V191c0 6.1 5 11.1 11.1 11.1h143.9c6.1 0 11.1-5 11.1-11.1V47.1c-.1-6.1-5.1-11-11.2-11zm-11 143.8H63.7V58.2h121.7v121.7zM447.3 25H303.5c-12.2 0-22.1 9.9-22.1 22.1V191c0 12.2 9.9 22.1 22.1 22.1h143.9c12.2 0 22.1-9.9 22.1-22.1V47.1c0-12.2-9.9-22.1-22.2-22.1zm-22.1 143.9h-99.6V69.3h99.6v99.6zM196.5 253.7H52.7c-12.2 0-22.1 9.9-22.1 22.1v143.9c0 12.2 9.9 22.1 22.1 22.1h143.9c12.2 0 22.1-9.9 22.1-22.1V275.8c-.1-12.2-10-22.1-22.2-22.1zm-22.1 143.8H74.8V298h99.6v99.5zM447.3 286.9H303.5c-12.2 0-22.1 9.9-22.1 22.1v143.9c0 12.2 9.9 22.1 22.1 22.1h143.9c12.2 0 22.1-9.9 22.1-22.1V309c0-12.2-9.9-22.1-22.2-22.1zm-22.1 143.8h-99.6v-99.6h99.6v99.6z"/>
</svg>
