<svg xmlns="http://www.w3.org/2000/svg" viewBox="0 0 500 500" style="enable-background:new 0 0 500 500" xml:space="preserve">
 <path fill="currentColor" d="m228.1 194 .1-.2c-.2.2-.2.3-.1.2z"/>
 <path fill="currentColor" d="M472.5 172.8c-1.7-8.7-4.6-17-8.5-24.6-3.9-7.6-8.7-14.5-14.1-20.7-5.4-6.2-11.2-11.8-17.5-16.7-6.3-4.9-12.9-9.2-19.7-13-6.9-3.7-14-6.8-21.3-9.5-7.3-2.6-14.7-4.6-22.3-6.1-7.6-1.4-15.3-2.2-23-2.5-7.7-.2-15.5.3-23.2 1.4l-5.8 1-5.7 1.4c-1.9.5-3.7 1.1-5.6 1.7l-2.8.9-3 1.2c-8 3.2-14.8 7.8-20.8 12.9-6 5.1-11 10.8-15.5 16.7-9 11.8-15.9 24.5-21.7 37.5-2.9 6.4-5.4 13.1-7.8 19.7-.7 1.9-1.3 3.7-1.9 5.6 0-1.4-.1-2.8-.2-4.2-.1-1.7-.2-3.3-.3-5l-.8-4.9c-.6-3.3-1.1-6.6-2.2-9.8-3.8-12.9-10.4-25.5-19.8-35.8-9.3-10.4-20.9-18.8-33.6-24.7-12.7-6-26.5-9.5-40.6-10.7-14.1-1.2-28.6.1-42.6 4.3S64.7 100.4 53.6 111c-11 10.6-19.4 24.3-23.6 38.9-4.4 14.6-4.7 29.6-2.8 43.6.6 7.1 2.7 13.7 4.2 20.5 1 3.2 2.1 6.3 3.1 9.5 1.1 3.2 2.1 6.3 3.4 9.4l3.7 9.2 4.2 9c1.4 3 2.9 5.9 4.5 8.8 1.6 2.9 3.1 5.9 4.8 8.7 13.2 22.7 29.5 43.2 47.5 61.6 17.9 18.5 37.4 35.1 58.1 50.1 10.4 7.5 21 14.6 32 21.2 5.5 3.3 11.1 6.5 16.7 9.6 5.7 3.1 11.3 5.9 17.6 8.7l1.6.7 2.4-.3c7.5-.9 14.3-2.1 21.4-3.5 7-1.4 14-3.1 20.9-4.9 13.8-3.7 27.4-8.3 40.8-13.7 26.7-11 52.2-25.9 74.5-45.2 11.2-9.6 21.6-20.2 31.2-31.6 9.4-11.6 17.9-24 25.2-37 1.7-3.3 3.4-6.7 5.1-10l2.5-5 2.2-5.1 4.4-10.3 3.7-10.6 1.8-5.3 1.5-5.4 3-10.8c.8-3.6 1.5-7.3 2.2-10.9l1.1-5.5c.2-.9.4-1.7.5-2.8l.4-3.3c1.1-8.8.9-17.8-.9-26.5zm-37.6 21.9-.2 1.9c0 .7-.3 1.5-.4 2.3l-1 4.7-1.9 9.4-2.4 9.3-1.2 4.6-1.5 4.5c-.3.9-.6 1.7-.9 2.6H67.1l2.3 7.4-2.7-8.6-2.3-8.7-1.1-4.3-.9-4.4c-.6-2.9-1.3-5.8-1.8-8.7-.7-5.6-1.9-11.1-2-16.6-1.9-22 3.6-42.3 17.5-56.3 6.9-7.1 15.8-12.6 25.7-16.2 10-3.6 20.9-5.4 31.9-5.5 22.1-.1 44.7 6.9 62.2 21.3 8.6 7.2 16.2 16.1 21.4 26.7 1.5 2.6 2.6 5.3 3.7 8.1l1.7 4.2 1.2 4.4c.4 1.5.9 2.9 1.3 4.4.2.8.4 1.4.6 2.3l.6 3c.4 2 1 3.9 1.6 5.6.1.4.2.8.4 1.1l-.2.5v.1c.1-.1.1-.2.3-.3.4 1.1.7 2.1 1 3.1.3.1 1.1 0 1.8-.5.5-.6.5-1 .5-.9l.1-.3.3-.6.6-1.1 1.2-2.3 2.5-4.5 5.2-8.9c3.5-5.9 7.3-11.6 11.1-17.2s7.9-11 12.1-16.2 8.5-10.1 13.2-14.6c9.3-8.9 19.7-16.3 30-18.9.6-.2 1.2-.4 1.9-.5l2.2-.4c1.5-.2 3-.6 4.5-.7l4.5-.5 4.5-.2c6-.3 12.1-.1 18.2.7 24.2 3.2 47.9 14 65.9 29.8 8.7 7.8 16.1 16.8 20.4 26.5 2.2 4.8 3.8 9.7 4.6 14.6l.5 3.7.1 3.7c-.1 2.5-.1 4.9-.5 7.4zm-11.5 45.8c.4-1.3.8-2.7 1.2-4-.4 1.3-.8 2.7-1.2 4z"/>
</svg>
