<svg xmlns="http://www.w3.org/2000/svg" viewBox="0 0 500 500" style="enable-background:new 0 0 500 500" xml:space="preserve">
  <path fill="currentColor" d="M229.4 196.6c-.3-1.4-.9-2.8-1.4-4.5-.6-1.7-1.2-3.6-1.6-5.6l-.6-3c-.2-.9-.4-1.5-.6-2.3-.4-1.5-.9-2.9-1.3-4.4l-1.2-4.4-1.7-4.2c-1.1-2.8-2.2-5.5-3.7-8.1-5.2-10.6-12.8-19.5-21.4-26.7-17.5-14.4-40.1-21.4-62.2-21.3-11 .1-21.9 1.9-31.9 5.5-9.9 3.6-18.8 9.1-25.7 16.2-13.9 14-19.4 34.3-17.5 56.3.1 5.5 1.3 11 2 16.6.5 2.9 1.2 5.8 1.8 8.7l.9 4.4 1.1 4.3 2.3 8.7 2.7 8.6c.8 2.9 1.9 5.7 2.9 8.5 1.1 2.8 2 5.7 3.2 8.5 4.5 11.2 9.8 22.1 16 32.7 6.2 10.5 13.2 20.6 21 30.2 15.5 19.2 34.3 35.7 54.7 49.8 10.2 7 20.8 13.4 31.9 19 5.5 2.8 11.1 5.4 16.7 7.8 5.6 2.4 11.5 4.7 16.9 6.5l-4-.4c6.1-1.4 12.8-3.4 19.1-5.5 6.4-2.1 12.7-4.4 18.9-7 12.4-5.1 24.5-10.8 36.2-17.3 11.6-6.5 22.9-13.5 33.5-21.2 10.6-7.7 20.8-15.8 30.2-24.8 9.3-9 17.9-18.6 25.6-28.8 7.5-10.4 14.2-21.2 20.1-32.5 1.4-2.9 2.7-5.8 4-8.7l2-4.3 1.7-4.5 3.4-8.9c.9-3.1 1.9-6.1 2.9-9.1l1.5-4.5 1.2-4.6 2.4-9.3 1.9-9.4 1-4.7c.1-.8.4-1.6.4-2.3l.2-1.9c.4-2.5.4-4.9.4-7.4l-.1-3.7-.5-3.7c-.8-4.9-2.4-9.8-4.6-14.6-4.3-9.7-11.7-18.7-20.4-26.5-18-15.8-41.7-26.6-65.9-29.8-6.1-.8-12.2-1-18.2-.7l-4.5.2-4.5.5c-1.5.1-3 .5-4.5.7l-2.2.4c-.7.1-1.3.3-1.9.5-10.3 2.6-20.7 10-30 18.9-4.7 4.5-9 9.4-13.2 14.6-4.2 5.2-8.3 10.6-12.1 16.2-3.8 5.6-7.6 11.3-11.1 17.2l-5.2 8.9-2.5 4.5-1.2 2.3-.6 1.1-.3.6-.1.3c0-.1 0 .3-.5.9-.7.5-1.5.6-1.8.5zm.6-3.5c-.3-.1-1.1-.1-1.5.3-.5.5-.5.8-.4.6l.1-.3.2-.6.3-1.3.7-2.6 1.5-5.1c1-3.4 2.1-6.7 3.3-10 2.4-6.6 4.9-13.3 7.8-19.7 5.8-13 12.7-25.7 21.7-37.5 4.5-5.9 9.5-11.6 15.5-16.7S292 90.5 300 87.3l3-1.2 2.8-.9c1.9-.6 3.7-1.2 5.6-1.7l5.7-1.4 5.8-1c7.7-1.1 15.5-1.6 23.2-1.4 7.7.3 15.4 1.1 23 2.5 7.6 1.5 15 3.5 22.3 6.1 7.3 2.7 14.4 5.8 21.3 9.5 6.8 3.8 13.4 8.1 19.7 13 6.3 4.9 12.1 10.5 17.5 16.7 5.4 6.2 10.2 13.1 14.1 20.7 3.9 7.6 6.8 15.9 8.5 24.6 1.8 8.7 2 17.7.9 26.5l-.4 3.3c-.1 1.1-.3 1.9-.5 2.8l-1.1 5.5c-.7 3.6-1.4 7.3-2.2 10.9l-3 10.8-1.5 5.4-1.8 5.3-3.7 10.6-4.4 10.3-2.2 5.1-2.5 5c-1.7 3.3-3.4 6.7-5.1 10-7.3 13-15.8 25.4-25.2 37-9.6 11.4-20 22-31.2 31.6-22.3 19.3-47.8 34.2-74.5 45.2-13.4 5.4-27 10-40.8 13.7-6.9 1.8-13.9 3.5-20.9 4.9-7.1 1.4-13.9 2.6-21.4 3.5l-2.4.3-1.6-.7c-6.3-2.8-11.9-5.6-17.6-8.7-5.6-3.1-11.2-6.3-16.7-9.6-11-6.6-21.6-13.7-32-21.2-20.7-15-40.2-31.6-58.1-50.1-18-18.4-34.3-38.9-47.5-61.6-1.7-2.8-3.2-5.8-4.8-8.7-1.6-2.9-3.1-5.8-4.5-8.8l-4.2-9-3.7-9.2c-1.3-3.1-2.3-6.2-3.4-9.4-1-3.2-2.1-6.3-3.1-9.5-1.5-6.8-3.6-13.4-4.2-20.5-1.9-14-1.6-29 2.8-43.6 4.2-14.6 12.6-28.3 23.6-38.9 11.1-10.6 24.6-17.9 38.6-22.1 14-4.2 28.5-5.5 42.6-4.3 14.1 1.2 27.9 4.7 40.6 10.7 12.7 5.9 24.3 14.3 33.6 24.7 9.4 10.3 16 22.9 19.8 35.8 1.1 3.2 1.6 6.5 2.2 9.8l.8 4.9c.1 1.7.2 3.3.3 5 .1 1.6.2 3.3.2 4.9 0 .8.1 1.7.1 2.4-.1.6-.2 1.2-.3 1.7-.3 1.2-.7 2.4-1.1 3.8-.5 1.3-.8 3-1 4.8z"/>
</svg>
