<svg xmlns="http://www.w3.org/2000/svg" viewBox="0 0 500 500">
  <path fill="currentColor" d="M129.52 257.85c5.8 9.65 11.69 19.46 17.07 28.88 5.36 9.4 10.21 18.41 13.92 26.46 9.31 20.22 7.52 26.14 7.18 26.94-4.95 2.56-6.99 1.6-7.87 1.19-5.66-2.66-15.75-18.37-19.45-43.66-.29-2.02-1.1-3.85-2.26-5.41-2.75-3.71-7.56-5.89-12.65-5.23-7.24.93-12.32 7.18-11.34 13.99.07.49 1.77 12.11 6.19 25.08 6.58 19.34 15.88 31.95 27.63 37.48 7.05 3.32 18.43 5.72 32.6-1.67 6.32-3.3 10.72-8.57 12.72-15.25 5-16.66-5.29-40.14-24.82-74.17-4.77-8.31-10.08-17.23-15.86-26.86-18.78-31.25-42.14-70.13-40.66-86.89 1.55-17.45 53.87-67.44 120.47-79.65 6.11-1.12 11.96-1.82 17.6-2.18 5.64.36 11.49 1.06 17.6 2.18 66.6 12.21 118.92 62.2 120.47 79.65 1.49 16.76-21.88 55.64-40.66 86.89-5.78 9.62-11.09 18.55-15.86 26.86-19.53 34.03-29.82 57.51-24.82 74.17 2 6.68 6.4 11.95 12.72 15.25 14.17 7.4 25.55 4.99 32.6 1.67 11.75-5.54 21.05-18.15 27.63-37.48 4.41-12.97 6.11-24.59 6.19-25.08.98-6.8-4.1-13.06-11.34-13.99-5.09-.65-9.9 1.52-12.65 5.23a11.983 11.983 0 00-2.26 5.41c-3.69 25.29-13.79 41.01-19.45 43.66-.88.41-2.92 1.37-7.87-1.19-.34-.8-2.12-6.72 7.18-26.94 3.71-8.06 8.55-17.06 13.92-26.46 5.37-9.42 11.27-19.23 17.07-28.88 23.73-39.49 46.15-76.8 43.99-101.18-3.02-34.06-70.39-88.91-141.79-102.01-7.19-1.32-14.23-2.15-21.14-2.57v-.19c-.51.02-1.02.07-1.53.09-.51-.03-1.02-.07-1.53-.09v.19c-6.91.42-13.95 1.25-21.14 2.57-71.4 13.09-138.76 67.95-141.78 102.01-2.17 24.38 20.25 61.69 43.98 101.18zM324.85 373.51c-9.09-4.74-33.25-5.25-129.8 6.16-6.27.74-12.2 1.44-13.55 1.54-6.39.18-11.52 5.42-11.52 11.86 0 6.55 5.31 11.86 11.86 11.86 1.5 0 3.79-.26 15.99-1.7 85.31-10.08 110.52-10.18 116.52-8.45 5.73 2.68 12.6.39 15.54-5.27 3.02-5.8.77-12.97-5.04-16z"/>
  <path fill="currentColor" d="M240.02 183.78c-5.35-3.79-12.75-2.53-16.54 2.82-5.93 8.36-9.71 32.22-11.52 129.44-.12 6.31-.23 12.28-.31 13.64-.69 6.36 3.81 12.15 10.19 13.02.55.07 1.09.11 1.62.11 5.84 0 10.93-4.31 11.74-10.26.2-1.48.26-3.79.49-16.08 1.6-85.89 4.91-110.87 7.44-116.59 3.44-5.3 2.1-12.41-3.11-16.1zM206.09 448.1c-5.73 0-10.78-4.17-11.7-10.01-1.03-6.47 3.39-12.55 9.86-13.58L284 411.87c6.47-1.03 12.55 3.39 13.58 9.86 1.03 6.47-3.39 12.55-9.86 13.58l-79.75 12.64c-.64.1-1.26.15-1.88.15zM269.5 324.62c-6.44 0-11.72-5.15-11.86-11.61l-1.71-80.72c-.14-6.55 5.06-11.97 11.61-12.11h.26c6.44 0 11.72 5.15 11.86 11.61l1.71 80.72c.14 6.55-5.06 11.98-11.61 12.11h-.26z"/>
</svg>
