<svg xmlns="http://www.w3.org/2000/svg" id="Layer_1" x="0" y="0" version="1.1" viewBox="0 0 500 500" xml:space="preserve">
  <title>List</title>
  <path fill="currentColor" d="M120.2 184s306.4-41.4 336.8-19.3" class="st0"/>
  <path fill="currentColor" d="M120.2 202c-8.8 0-16.5-6.5-17.8-15.5-1.3-9.8 5.6-18.9 15.4-20.2.8-.1 77.9-10.5 157.7-18 147.3-13.9 179.3-7.3 192 2 8 5.8 9.8 17.1 4 25.1-5.7 7.9-16.6 9.7-24.6 4.3-22.5-10.3-185.5 3.5-324.3 22.3-.8-.1-1.6 0-2.4 0zm327-22.3zm-.7-.5z"/>
  <path fill="currentColor" d="M153.4 261.3l240.2-11" class="st0"/>
  <path fill="currentColor" d="M153.4 279.3c-9.5 0-17.5-7.5-17.9-17.1-.5-9.9 7.2-18.3 17.1-18.8l240.2-11c9.9-.5 18.3 7.2 18.8 17.1.5 9.9-7.2 18.3-17.1 18.7l-240.2 11c-.4.1-.7.1-.9.1z"/>
  <path fill="currentColor" d="M120.2 341.4h336.9" class="st0"/>
  <path fill="currentColor" d="M457.1 359.3H120.2c-9.9 0-17.9-8-17.9-17.9 0-9.9 8-17.9 17.9-17.9H457c9.9 0 17.9 8 17.9 17.9.1 9.9-7.9 17.9-17.8 17.9z"/>
  <path fill="currentColor" d="M34.7 153.7h44.2v44.2H34.7zM25 312.4h44.2v44.2H25zM30.5 229.6h49.7v49.7H30.5z"/>
</svg>
