<svg xmlns="http://www.w3.org/2000/svg" viewBox="0 0 500 500">
    <title>Menu</title>
    <path fill="currentColor" d="M466.08 129.74c-10.32-7.51-29.55-21.48-231.86-2.38-96.4 9.1-189.52 21.64-190.45 21.77-11.86 1.6-20.17 12.51-18.57 24.37 1.47 10.87 10.77 18.77 21.44 18.77.97 0 1.94-.07 2.93-.2 167.58-22.65 364.49-39.3 391.61-26.87 9.63 6.53 22.77 4.29 29.67-5.2 7.04-9.67 4.9-23.22-4.77-30.26zM375.67 228.95l-290 13.33c-11.95.55-21.2 10.69-20.65 22.64.53 11.61 10.12 20.67 21.63 20.67.34 0 .67-.01 1.01-.02l290-13.34c11.95-.55 21.2-10.68 20.65-22.64-.55-11.95-10.7-21.24-22.64-20.64zM453.33 338.93H46.67c-11.97 0-21.67 9.7-21.67 21.67 0 11.97 9.7 21.67 21.67 21.67h406.66c11.97 0 21.67-9.7 21.67-21.67 0-11.97-9.7-21.67-21.67-21.67z"/>
</svg>
