<svg xmlns="http://www.w3.org/2000/svg" viewBox="0 0 500 500">
  <title>☾ | Moon</title>
  <path fill="currentColor" d="M302.4 475c-31.8 0-85.5-11-132-42.1-41.9-28-91.8-82.2-91.8-181.6 0-76.2 39.1-139.7 113-183.4C246 35.8 299.7 25.7 302 25.3c8.5-1.5 16.7 3.6 19 11.9 2.3 8.2-2 16.9-10 20-.5.2-31.5 12.6-61.8 42.7-40.2 39.9-60.5 90.9-60.5 151.5 0 58.5 35.7 104.7 106 137.4 55.1 25.6 111.5 32.7 112 32.8 7.5.9 13.5 6.8 14.5 14.4 1 7.5-3.3 14.8-10.3 17.6-2.2.6-54.8 21.4-108.5 21.4zM206.6 97.7c-62.8 37.8-94.7 89.5-94.7 153.6 0 68 25.9 119.8 77 154 43.1 28.8 91.6 36.5 113.5 36.5 10.9 0 21.8-1 32.2-2.6-16.6-5-34.8-11.6-53.2-20.1-82.4-38-126-96.1-126-167.9 0-69.8 24.7-119.9 51.2-153.5zM305 41.6zm0 0z"/>
</svg>
