<svg xmlns="http://www.w3.org/2000/svg" viewBox="0 0 500 500">
  <path fill="currentColor" d="M77.32 482c-5.63 0-11.05-2.19-15.11-6.12a21.726 21.726 0 01-6.59-15.58V39.7c0-11.98 9.72-21.7 21.7-21.7h345.36c11.98 0 21.7 9.72 21.7 21.7v410.02c0 11.73-9.31 21.33-21.03 21.69L77.99 481.99c-.23.01-.45.01-.67.01zm21.7-420.6v376.53l301.96-9.25V61.4H99.02z"/>
  <path fill="currentColor" d="M145.58 192.11c-9.46 0-18.15-6.23-20.86-15.78-3.27-11.53 3.42-23.53 14.95-26.8 1.83-.52 45.42-12.84 91.97-22.07 88.63-17.57 114.38-9.62 125.73 7.73 6.57 10.03 3.76 23.48-6.27 30.04-8.92 5.84-20.55 4.26-27.63-3.22-16.14-5-87.37 5.26-171.96 29.27-1.97.56-3.97.83-5.93.83zM145.58 302.09c-9.46 0-18.15-6.23-20.86-15.78-3.27-11.53 3.42-23.53 14.95-26.8 1.83-.52 45.42-12.84 91.97-22.07 88.64-17.57 114.38-9.62 125.73 7.73 6.57 10.03 3.76 23.48-6.27 30.04-8.92 5.85-20.55 4.27-27.63-3.21-16.14-5-87.37 5.27-171.96 29.27-1.97.55-3.97.82-5.93.82zM339.22 382.07H145.59c-11.98 0-21.7-9.72-21.7-21.7s9.72-21.7 21.7-21.7h193.63c11.98 0 21.7 9.72 21.7 21.7s-9.72 21.7-21.7 21.7z"/>
</svg>
