<svg xmlns="http://www.w3.org/2000/svg" viewBox="0 0 500 500">
  <title>+</title>
  <path fill="currentColor" d="M449.25 215.08c-14.59-10.49-38.93-19-162.81-9.7V74.09c0-19.91-16.31-36.05-36.44-36.05s-36.44 16.14-36.44 36.05v137.72c-76.69 7.62-145.51 16.78-146.26 16.88-19.94 2.67-33.92 20.82-31.23 40.55 2.47 18.09 18.11 31.22 36.06 31.22 1.62 0 3.27-.11 4.92-.33 47.34-6.33 93.85-11.73 136.5-15.99v141.75c0 19.91 16.31 36.05 36.44 36.05s36.44-16.14 36.44-36.05v-148.2c62.79-4.76 108.98-5.8 123.49-2.05 15.9 8.88 36.35 4.75 47.35-10.21 11.85-16.1 8.25-38.64-8.02-50.35z"/>
</svg>
