<svg xmlns="http://www.w3.org/2000/svg" viewBox="0 0 500 500" style="enable-background:new 0 0 500 500" xml:space="preserve">
  <path fill="currentColor" d="M419.2 244.5c6.7-13.8 17.9-42 11-64-3.2-10.3-10.1-18.2-19.8-22.9-23-11.1-59.8-1.4-95.5 7.9-19.4 5.1-39.3 10.3-53.8 11.1v-26c0-5.9-4.8-10.7-10.7-10.7s-10.7 4.8-10.7 10.7v26.1c-14.6-.1-36.1-5.7-57-11.2-35.6-9.3-72.5-18.9-95.5-7.9-9.8 4.7-16.6 12.6-19.8 22.9-6.8 22 4.4 50.2 11 64l-66.9.7c0 46.5 167 68.8 195.2-2l-104.6 1.1c-.2-.8-.6-1.6-1-2.4-5.5-9.6-18.5-38.3-13.3-55 1.4-4.6 4.2-7.8 8.7-9.9 15.9-7.6 50.4 1.3 80.8 9.3 22.9 6 44.9 11.7 62.4 11.8v117.2c-45.1 2.6-86.5 19.8-86.5 42.9l195.2 2c-12-30-48.8-43.3-87.3-45.1V198c17-.7 37.7-6.1 59.2-11.7 30.4-7.9 64.9-16.9 80.8-9.3 4.5 2.1 7.2 5.3 8.7 9.9 5.2 16.7-7.8 45.4-13.3 55-.4.8-.8 1.6-1 2.4l-102.2-1.1c28.3 70.8 195.2 48.5 195.2 2l-69.3-.7z"/>
</svg>
