<svg xmlns="http://www.w3.org/2000/svg" viewBox="0 0 500 500">
  <title>Share</title>
  <path fill="currentColor" d="M358.53 325.4c-17.24 0-33.13 5.86-45.81 15.68l-7.49-4.63-141.73-87.59 137.1-84.73c1.51.94 3.05 1.82 4.63 2.65a74.53 74.53 0 0034.84 8.62c41.36 0 75-33.65 75-75s-33.64-75-75-75-75 33.65-75 75c0 2.3.12 4.57.32 6.82L82.25 220.4a33.46 33.46 0 00-15.87 28.47c0 11.6 6 22.37 15.87 28.47l201.31 124.41c.72 40.74 34.06 73.67 74.97 73.67 41.36 0 75-33.64 75-75s-33.64-75.02-75-75.02zm0 99.23c-13.36 0-24.23-10.87-24.23-24.23s10.87-24.23 24.23-24.23 24.23 10.87 24.23 24.23-10.87 24.23-24.23 24.23zM340.07 76.17c13.36 0 24.23 10.87 24.23 24.23s-10.87 24.23-24.23 24.23c-.51 0-1.01-.05-1.52-.08-12.65-.79-22.71-11.31-22.71-24.15 0-3.35.69-6.54 1.92-9.45 3.69-8.68 12.3-14.78 22.31-14.78z"/>
</svg>
