<svg xmlns="http://www.w3.org/2000/svg" id="emakina-logo" viewBox="0 0 265.3 193.2">
    <title>Emakina logo</title>
    <path
        d="M144.1 45.6h7.6v38.1h-7.6zM128.9 45.6h7.6v38.1h-7.6zM113.7 45.6h7.6v38.1h-7.6zM113.6 0h38.1v7.6h-38.1zM113.6 15.2h38.1v7.6h-38.1zM113.7 30.5h38.1v7.6h-38.1zM37.9 120.9h5.7L58 138.3l14.3-17.4H78v29.3h-6.6V130l-13.1 16.7h-1.4l-13.3-16.2v19.7h-5.7zM81.7 150.2h7.2l3.7-6.4H112l3.7 6.4h8L106 120.9h-6.9l-17.4 29.3zm13.9-11.8 6.6-12.2 6.9 12.2H95.6zM127.3 120.9h7.3v11.8l17.1-11.8H162l-20.2 13.6 22.5 15.7H153L134.6 137v13.2h-7.3zM168.3 120.9h7.1v29.3h-7.1zM183.7 120.9h5l24.9 19.5v-19.5h6.4v29.3h-4.9l-24.9-19.8v19.8h-6.5zM223.4 150.2h7.1l3.7-6.4h19.4l3.7 6.4h8l-17.7-29.3h-6.9l-17.3 29.3zm13.9-11.8 6.6-12.2 6.9 12.2h-13.5zM0 120.9v29.3h32.4v-5.5H7.2v-7.2h21v-5h-21v-6.4h25.2v-5.2z"
        class="st0" />
</svg>