<svg xmlns="http://www.w3.org/2000/svg" xml:space="preserve" id="Layer_1" x="0" y="0" version="1.1"
	viewBox="0 0 148.62 134.49">
	<title>Kebabreporters logo</title>
	<path
		d="M0 74.15h8.23V16.98H0v-13h30.81v13.01h-8.23v57.17h8.23v13H0V74.15zM3.22 105.74c0-.7-.4-1.1-1.09-1.1H.02v-5.53h6.3c2.37 0 3.35 1.05 3.35 3.39v11.01h2.46c1.28 0 2.22-.1 2.81-1.15L22 99.11h7.09l-7.88 14.55c-1.08 1.99-2.22 2.59-2.22 2.59v.1s1.18.3 2.26 2.44l4.44 9.02c.49 1.05 1.33 1.15 2.47 1.15h.93v5.53h-3.7c-2.61 0-3.74-.35-4.88-2.64l-5.71-11.61c-.59-1.15-1.67-1.2-3.05-1.2H9.68v15.45H3.22v-28.75zM34.37 104.64h-3.2v-5.53H52.3c2.31 0 3.35 1.05 3.35 3.39v5.38h-5.87v-2.14c0-.7-.39-1.1-1.08-1.1h-7.88v9.27h11.33v5.53H40.82v8.42c0 .7.39 1.09 1.08 1.09h8.08c.69 0 1.09-.4 1.09-1.09v-2.14h5.86v5.38c0 2.39-1.04 3.39-3.35 3.39H37.71c-2.36 0-3.35-1-3.35-3.39v-26.46zM63.29 104.64h-3.2v-5.53h15.12c6.31 0 10.84 3.29 10.84 9.12 0 3.94-2.12 6.48-4.24 7.57v.1c3.79 1.15 5.62 4.73 5.62 8.32 0 7.08-5.57 10.26-12.07 10.26h-8.72c-2.32 0-3.35-1-3.35-3.39v-26.45zm11.98 8.92c2.71 0 4.24-1.99 4.24-4.53s-1.48-4.39-4.34-4.39h-5.42v8.92h5.52zm-4.44 15.4h5.03c3.15 0 4.93-2.14 4.93-5.13 0-2.94-1.82-5.08-4.93-5.08h-6.11v9.12c-.01.69.39 1.09 1.08 1.09zM88.67 128.96h.79c.83 0 1.23-.2 1.53-1.09l10.4-28.76h6.75l10.34 28.76c.29.9.69 1.09 1.53 1.09h.79v5.53h-3.84c-2.46 0-3.35-.65-4.14-2.89l-2.17-6.18H98.82l-2.17 6.18c-.79 2.24-1.63 2.89-4.09 2.89h-3.89v-5.53zm20.5-8.92-3.01-8.87c-.64-1.94-1.38-5.28-1.38-5.28h-.1s-.74 3.34-1.38 5.28l-3 8.87h8.87zM124.47 104.64h-3.2v-5.53h15.13c6.31 0 10.84 3.29 10.84 9.12 0 3.94-2.12 6.48-4.24 7.57v.1c3.79 1.15 5.62 4.73 5.62 8.32 0 7.08-5.56 10.26-12.07 10.26h-8.72c-2.31 0-3.35-1-3.35-3.39v-26.45zm11.98 8.92c2.71 0 4.24-1.99 4.24-4.53s-1.47-4.39-4.33-4.39h-5.42v8.92h5.51zm-4.43 15.4h5.02c3.16 0 4.93-2.14 4.93-5.13 0-2.94-1.82-5.08-4.93-5.08h-6.11v9.12c0 .69.39 1.09 1.09 1.09z"
		class="st0" />
	<path
		d="M132.12 65.83c-.16-.04-.32-.11-.47-.2.2-.15.48-.07.7-.06l1.11-1.29c.64-.76 1.27-1.55 1.89-2.34 1.23-1.59 2.41-3.23 3.54-4.93 2.19-3.32 4.17-6.89 5.79-10.7-.54.1-1.02.24-1.51.24-.44 0-1.28.19-1.61-.15-.32-.33-.8-.31-1.18-.34.17-.47-.98-.31-.8-.65.12-.23.91-.15 1.11-.18.55-.1 1.08-.24 1.63-.34-.15-.44-.64.37-.64-.37.1.01.83.07.64-.25.28 0 1.12-.19 1.32.09.03.03-.68.12-.68.4h1.29c-.12.43.6.55.77.74 1.49-3.66 2.65-7.56 3.22-11.62-.57.18-.6.19-.6.9-.1-.01-.83-.07-.65.25-.31-.04-1.06.31-1.29-.06.07.12 1.11-.84 1.29-.86-.28-.08-.59-.04-.87-.08-.33-.05-.55-.29-.84-.29h-.78c-.39 0-.17.16-.47.25-.35.11-.72-.01-1.08-.01.14-.17-1.14-.24-1.29-.25.14-.25-.56-.31-.65-.33-.47-.16-.93-.16-1.45-.16.19-.31-.54-.25-.64-.24 0-.63.01-.53.49-.58.33-.04.73-.13.96-.46-.65 0-1.6-.23-2.19.14-.39.24-1.02.51-1.45.61-.27.06-.55.04-.82.02-.13-.01-.26-.02-.38-.02.04-.09.02-.15-.06-.18-.34-.21-.89-.31-1.23-.31.16.62-.66.06-.7.18.1-.31 1.11-.44 1.25-.44 1.05-.01 2.5.38 3.49-.17-.71-.02-1.38-.43-2.1-.37.14-.17-.58-.22-.65-.25.28-.42-.47-.55-.65-.61.78-.6 1.72-.33 2.58-.37-.23-.55 1.24-.43.81-1.05.17.02.37.06.53-.03.17-.09.15-.34.31-.42.3-.15.69-.1 1-.09.23.01 1.4-.04 1.4.49-.09.04-.53.03-.53.22 0 .15 1.18.16 1.33.15 0 .77-.92.31-.67 1.03.13.38.59-.03.69.34.09.33-.02.94-.02 1.29 0 .61 1.06.59 1.45.77.38.18.8.06 1.19.08.47.02.93.06 1.4.06-.14.17 1.14.24 1.29.24-.2.24.31.24.39.24.39.01.32-.48.35-.82-.25-.02-.5 0-.75.03.19-.32-.54-.25-.65-.25v-.49c-.22.03-.43-.04-.64-.12-.27-.11-.63.01-.66-.34-.05-.61.99-.34 1.3-.34-.1.46.57.58.79.63.52.13.33.2.64.53.04-.37.27-1.23.03-1.55-.21-.27-1.02-.27-1.34-.35-.51-.12-.65.25-1.02.25-.28 0-.67.09-.94-.03-.22-.1-.1-.57-.1-.77.47.06.82-.33 1.33-.29.73.06 1.46.05 2.2.15.23-8.81-3.48-16.87-8.98-22.04.02.85-1.25-.43-.47-.43a29.42 29.42 0 0 0-4.53-3.35c-.75-.46-1.49-1.03-2.32-1.23-.88-.22-1.82-.4-2.72-.47.13-.24-.2-.27-.16-.49.21-.03.43-.04.65-.05-1.2-.46-2.49-.26-3.72-.26-.66 0-1.31-.02-1.97.03-.54.03-.93-.28-1.45-.35-.96-.14-1.98.06-2.94.05-.12 0-.3 0-.38.14-.13.24-.52.14-.79.15-.07.01-.73.03-.73-.17 0-.11.74-.14.73-.16-.13-.18-.96-.43-1.11-.4-.46.06-1 .77-1.49.45-.16-.11-.06-.28-.31-.31-.23-.02-.45.04-.67.03-.21-.01-1.15-.14-1.15.31.36-.06.62.26.97.24.25.03.97-.73 1 .08.01.22-.1.44-.03.66.33.02.67.08.96.27.41.26.68.79 1.13.97-.3.35-.93.02-1.29.06.17-.28-.46-.27-.55-.28-.27-.03-.2-.51-.61-.45-.07.01-.33.08-.31-.13.04-.46-.07-.44-.44-.44h-2.12c.17-.19-.66-.33-.65-.34.21-.27 1.01-.12 1.3-.15-.16-.17 1.22-.49.44-.58-.73-.09-1.58.45-2.24.8-2.4 1.25-4.66 2.77-6.81 4.62.11.11.61.03.56.21-.04.14-.27.19-.18.38h-1.04c-.37.33-.74.67-1.1 1.01-.69.64-1.36 1.29-2.03 1.96-.27.27-1.36 1.74-1.69 1.56-.4-.21-.77-.75-1.11-1.08-.39-.39-.77-.78-1.16-1.16-1.34-1.31-2.71-2.67-4.17-3.76-.25-.18-.46-.17-.72-.06-.11.02-.18.11-.21.24h-.81c.01.37-.87.3-.65.74-.1-.01-.83-.07-.64.25-.36 0-1.1-.18-1.36.24-.35.57.85.81.71.31.17.02 1.36-.2 1.45.1.05.14-1.14.14-.81.45-.76-.03-1.41.68-2.11.09-.22-.18-1-.67-1.25-.35-.22.29.54.2.61.2 0 .89-.75.66-1.3.95-.19.1-1.19.28-1.28-.09.16-.1.84-.23.65-.61.17.02.71.14.66-.27-.04-.34.69-.3.65-.35-.13-.2-.69-.12-.88-.14-.43-.04-.77-.39-1.19-.12-.51.33-.57-.36-1.02-.41-.53-.06-1.08.02-1.61.05.15.64-1.88-.33-1.29.98-.14.01-1.01.15-.63.45.32.26.76-.06 1.1.08.32.14.17.75.17 1.07-.25-.05-2.11.16-2.1-.25.1-.24 1.03-.06 1.24-.14.18-.07-.28-.3-.31-.31-.33-.09-.67-.02-1-.01-.57.02-.91-.52-1.48-.6-.89-.14-1.81-.39-2.71-.21-.52.11-.83.13-1.36 0-.46-.12-.76-.41-1.2-.6-.3-.12-.62-.09-.93-.21-.12-.05-.38-.53-.21-.52.29.01.52-.13.79-.23.37-.14.99.11 1.22-.19.16-.21.69-.31.9-.36.36-.07.61.3 1.01.24-.01.45.01.94.32 1.23.44-.03.88.02 1.33.05.15.01.3.01.45.01.05.16-.02.23.16.25h1.78c-.23-.24.42-.25.5-.26.34-.03.21-.02.21-.33 0-.51.17-.37.44-.49.11-.05.16-.17.21-.29.15-.32.64-.17.92-.17.53 0 1.11.29 1.11-.49.16.02.8.12.65-.31.21.03.51.15.71-.01.27-.23.11-.61.61-.48.2.05 1.43.71 1.43 0-.09.01-.63 0-.63-.22 0-.24.58.04.65.13.22.28.99.08 1.26.08-.11-.52 1.27-.25 1.55-.25h2.79c-.47-.35-.95-.67-1.43-.99-.51-.33-1.06-.28-1.62-.31.19-.32-.54-.25-.65-.24v-.49c-.16.02-.37.09-.53-.02-.19-.14-.15-.3-.41-.3-.33 0-.18-.48-.48-.61-1.17-.49-2.36-.98-3.59-1.1-1.12-.11-2.27-.16-3.4-.08-.3.02-1.41.13-.96.81-.45-.05-.9-.06-1.33.13-.49.22-.64-.11-1.11-.16-.19-.02-.97.17-1.01-.18-.03-.37.35-.8.55-.97-1.16.12-2.31.33-3.45.61.37.01.44.87.27 1.17-.25.43-1.37.2-1.74.18-1.3-.06-2.55-.04-3.8.54.23.16.55.09.77.26.14.12.38.61.1.7-.18.06-1.14-.36-1.22-.09.01-.04.53.04.53.32-.71 0-1.37-.6-2.06-.29-.59.26-1.09.74-1.63 1.1.17 0 1.12.15 1.11-.15 0-.19 1.5-.09 1.66-.09.24 0 .6.23.92.33.48.16.93.16 1.45.16-.23.28 1.24.28 1.25.3.06.1.08.21.06.33-.02.38.05.37-.25.41-.36.05-.62.3-1.01.27-.32-.02-.17-.38-.52-.27-.41.14-.04.68-.25.93-.18.22-.84.13-1.07.15-.54.06-1.09.16-1.62.32.07.19.52.06.65.06v.62c-.3-.04-.58.13-.88.18-.32.05-.61-.18-.91-.3-.3-.12-.62-.19-.94-.19.08-.15-.17-.23-.23-.25-.82-.29-1.51-.26-2.35-.3a.45.45 0 0 0 0-.36c-.3.25-.59.5-.87.77.22.07.54.08.7.33-.04.36-1.09-.23-1.13.12.43.25.84 1.07.05.95-.23-.04-.58-.34-.81-.22-.45.24-.88.9-1.23 1.32.4-.11.67-.32 1.09-.32h1.38c-.12.32.2.5.16.8-.45-.01-.85.28-1.29.37.67.07.21 1.03.92 1.07.24.01.28.5.22.73-.06.25-.98.1-1.14.1.17-.41-.55-.48-.72-.6-.36-.26.62-.21.6-.27-.02-.08-.79-.38-.9-.43-.24-.09-.51-.01-.75.03-.35.05-.24.04-.45.33-.22.3-.64.06-.93.42-.32.39-.55.88-.82 1.31h.41c-.09.7 1.07.94.74 1.64-.13.26-.24.1-.44.14-.19.04-.28.27-.44.37-.35.21-.46-.57-.49-.84-.06-.49-.44-.18-.59.12-.39.72-.75 1.46-1.08 2.22-.18.41-.33.71.11.77.4.06-.34.4-.4.29.11.22 1.18.6.57 1.06-.37.28-.84-.02-.56-.58-.69.04-.93 1.81-1.1 2.46.16 0 1.1.26 1.1.5-.07.05-.96.12-.81.31-.41-.04-.51.05-.62.55.39.01.77.07 1.16.02.12-.02.41-.05.43-.26.39-.04.74.24 1.13.19 0 .43-1.03.57-1.29.55.09.26-.09.89.17 1.04.3.18.88-.84 1.12-.05-.29.02-1.07.22-.65.74-.29.47-1.88-.39-1.97.25-.01.08.5.04.55.13.09.2-.48.23-.52.23-.19 0-.39.01-.58.01-.04.33-.06.66-.09.99.31.02 1.14-.24 1.33.17-.21.18-.53.07-.76.07-.2-.01-.39-.01-.58-.01-.03.35-.05.7-.06 1.05.2 0 .62-.17.63.19 0 .2-.16.16-.26.13-.29 0-.38-.2-.39.27.16-.17.62-.26.62.15-.41 0-.63-.08-.63.54.21 0 .42-.01.63.02 0-.32.29-.3.46-.28.73.08.01.19.18.52h-1.27c.01.69.04 1.37.08 2.05.28-.11 1.85-.17 2 .19.04.1.65.04.77.04.42 0 .56-.16.93-.28.7-.22 1.46-.31 2.17-.09-.22.09-.54.2-.63.49-.12.37-1.17.18-1.54.18h-3.66c.11 1.31.32 2.6.49 3.9.08.61.17 2.25.82 2.38-.43-.03-.2.37-.12.69.2.74.35.59.93.7.38.07.71.24 1.11.19.43-.06.87-.25 1.31-.22-.3-.49 1.56-.45 1.6-.45.41-.02.82-.08 1.22-.09.48-.01.5.34.86.52.32.15.68.12 1.01.18.54.09 1.04.42 1.58.56.47.12.51.06.51.64.59.04.93.43 1.45.68-.68.25-1.4.02-2.1.06.21.28-.55.34-.64.37.52.49 1.21.33 1.81.22.31-.06.62-.12.93-.1.09.26-.16.3-.3.31-.33.02-.65-.1-.98-.11-.3 0 .02.35-.43.35-.32 0-.71.1-1.02.03.02 0-.72-.63-.65-.15.03.2-.76.16-.9.17-.35.03-2.04.32-2.17-.3-.35.7-1.72.22-2.26.31.7.3 1.18 1.11 1.94 1.23-.36.53.73.53.67.69-.07.2-.54.05-.67.05.16.25-.18.51.28.51.35 0 .66-.26 1.01-.21-.41.21-.73.6-1.13.84-.3.19-.64.15-.97.15-.11.55-1.01.42-1.33.62.11.27.17.61.45.65.26.04.4.51.05.51.06.14.12.27.18.41 0-.56 1.49.14 1.73.14.36-.01.73.01 1.09.12.33.1.66-.11.98-.15.34-.05.69-.04 1.04-.01.12-.19-.2-.29-.15-.43.19-.49 1.8.62 1.44 1.47.65-.04 1.26.01 1.85.36.39.22.89.33.89-.36-.64.05-.84-.6-1.45-.55 0-.16.11-.55-.05-.65-.13-.08-.47.1-.55-.06-.15-.29-.04-1-.04-1.32v-.68c.25.01.44-.06.65-.21.19-.14.48-.3.62.02.24.51.04.63.6.63.66 0-.24 1.72.46 1.79.34.04.22.24.41.46.16.2.53.09.71.06.75-.14 1.5-.35 2.26-.44.28-.04 1.36.24 1.5.07.43-.53 1.67-.06 2.14.22-.46.19-.92.39-1.4.42-.64.04-1.22.42-1.83.63.18.76 2.62-.3 2.92-.33.27-.03.31-.12.31-.47.43-.12.84-.26 1.27-.41.44-.15.87-.29 1.32-.39.34.1.04.43.16.68-.57.04-1.06.45-1.62.53-.37.05-.48-.01-.48.52.48-.04.98-.04 1.45.12.24.08.52.27.66-.12.48 0 1.29-.32 1.29.5.13-.01.99-.09.81.31.29 0 1.18.16 1.32-.12.14-.27.59-.18.8-.16.44.04.89.03 1.34.03.23 0 1.11.19 1.27-.12.19-.38.69-.29.99-.37.33-.09.18-.56.5-.56.15 0 1.27-.02 1.06-.24.4 0 1.01.23 1.36-.09.2-.18.45-.1.65-.25.22-.18.09-.69.09-.95.35.04 3.26-.27 3.23.24h1.45c-.01-.14.03-.23.12-.28.27-.09 1.34-.03 1.37.21.1.86-1.14.5-1.49.68-.05.15.94.1.64.37.85.06 1.66-.18 2.49-.24.27-.02.25-.2.25-.5.19 0 .67-.13.67.27 0 .3-.15.5.18.52.25.01.5.03.74.01.74-.05.07-.26-.3-.25.28-.49.67-.83 1.1-1.07.22-.12.44-.21.67-.28.27.04.2.32.04.47-.33.33-.64.29-.51.97.13.64.89.41 1.27.41 0 .31-1.4.36-1.29.49-.51 0-1.02.01-1.53.05s-.29-.25-.4-.65c-.16-.58-1.29.43-1.33.31.12.34.53-.2.65.1.19.48-.45.51-.66.51-.38 0-.92-.17-1.26.07-.54.37-1.46.17-2.09.17.24.25-1.05.24-.81.49-.3 0-1.04-.24-1.26.12-.14.22-.08.36-.37.42-.26.05-.52.02-.77 0-.39-.03-.78-.14-1.15-.28-.04-.02-.38-.13-.32-.26h-1.29c.27.5-.7.69-.9.72-.12.02-.54.12-.55-.15-.03-.43-.39-.3-.64-.26-.01-.05.65-.03.67-.14.05-.24-.96-.15-.67-.42-.65 0-1.32-.06-1.97.01-.16.02-.15.12-.14.3.02.34.55.19.81.25-.05.14-.51.64-.63.45-.09-.14.02-.26-.18-.3-.24-.05-.53.01-.76.02-.69.02-1.38.09-2.07.03-.31-.03-.5-.26-.79-.3-.65-.09-1.29 0-1.89.28-.17.08-.36.01-.53-.05-.28-.11-.53 0-.6-.33-.04-.18-.83 0-.63-.33h-2.1v.99c.12-.01 1.28.06.74.5-.36.29-.98.05-1.38.05.19.32-.54.26-.64.24.09.25-.29.31-.16.56-.29.02-.58-.12-.88-.12-.29 0-.43.5-.63.46-.22-.05-.32-.53-.37-.75-.12-.53-.25-.39-.7-.39 0-.16.08-.43-.09-.49-.39-.13-.76-.14-1.1-.47-.24-.22-.9-.1-1.19-.14-.35-.05-.37-.19-.72-.2-.09 0-1.09-.06-.93-.25-.53 0-1.5.23-1.91-.18-.23-.23-1.02-.86-1.19-.8-.2.07-1.75.41-1.76.56-.01.16.12.36-.08.42-.09.03-.36-.09-.4.08-.1.5.45 1.24.64 1.61.19.35.56 1.37.95 1.41.15.02.33-.07.47-.04.1.06.11.15.06.28h-.54c.9 1.54 1.86 3.03 2.85 4.47.38.56 1.07.47 1.59.54.11.02.85.05.81.27-.03.13-.26.15-.19.32.07-.01.82.01.81-.06-.3-.24-.09-.62 0-.92H65c-.17.29.4.26.49.26.34-.02-.04-.45.28-.51s1.8.27 1.96-.17c.18-.5 1.41-.94 1.85-.8.19.06.15.81.07.96-.04.06-.71-.03-.66.2.05.25.59-.12.69.21.08.28 0 .61 0 .9-.46-.05-.51-.02-.65.49-.13-.02-.39-.09-.5.03-.24.25.07.45-.37.44-.28 0-.5.23-.77.25-.33.02-.72-.26-1.05-.34-.87-.21-1.75-.38-2.64-.38.11.23-.28.26-.16.49h-1.31c1.69 2.28 3.48 4.44 5.34 6.49v-.83c.15.01.31.03.46 0 .24-.06.19-.28.35-.4.1-.07.8-.07.64-.33.66.05 1.28-.25 1.94-.25-.2.44-.75.47-1.09.56-.28.08-.57.14-.84.24 0 .14.03.4-.12.43-.38.06-.64-.04-.5.62.08.37.61.19.7.75.04.25-.03.51-.15.71.23.24.44.5.69.7.37.29 1.23.15 1.36.5.19.51 1.03.35 1.39.36.53.01.96.32 1.49.42.41.08.81.15 1.22.24.36.08.4-.06.65-.17.3-.13.69-.06 1-.04.52.02 1.02-.13 1.53-.21.49-.08 1.04.1 1.5-.16.5-.29 1.11-.16 1.64-.12.24.02 1.05.16 1.15-.27H85c-.24-.25 1.05-.24.81-.49.34-.04.69.11 1.03.06.43-.06.16-.68.42-1.04.41-.02.89.06 1.23-.28.15-.16.98-.4.71-.77.58-.04 1.09-.57 1.66-.56.14 0 1.64.18 1.6-.13-.01-.1-.58-.18-.56-.22.18-.25.92-.11 1.17-.14-.19-.26.48-.26.56-.26.36 0 .6-.34.99-.42.32-.07.81-.4 1.12-.27.13.05.78.56.85.08.04-.29.6-.34.66-.01.13.75.16.56.8.61.57.04 1.1.19 1.66.26.74.08 1.5.01 2.24.01-.29.27.69.22.65.37.04.15-.94.1-.65.37h-3.51c-.34 0-.93.12-1.2-.06-.22-.15-.53-.15-.77-.18-.55-.07-.9.01-1.4.21-.2.08-1.45.32-1.18.83-.16-.02-.57-.14-.65.12 0 .12 0 .25.01.37-.14.01-.28.02-.42.04-.27.04-.55.1-.79.28-.12.09-.22.23-.25.42-.23.01-.46 0-.69.02-.15.01-.3.04-.45.09 0 .2-.13.32-.27.38-.22.1-.57.05-.55.46.03.82-.95.08-1.28.46.4.74-.84.79-.65 1.48-.45.04-1.04-.27-1.45.07.02.34.83.17.98.15.4-.05.58.33.96.28-.11.54.26 1 .16 1.54h1.3c.04-.14.11-.22.23-.24.49-.09.95.49 1.44.49.29 0 .34.08.46-.19.09-.19.39-.05.52-.05.27 0 1.5.26 1.38-.25.78-.04 1.62.15 2.38-.12-.25 0-.29.01-.29-.33h.43c.32 0 .15.11.38.21.28.11.7 0 .99 0 .87 0 1.71-.21 2.57-.25 1.83-.08 3.84-.75 5.63-.12-.64.14-1.29.07-1.94.13.25.42-.79.44-.93.45-.82.03-1.64.07-2.46.04.24.24-.4.25-.48.25-.1.01-.29-.04-.31.15-.05.41.12.34.42.34h.85c.2-.16.06-.44.35-.47.29-.03.93.05 1.1.41-.71.16-1.4.45-2.1.68 0 .97-.1 1-.91 1.14-.63.11-1.67.36-2.26.02-.55-.32-1.21-.26-1.85-.28-.52-.02-1.03.06-1.55.05-.38-.01-.76-.04-1.13.01-.32.04-.2.45-.2.72-.2.01-2.39-.19-2.1-.74-.27 0-.63.17-.65-.23-.01-.22-.08-.27-.25-.27-.11 0-.42.07-.41-.17 0-.47-.13-.34-.49-.4-.56-.09-1.11-.37-1.67-.4-.26-.02-.48.15-.74.2-.37.06-.74.02-1.11.03.14.5-1.14-.1-1.29-.19.59-.18 1.15-1.15 1.8-.81.12.1.24.18.37.22.34.05.3-.16.46.21.16.36.95.23 1.23.25v-.49c-.45.06-.84-.31-1.29-.25.15-.42-.49-.32-.65-.31.16-.18-.24-.48.17-.51.26-.02.53.18.78.24.59.14 1.01.3 1.15-.47-.26.04-.47-.07-.7-.17-.31-.13-.62-.05-.94-.05-.51.02-1.03-.32-1.53-.43-.42-.09-.87-.2-1.3-.15-.52.06-.22.76-.54.79-.31.03-1.24-.29-1.11.34.05.22-1.12.22-1.26.15-.2-.08-.32-.28-.55-.34-.33-.08-.69-.11-1.02-.15-.83-.1-1.71-.15-2.51.18.3.35.93.03 1.29.06-.15.43.49.33.64.31 0 .33.07.49-.26.49-.43 0-.84.05-1.25-.16-.4-.21-.89-.1-1.25.07-.5.23-1.13-.02-1.63-.13 1.8 1.63 3.65 3.18 5.53 4.65a92.963 92.963 0 0 0 4.49 3.32c.27.19.37.37.6.21.15-.11.38-.02.54-.02-.18.21.22.46-.17.49 4.03 2.76 8.19 5.2 12.43 7.4.46.24.93.48 1.39.71.35.17.47.32.84.14.28-.14.55-.28.82-.42a117.005 117.005 0 0 0 9.74-5.51c7.91-4.99 15.41-11.03 21.95-18.49m8.24-18.48c.49 0 .5.23.63.75.18.74-.44.54-.79.54.26-.38-.37-.48-.48-.68.27-.01.8-.1.64-.61m5.33-18.66c.03-.09.39-.06.65-.06.34.22-.82.27-.65.06zm-2.1-13.68c.29 0 .81-.2.81.24-.29.01-.81.21-.81-.24m-.48 15.16c1.01 0 0 .5 0 0M83.23 1.4c.11 0 .66-.09.69.1.03.24-.69.36-.69-.1m-2.1 2.16c.1-.03.89-.07.65-.37.26.02 1.3-.17 1.3-.61 0-.59.35-.45.77-.45.42 0 .68-.08.68.5.65 0 1.29.1 1.94.06-.28.42.47.55.64.62-.23.13-1.62.32-1.29.92-.73-.07-1.46.33-2.16.05-.25-.1-1.11-.1-1.22-.42-.06-.15.07-.3-.11-.38-.15-.06-.38-.04-.51.07-.11.1-.73.05-.69.01m-.65 1.17c0 .58-.82.11-.83.15.07-.25.71-.16.83-.15m-1.93 1.54c0-.64 1.04.12 0 0m-.81-4.5c.08-.08 1.45-.15 1.29.06-.08.09-1.45.15-1.29-.06zm-1.29-.06c0 .49-.83.06-.83.09.06-.3.67-.15.83-.09m-3.39.49c.91-.07 1.83.02 2.74-.09.94-.11.77.73 0 1.01.41.47 1.29-.5 1.29.55-.06-.01-.72.16-.65.25.15.2 2.63-.16 1.89.98-.19.28-1.11.1-1.35.09-.2-.01-.49-.18-.55.19-.05.32-.29.29-.48.22-.18-.05-1.06-.42-.95.13-.3 0-1.29.29-1.29-.32 0-.81.09-.82-.53-.99-.46-.13-.1-1.64-.12-2.02M51.59 30.66c0-.64 1.05.12 0 0m.65-2.34c-.08 0-.86.06-.82-.1.07-.33.82-.28.82.1m-.32-2.59c-.53.04-.1-.17-.32-.43h.64c-.23.26.21.47-.32.43m10.33 32.15c-.32-.02-1.25.32-1.45-.11 0 0 1.3-.12 1.45-.14v.25m-1.94-1.84c0-.15-.09-.45.09-.48.38-.09.82-.01 1.2-.01-.41.47.69.38.65.74-.66-.01-1.29-.31-1.94-.25m6.78 7.32c-.1-.36.32-.55.47-.34.26.36-.36.36-.47.34m10-6.77c.11 0 .66-.09.69.1.04.23-.69.35-.69-.1m-4.03-4.14c.08-.11 1.45-.19 1.29.08-.08.11-1.45.2-1.29-.08zm-8.88-.24c.29 0 .81-.19.81.25-.3 0-.81.2-.81-.25m2.91 5.12h-2.1c.12-.24-.28-.26-.16-.49h1.62c-.25.27.82.24.64.49m1.29-1.54c0-.64 1.38.12 0 0m2.1 6.16c-.01-.27-.26-.45-.16-.74h1.29c0 .2.12.63-.05.77-.26.18-.8-.06-1.08-.03m1.29 3.08c-.08 0-.87.06-.84-.1.07-.32.84-.26.84.1m.16-7.36c-.34-.06-.04-.41-.16-.64h.48c-.21.32.24.68-.32.64M75 68.66c-.43.03-.86-.09-1.29-.06.22-.27-.45-.25-.54-.24-.2.02-.44.09-.63-.01-.15-.08-.19-.44-.01-.51.43-.17 1.13.02 1.59.06.3.03.16-.27.28-.47.12-.2.45-.06.61-.06-.27.57.53.8.81.92-.11.03-1.04.1-.82.37m-1.29-7.21c0-.63 1.38.12 0 0m2.09 2.03c-.08 0-.68.08-.67-.12.02-.22.79-.19.67.12m-.64-6.95c-.39.15-.81.08-1.22.06-.26.09-.34-.03-.23-.39v-1.15c-.2 0-2.1-.69-2.08-.42.03.39.34.45-.28.42-.15-.01-1.29-.08-1.04-.5-.16.02-.8.12-.64-.31-.87-.03-1.78-.92-2.66-.49-.31.15 0 .48-.13.68-.23.34-.95-.23-1.24-.19v-.49h-.81c.1-.34-.35-.26-.48-.25 0-.2-.1-.51.13-.55.48-.09 1.02-.02 1.51.01.26.01.99.26 1.14.09.11-.13.58-.13.45.18.12 0 .17-.07.16-.22h.77c.35 0 .33.03.57.21.21.16.69.01.9-.03.54-.1 1.08-.27 1.63-.24-.24.8-1.39.75-1.94.86.41.26.84.41 1.29.43 0-.61.28-.46.65-.58.72-.23.95-.47 1.68-.2.42.15.29-.04.45.42.06.18.27.14.39.13.22 0 .7-.03.87.17 0 0-.94-.04-.58.49.28.41 1.02.12 1.38.12-.19.31 1.19.13.47.9-.33.36-1.1.06-1.11.84m1.61 10.03c-.56.03-.08-.21-.32-.49h.64c-.23.28.24.53-.32.49m1.13.74c-.36-.03-.01-.23-.16-.43.17.02.55.13.65-.12.06-.14-.06-.33.07-.43.15-.11.4 0 .57 0-.26.47.42.62.64.68-.59.05-1.18.19-1.77.3m1.13-4.8c-.4.04-.82-.1-1.22.02-.18.05-.07.57-.07.72-.43 0-.76-.02-1.12-.34-.48-.44.02-.49.37-.44.44.06.75.22.75-.45.65.05 1.28-.25 1.94-.25-.16.16-.97.3-.65.74m2.1-3.39c-.18.02-.4.09-.57-.02-.09-.06-.12-.16-.09-.29.06-.32.24-.19.49-.19-.11.24.29.27.17.5m10.17-4.99c.11-.02.69-.08.49-.37.21 0 .41-.03.62-.01.47.05-.09.26.03.5-.13-.01-1.16-.09-1.14-.12m.48 2.41c.3.14.45.35.81.31-.29.41.42 1.03-.28 1.21-.25.07-.32-.21-.5-.35-.2-.15-.45-.14-.68-.12.26-.44-.86-.76-.59-.94.36-.22.86-.11 1.24-.11m-2.58-2.16c.08-.09 1.45-.15 1.29.06-.08.09-1.45.15-1.29-.06zm-.49-2.4c-.34-.06-.04-.41-.16-.64.17 0 .42-.1.56.06.27.32-.22.57-.4.58m-.8-1.2c.13-.34.9-.05 1.13-.08 0 .74-1.22.22-1.13.08m-.16 3.54c-.13.16.71.19.81.19-.06.67 0 1.13-.65 1.23.05.1.56.03.54.16-.05.39-.98.12-1.19.15.26-.85-.66-1.56.49-1.73m-1.94 3.81c.11 0 .66-.09.69.1.04.24-.69.36-.69-.1m-2.58 2.16c.5-.19 1.21-.37 1.29.37h-.8c.26-.26-.54-.2-.49-.37m1.29 1.67c0 .44-.51.24-.8.24-.01-.44.5-.24.8-.24m-.81 4.37c.12-.31.22-.64.16-.98 1.07.07 2.17-.63 3.23-.13-.44.11-.89.28-1.29.56-.2.02-1.26-.21-1.34.1-.07.23.55.21.56.21.25 0 .76-.16.78.19.04.6-1.14.3-1.46.3.15-.17-.57-.23-.64-.25m2.75 1.04c-.31-.03-1.82.37-1.94-.12.04-.17.95-.13.65-.43.53 0 1.29-.32 1.29.55m0-1.04c0-.64 1.38.12 0 0m2.74 0c0-.61.26-.49.65-.49-.19.19 1.46.3 1.45.37-.61.46-1.44.14-2.1.12m2.58-.8c-.68.07-1.38.23-2.06.14-.33-.04-.58-.31-.89-.34-.34-.04-.8.15-1.08-.17.41-.07.82-.19 1.24-.26.22-.03.47-.08.69-.04.16.03.18.2.34.22.39.04.67-.34 1.08-.35.44-.01.88.07 1.33.07.07.36-1.04.26-.65.73m-4.03-4.81h.81c.25.33-1.07.33-.81 0zm3.39 3.33h.81c.25.33-1.07.33-.81 0zm1.61-2.09c-.25-.03-.15-.15-.14-.35.01-.18-.56-.13-.66-.18-.45-.23-.88-.17-1.34.08-.51.28.39.92-.31 1-.39.04-.39-.18-.72-.31-.33-.14-.72-.1-1.02-.35.42-.14 1.29-.19 1.29-.86-.16.02-.34.06-.51 0-.23-.08-.07-.28-.16-.46-.1-.2-1.02-.28-1.19-.26-.42.06-1.09.62-1.51.35-.25-.16.53-.79.61-.86-.06-.19-.52-.06-.64-.06.01-.27.26-.45.16-.74.32 0 .37-.08.52.21.1.2.31.25.48.22.4-.07.56-.24 1-.07.28.11.55.06.84.07.35.03.29.09.38.41.1.4 2.06.13 2.29.13.98 0-.38.27-.18.49-.2 0-.4-.04-.6 0-.41.09.02.56.28.49.28-.07.5-.45.81-.24.37.24.29.57.8.55-.09.45-.02.7-.48.74m-.16 8c.17.02.41.09.57-.04.14-.12 0-.33.16-.41.36-.17.83-.14 1.21-.11-.05.34-1.03.32-.65.8-.52-.06-.46.25-.86.45-.59.29-.3-.39-.43-.69m5.33 2.28h-1.29c.21.28-.7.25-.81.25.25.27-.89.22-.65.49-.43-.03-.86.09-1.29.07.25.27-.9.22-.65.49-.18.02-1.38-.14-1.46-.29-.06-.1.14-.31-.01-.43-.13-.1-.41-.03-.5.12-.14.23-.83.14-.81-.22.02-.34.93-.51.69-.97.2.02.42.06.61-.05.16-.09.13-.46.25-.47.25-.04 1.01-.51 1.08-.03-.15-.01-.48-.04-.52.22-.01.13.16.5-.01.56-.24.09-.6-.21-.58.25.03.64.28.12.58.02.43-.15.9-.02 1.33 0-.23-.26.98-.27.81-.49.82 0 1.51.16 2.33.15.22 0 1.67-.36 1.74-.08.06.19-1.11.11-.84.41m2.74 0c0-.63 1.38.12 0 0m7.42 6.41c-.43-.05-1.07.3-1.46-.06.11.1 1.22-.17 1.46-.19v.25m3.23 1.29c-.32 0-1.29.29-1.29-.31.14.01 1.43.06 1.29.31m7.43-3.88c-.3-.01-.6 0-.89.04-.26.03-.65.23-.9.12-.28-.12-.07-.87-.14-1.15.15.01.77.08.64-.31.42 0 .65-.09.65.56-.18-.02-.48-.08-.64.06-.23.19.68.23.76.23.4 0 1.43-.86 1.81-.23-.04-.05-1.24.5-1.29.68m-4.69-18.91c-.43.03-.86-.09-1.29-.06 0-.56.08-.48.53-.56.37-.06.67-.48 1-.48.07 0 .56.01.4-.19.28.02.55-.05.82-.04.23.01.46-.27.52-.27.1 0 .97.02.76-.25.15 0 .4-.08.54.03.44.34-.18.49-.35.56-.38.12-.68.48-1.08.6-.39.14-.81.14-1.22.11.23.27-.95.21-.63.55m-.64-2.28c.03-.09.39-.06.64-.06.35.23-.82.28-.64.06zm3.39-1.6h3.39c-.21.26.62.25.71.25.17 0 .34-.05.5-.01.29.07-.17.32-.08.5h-1.78c-.11-.39-.59-.31-.84-.29-.5.05-.99.07-1.49.21-.55.16-.23-.27-.41-.66m4.03 9.49V63c-.57-.03-1.15-.04-1.73.04-.29.04-.58.1-.85.21-.36-.04-.02-.27-.16-.49.83-.07 1.66-.18 2.49-.26.71-.06 1.51-.23 2.19.13-.63.18-1.29.12-1.94.12M122.77 47c-.46-.07-.94.09-1.4.01-.06-.01-.72-.19-.69-.25.19-.32 2.09-.32 2.09.24m1.94-.2c-.34 0-.68.07-1.03.02-.41-.06-.72-.3-1.15-.3-1.05 0-2.1.14-3.15.03 0 .62-.19.52-.68.52-.44 0-.87-.05-1.31-.04-.16 0-.37 0-.51.12-.22.18-.3.17-.62.16-.74-.03-1.47-.11-2.21.01.23-.29-.62-.16-.7-.14-.5.09-1.01.23-1.52.21-.63-.02-1.16-.4-1.82-.38-.69.03-1.36.12-2.05.12-.46 0-.68.22-1.16.25-.39.02-.78-.03-1.17-.03-.81 0-1.63.01-2.45-.01-.42-.01-1.24.26-1.24-.48.28.02.56-.04.85-.03.23.01.43-.28.49-.28.08 0 .9-.02.76-.19 1.08-.13 2.16-.01 3.23.19 0-.82.79-.5 1.27-.5.94 0 1.87.03 2.81.01.43-.01.93.06 1.35-.02.08-.04.1-.12.06-.23h-4.03c.25-.29-.62-.26-.65-.43 1.27-.41 2.64-.12 3.93-.11.13 0 1.37.15 1.41.08-.19.33.81.35.89.35 1.19.01 2.38.16 3.58.14.31 0 .76-.18.88.17.08.11.29.1.39.11.24.02.83.12 1.03-.12-.14-.14-.12-.85.04-.96.21-.15.87.03 1.15-.02.13-.02 1.49-.2 1.47-.1-.06.32-.6.01-.72.28 1.15.2 2.25.65 3.39.86.34.46-.86.36-.81.74m-15.33 3.63c0-.63 1.38.12 0 0m-2.11 7.94c.3 0 .81-.2.81.25-.29 0-.81.19-.81-.25m-1.93-8.13c.62-.27 1.3-.02 1.93-.06 0 .5-1.73.32-1.93.06m-3.39-1.1c-.94.09-1.72.83-2.67.76-.16-.01-.76.14-.76-.16 0-.5.09-.66.46-.62.24.03 2.26.22 2.31-.07.06-.32-.04-.44.32-.42.51.01.15.27.34.51m-3.39 10.77c0-.63 1.38.12 0 0m.81-11.58c-.2 0-.63.18-.78-.08-.27-.48.49-.35.62-.35-.14.22.25.22.16.43m3.87-8.93c.38 0 .65-.11.65.5-.34 0-.83.17-1.14-.03-.22-.15.71-.21.49-.47m4.84-5.42c0 .58-.82.11-.82.15.06-.25.7-.15.82-.15m1.3-2.21c.03-.09.39-.06.64-.06.35.22-.82.27-.64.06zm2.58 5.05c-.17-.02-.71-.14-.66.27.06.44-.75.25-.91.23-.36-.04-.63-.46-.11-.51.64-.07 1.18-.48 1.84-.48.04.22-.29.25-.16.49m4.84-4.38c.16.02.44.1.58-.07.2-.24-.08-.56.33-.52.56.06 1.03-.23 1.03.59-.38 0-1.18-.19-1.29.39-.04.23-.36.18-.49.17-.34-.06-.03-.33-.16-.56m1.94-9.73c.62 0 1.39-.15 1.99.02.38.11-.6.4-.7.44-.35.14-.7.33-1.06.18-.08-.04-.88-.32-.88-.32.07-.08.9-.08.65-.32m.8.74c.86.06 1.73-.08 2.58-.19V24c-.62-.07-1.28.25-1.91.25-.18 0-.7.12-.83-.09-.1-.15.14-.55.16-.71m1.94 9.3c.34.23-.82.28-.65.06.04-.09.4-.05.65-.06zm-.65-7.51c0-.64 1.05.12 0 0m3.88 7.45v.25c-.12-.02-1.32-.07-1.29-.13.42-.14.86-.08 1.29-.12m-.49-.49c0-.63 1.38.11 0 0m.97 6.65c.45-.01.14.48.49.56.29.06.72.01 1-.08.3-.09-.05-.76.14-.92.4-.34 1.6-.05 2.08-.05-.17.21 1.02.41.55.56-.17.05-.52.05-.65-.12-.1-.12-.43-.22-.54-.07-.08.1.1.25 0 .38.49 0 1.12-.24 1.31.41.05.17-.63.15-.68.15-.18 0-.35-.01-.53-.01-.4-.01-.18-.04-.44-.24-.3-.22-.51.45 0 .5.04 0 1.09-.02.98.15-.06.1-.91.07-.64.32-.48 0-1.45.36-1.45-.49-.69.09-1.29-.82-1.29.49.36-.01 1.04.14.3.25-.24.04-.47.05-.71.05-.3.01-.2-.17-.46-.32-.46-.27-1.08.04-1.21-.72-.08-.45.03-.55.36-.53.46.02.95-.04 1.39-.27m.33-8.13c.21-.24 1.29-.22 1.29.25-.14-.02-1.37-.02-1.29-.25m1.45 6.84c0-.64 1.04.11 0 0m1.94 8.25c-1.62-.18-3.25-.27-4.84-.68.13-.06 1.57-.19 1.45-.37h4.68c-.16.32-1.7.43-1.29 1.05m1.29 15.39c.11 0 .66-.09.69.1.03.24-.69.36-.69-.1m-4.68-20.01c0-.5.31-.31.65-.31-.01.5-.32.31-.65.31M127.61 54c-.52-.04-1.05 0-1.57.02-.36.01-.85.15-1.17-.14.32-.29.81-.15 1.17-.14.53.01 1.05.06 1.57.02V54m1.46 10.23c-.35-.05-.02-.28-.16-.49h.64c-.05.36-.19.47-.48.49m2.42-1.55c-.92.06-1.85.1-2.77.04-.42-.03-.87-.63-.23-.76.16-.03.34-.06.45.09.21.31.93.16 1.22.15.42 0 1.33-.3 1.33.48m0-3.57c-.48 0-1.29.32-1.29-.49.48 0 1.29-.33 1.29.49m.8-12.44c.37-.13.75-.1 1.13-.12.29.15.09.52.16.8-.16 0-1.52-.14-1.51-.16.13-.24.65.04.7-.28-.03-.06-.66-.06-.48-.24m.17 3.2c-.23-.02-.38-.51.16-.43.23.02.37.51-.16.43zm.64 11.83c-.3-.08-.49-.29-.81-.25.14-.17-.12-.45.12-.49.39-.06.75.29 1.17.24-.14.31-.16.48-.48.5m8.56-21.8c0-.63 1.38.11 0 0m1.93-.31c-.08 0-.66.08-.66-.08 0-.27.66-.34.66.08m1.45-5.36c.14-.01.62-.11.66.16.01.03-.66.33-.66-.16m-2.74 2.59c.36.03.89-.17 1.21-.37.12-.07.09-.26.09-.4-.01-.39.3-.19.55-.32.35-.18.18-.61.69-.43.17.06.28.28.49.35.34.11.7.11 1.02.31-.72.04-.55.37-.59 1.06-.02.37-.18.31-.42.29-.54-.04-.09.47-.28.74-.82.33-1.53-.16-2.31-.36-.76-.2-1.67.3-2.37-.25.23-.08 2.04-.09 1.92-.62m-2.74 3.08c.32 0 1.78-.25 1.96.12.03.06-1.48.16-1.31.37-.1 0-1.36-.04-1.32-.12.05-.12.89-.12.67-.37m-1.62 13.85c.34-.02.61.3.97.25v.49c-.1-.01-.83-.07-.65.24-.98 0-1.96.1-2.93.03-.34-.03-.69-.25-1.13-.27-.19-.01-.38-.01-.58-.01-.07 0-.24-.21-.33-.26-.09-.05-1.2-.41-1.19-.43.18-.47 1.65.66 1.47-.06h1.66c.32 0 .44.34.87.35.39.01.78-.04 1.16-.08.38-.01.35-.29.68-.25m-.32-13.36c.16.45-1.25.42-1.29.12.4-.16.87-.13 1.29-.12m-1.29-4.81c.16 0 .69 0 .66.34-.03.29-.33.38-.52.34-.33-.09-.03-.45-.14-.68m-.16 11.28c0 .15.08.44-.09.48-.38.09-.82.01-1.2.01.15-.9.66-.44 1.29-.49m-.65-6.16c0 .45-.13.55-.46.49a4.2 4.2 0 0 0-.61-.06c-.36 0-.22.43-.22.81-.65-.01-1.3-.07-1.94.12.01.09.56.22.53.29-.18.36-.91-.18-1.14-.24-.24-.06-1.38.01-1.46-.31-.22-.88.49-.67.91-.82.38-.14.76-.32 1.16-.39v-.68h.7c-.19-.13.04-.42-.05-.6h.64c-.08.23-.04.51-.28.6.54 0 .93-.24.93.49.46-.08.84.33 1.29.3m-3.39-6.96c0-.64 1.38.12 0 0m1.78 3.08c-.56.03-.09-.22-.33-.49h.65c-.24.27.24.52-.32.49m-.33-2.59c-.08 0-.68.08-.67-.13.02-.21.79-.18.67.13m1.94-4.31c0-.52.48-.34.81-.25.16.32-.74.25-.81.25m3.39-2.34c-.17-.02-.71-.14-.66.27.04.33-.41.35-.58.18-.48-.49 1.24-1.01 1.24-.45m.32-.5c-.56-.23-1.05-.69-1.65-.44-.2.08-.39.18-.59.26-.13.05-.02.38-.3.39-.26 0-.51-.12-.76-.19-.33-.08-.14-.1-.34-.35-.21-.25-.97-.43-.71-.97-.41.06-.67-.29-1.07-.26-.28.02-.45.23-.71.19-.38-.05-.72-.21-1.1-.17-.14.01-.87-.15-.39-.28.31-.09.63-.01.93-.01.35-.01.58-.28.93-.28.55.01 1.61.41 2.05-.12-.41-.01-.67-.39-1.05-.38-.18 0-.72.15-.86-.02-.01-.01.84-.3.62-.53.46.01.92.06 1.39.07.47.01.71.25 1.15.38.23.07.66-.07.74.33.08.38.53.29.75.27 0 .63-.03.56-.53.56-.47 0-.94-.04-1.41-.07v.56c.37-.05.63.25.99.25.47 0 .12-.54.48-.56.37-.02.47.07.47.56.46-.07.83.37 1.29.31-.23.29.24.54-.32.5m-7.74-2.52c.17-.21 1.29-.22 1.29.19-.15-.02-1.34-.12-1.29-.19m8.71-1.11c-.11 0-1.17-.05-1.15-.15.01-.1.73-.09.51-.34.38 0 .64-.11.64.49m1.46-7.7v.31c-.49-.07-1.15.53-1.45-.25.46-.17.96-.04 1.45-.06m-1.94-5.35c1.01 0 0 .51 0 0m-4.2-2.07c.03-.12.39-.07.65-.08.34.3-.82.36-.65.08zm-1.94 4.65h.65c-.19.32.54.25.64.25 0 .54-.14.49-.52.49-.67 0-.77.08-.77-.74m-.64-.55c1.01 0 0 .51 0 0m-.65-.5c1.01 0 0 .52 0 0m.81 3.08c.55 0 1.23.24 1.75-.04.58-.31-.23-1.01.67-1.01-.21.24.59.27.68.28.34.04.5.48.8.63.42.21.67-.08.59.6-.06.55 1.32.46 1.32.03.26.02 1.16-.22 1.29.18-.66.06-1.3.27-1.94.5-.02.07.64.02.68.1.12.27-1.21.53-1.35.67-.28.28.06.33-.42.34-.29.01-.57.02-.86.01-.43-.01-.9-.23-1.31-.04-.27.12-1.23.22-1.42-.09-.08-.14.69-.33.69-.32-.09-.13-.59-.06-.69-.06 0-.79.13-.93-.51-1.06-.31-.06.08-.42-.38-.5-.41-.07-.78-.32-1.2-.29.07-.31.22-.89.5-.41.24.43.94-.02 1.11.48m-3.55-2.03h1.29c-.23.24.65.24.7.35.04.08-.26.14-.29.14-.25-.01-1.03-.24-1.06.1-.03.26-.46.21-.58.09-.11-.13.02-.49-.06-.68m0 3.82c0-.63 1.38.12 0 0m.65 1.73v-.43c.1.01.83.07.64-.25.27 0 .64-.18.64.33 0 .42.03.61-.32.69-.41.09-.76.44-1.16.51-.56.09-1.18 0-1.74 0 0-.5.41-.31.66-.38.44-.11.83-.44 1.28-.47m-1.94.06c0-.64 1.04.12 0 0m.65-4.87c1.01 0 0 .52 0 0m-.65 3.08c.27 0 .8.11.67.61-.06.23-.37.19-.51.19-.35-.14-.04-.52-.16-.8m-.81 7.7c.42 0 .64-.09.64.55-.31-.04-.83.14-1.1-.12-.2-.2.74-.16.46-.43m.16.74c.24 0 1.57-.22 1.18.33-.16.23-.09.14-.36.29-.19.11-.34.37-.56.38-.22.01-.76-.16-.99-.24-.32-.11.68-.62.73-.76m-1.45-22.79c.11 0 .65-.09.69.09.03.24-.69.36-.69-.09m-.64.74c.11 0 .66-.09.69.09.03.24-.69.37-.69-.09m-.81 22.11c.46.03.95.03 1.39-.16.18-.08.7-.38.7.1-.14-.02-.29-.05-.43-.03-.33.04-.15.26-.22.52-.14.01-1.43.06-1.29.31h-1.45c-.09-.54 1.16-.33 1.3-.74m-2.26-6.65c.28 0 .43.12.74.14.27.03.8-.08 1.04.11-.14.55-.36.4-.69.27-.39-.16-.83-.06-1.23-.03-.27.02-.23.33-.64.26-.26-.04-.06-.35-.18-.56.33.04.62-.2.96-.19m-1.13-14.66c-.18.53-1.24.75-1.29 0h1.29m-2.58 4.07h.65c-.15.42.49.32.65.31-.19.25.18 1.18-.42.67-.23-.19-.3-.45-.61-.49-.26-.04-.27-.18-.27-.49m-1.94 6.4h2.58c-.12.21 1.11.33 1.23.35.24.04.43.22.68.26.26.04.68.03.83.37-.04.08-.83.07-.65.25.09.19.61-.04.7.19.03.07-1.14.19-1.27.15-.31-.11-.53-.23-.84-.24-.18 0-1.61.01-1.32-.54-.65-.01-1.28-.35-1.94-.3v-.49m-1.29 9.3h3.23c.29.27-.69.23-.65.37.54.02.76.76 1.29.8-.77.04-.27.71-.77 1.05-.78.52-.35-1.12-.62-1.38-.34-.32-.94-.13-1.33-.1-.2.01-1.51-.27-1.15-.74m-3.39-17c.19.01 1.08-.16 1.13.18-.1.2-.47.11-.62.1-.27-.01-.51.1-.51-.28m.49 25.44h1.16c.32 0 .37.28.67.23.16-.03 1.26-.33.9-.68-.02-.02-1.1-.15-.53-.55.33-.23.83-.05 1.19-.05-.21-.23.83-.23.81-.37-.43-.07-.68-.34-.81-.86.2 0 .4-.03.61-.02.32.03.12.17.23.43.08.17.49.11.59-.01.23-.28.92-.15 1.31-.15-.13.2.87.24.95.24.2 0 .33-.09.4.19.06.23-.02.41-.19.51-.4.23-.7.29-1.11.29-.04 0-1.39.18-1.35.23.04.04.65.08.65.08-.4 0-.82.04-1.22-.01-.17-.02-.22-.25-.41-.26-.8-.05-.26.76.18.88-.19.45-.9.18-1.2.43-.27.23-.5.18-.87.22-.17.02-.34.05-.51.1 0 .06.05.33-.01.39-.18.19-.8.04-1.02.04-.28 0-.54-.26-.83-.31-.39-.06-.78-.04-1.15-.2-.33-.15-.65-.36-1.02-.29.07-.26-.09-.47.22-.51.1-.01.38-.11.43.07.05.21-.1.38.15.44.16.04.33-.01.49-.01-.13-.14 1.41-.36 1.29-.49m-2.59-23.84c.11 0 .66-.09.69.1.04.24-.69.36-.69-.1m-1.94 15.09c.08.01.63.05.48-.19.65-.02 1.29-.06 1.94-.07.14 0 .68-.12.79-.01.31.35-.37.37-.46.39-.35.08-.69.22-1.04.31-.36.09-.26-.1-.56-.18-.39-.1-.77.03-1.16.05.01-.09.01-.19.01-.3m.65 8.13c-.6.06-1.19.2-1.78.31-.51-.44 0-.93.33-1.21.25-.2.7-.51.75.09.05.54.29.76.7.81m-.81-7.45c-.04.09-1.33.14-1.13-.06.04-.09 1.33-.15 1.13.06zm-1.29-1.66c.42 0 .73-.14.67.53-.04.37-.57.15-.65.67-.03.19-.61.22-.72.25-.39.08-.53.39-.86.55-.42.2-1.11.04-1.56.04-.32 0-.31.01-.29-.35.01-.22.41-.17.51-.19.54-.07.93-.51 1.48-.51.51 0 .77.17.77-.49.14.02.29.05.43.03.33-.05.15-.27.22-.53m-4.68 5.42h.65c-.23.27.21.47-.32.43-.54.04-.1-.17-.33-.43m0 2.03h.65c-.15.25.26.26.36.26.34 0 .18 0 .39.29.3.43.96.19 1.35.19-.19.31.54.25.65.24 0 .58-1.32.24-1.58.24-.18 0-.35 0-.52.01-.09-.13-.19-.24-.31-.32-.3-.19-.65-.18-.98-.17-.01-.25-.01-.49-.01-.74m2.1-.56c-.25 0-.63.02-.81-.26-.42-.7.78-.41.99-.3.5.26.51.86.1 1.27-.3.3-.21-.53-.28-.71m1.29.25h.64c-.25.29.26.57-.32.56-.58.02-.07-.27-.32-.56m-1.29-17.12c.16.01.8.12.64-.31h1.04c.29-.13.43.22.02.27-.67.08-1.18.47-1.86.47-.09-.21.29-.21.16-.43m-1.29-2.34c.07 0 1.18.29 1.18.35 0 .46-1.33.01-1.34.06.04-.15.27-.19.16-.41m-3.55 3.32c.21 0 1.42.12 1.46-.19 0-.01 1.42-.13 1.28-.3h1.29c.09.36-.71.43-.86.45-.12.02-.44.06-.43.29h-1.44c-.42 0-.89-.1-1.16.2-.08.09-.87.07-.86-.06.01-.14.94-.14.72-.39m-1.29 10.78c.11 0 .66-.09.69.09.03.25-.69.37-.69-.09M95.82 9.6c0 .48-.66.19-.66.16.04-.27.52-.17.66-.16m-1.94 3.63c.11 0 .66-.09.68.1.05.23-.68.35-.68-.1m-.81.49c-.35-.03-1.13.73-1.13 0 .32.05 1.07-.46 1.13 0m-.8 7.7c-.41-.06-.62-.74-.08-.74.41 0 .6.7.08.74m-.33-9.73c.04 0 .9.22.65.43-.13.11-.36.1-.51.07-.35-.08.02-.32-.14-.5m-.64 1.23c.13 0 .58-.08.65.11 0 .02-.65.57-.65-.11m-.16-.92c0 .19-.67.23-.48.43h-2.1c.16-.28-.53-.3-.63-.35-.4-.23-.07-.91.28-.91.2 0 .84-.21.96.08.16.39-.15.36.34.38.39.02.77.09 1.16.06-.24.2.55.19.47.31m-1.94 7.24v-.16c-.08.02-.84.06-.65.31h-1.29c.09-.24-.29-.3-.16-.55-.45.06-.84-.31-1.29-.25v-.74h-.65c.13-.54-.3-.82-.65-.92.65-.09.35-1.02 1.05-.94.27.03.37.31.66.29.32-.02.23-.48.23-.77-.3 0-.65.18-.65-.37 0-.73-.39-.09-.65-.43-.14-.18.69-.39.68-.4-.15-.13-.6.11-.7-.1-.11-.24.89-.27.67-.49.17 0 .34-.03.51-.01.28.03.03.45.34.59.21.1.45-.02.45-.33h1.45c0 .65-.86.79-1.29.86.09.34-.27.57-.16.92.13.01.6-.14.67.05.01.04-1.05.56-1.16.63.62.29 1.3.12 1.94.12 0 .83-.41.17-.74.67-.39.59.62.91.89 1.05.19.1.44.25.5.54.05.25.41.07.54.08.17.02.16.26.02.33-.17.09-.38.04-.56.02m0 4.01c-.12-.43.39-.47.62-.32.36.25-.54.33-.62.32M84.52 9.41h.65c-.24.28.24.53-.32.49-.57.04-.09-.21-.33-.49m-.16.99c.18 0 3.17-.77 2.91-1.3.17.02.41.09.57-.03.14-.12 0-.36.15-.43.1-.05.74 0 .58-.27.13-.02 1.42-.11 1.29-.31.24 0 1.19-.22 1.29.18-.3.35-.93.03-1.29.06.23.4-.68.32-.81.31.06.06-.48.42-.57.66-.16.42-.15.25-.53.37-.28.09-.54.24-.84.2.21.27-.98.21-.64.55-.62-.02-.87.3-1.38.64-.35.22-.97-.01-.73-.63m.16 10.53c.26.32-1.06.32-.8 0h.8zm-4.68-10.29h.65c-.24.24.53.29.5.35-.14.24-.92.12-1.14.15-.01-.17-.01-.34-.01-.5m-2.1.8c-.18.21.08.5-.26.5-.19 0-.35-.03-.52-.14-.25-.16-.49.03-.52-.35-.03-.41.27-.89.63-.57.11.1-.02.36.09.48.14.18.42.1.58.08m-.65 1.79c-.33 0-.64.19-.64-.31.11 0 .79-.11.64.31m-.64-4.68c.19 0 .45-.1.61.12.23.33-.1.44-.31.46-.42.03-.1-.35-.3-.58M75 16.93c.04-.19-.42-.13-.48-.12 0-.8.58-.49 1.13-.49-.18-.66 1.07-.82 1.37-.8.27.02 1.18-.26.47-.26-.1 0-.97.1-1.01-.09-.02-.17.74-.35.82-.37.61-.16.44-.65.44-1.32h1.45c-.18.73.74.26.65.91-.14.98.87.54 1.29.58-.18.25.24.64-.13.78-.27.11-.45-.04-.68-.18-.09-.05-.72-.08-.48.13.17.14.45.08.64.07 0 .43.08.51-.24.58-.03 0-.47.15-.41.19.35.23 1 .01 1.41.06.13.02.3.05.42-.03.17-.11.04-.44.21-.51.22-.09.69-.01.93 0 .39.01.42.48.91.45-.15.21.16 1.06-.3.85-.32-.15-.27-.6-.68-.55-.19.02-.85.32-.94.5-.21.4.29 1.06-.31 1.05-.1 0-1.17.03-1 .25-.34-.03-.69.09-1.03.08-.32-.01-.49-.33-.84-.36-.45-.03-.81.04-1.25-.18-.45-.23-1.01-.03-.96-.76.01-.16.81.01.71-.2-.09-.19-.57-.09-.71-.07-.37.06-.72.75-1.1.63-.08-.03-.98-.55-.99-.62 0-.05.78-.11.69-.2m.32 1.66a.574.574 0 0 1-.32-.49h.65c-.25.27.23.52-.33.49m-1.61.98c.33 0 .64-.19.64.31-.34 0-.64.19-.64-.31m0 .62c.67 0 1.38.11 2.1.19-.11.65-.29.94-.85.7-.32-.14-.58-.38-.93-.42-.25-.03-.32-.14-.32-.47m0 1.78c.34.23-.82.28-.65.06.03-.09.39-.05.65-.06zm-1.3.5c-.65.04-1.3 0-1.95-.12-.51-.1-.8.02-.8-.68-.27.04-2.74-.77-2.74 0 .24 0 1.19-.22 1.29.19.03.08-.64.01-.67.09-.06.17.67.26.74.25.35-.04.67-.1.73.46-.08.03-1.01.08-.81.31h-2.79c-.46 0-1.24.32-1.24-.49.13.01.98.08.81-.31h1.29c0-.61-.26-.49-.65-.49.24-.28-.24-.53.32-.49.34-.04.69.64 1.02.03.16-.29-.02-.75.32-.81.29-.04.67.09.94-.14.33-.29.01-.59.5-.7.66-.15 1.29-.27 1.96-.2.28.03.63-.15.91-.01.17.08-.48.39-.65.16.01.57.26.9-.39.87-.26-.01-.66-.11-.9.06 0 .2-.12.64.09.72.23.09 1 .21 1.17-.09.08-.16 1.2-.36 1.38.02.07.13-.68.05-.7.15-.16.83 1.3.11 1.46.62-.3-.01-.76.05-.64.6m-6.78-5.92h.65c-.23.28.24.53-.32.49-.56.04-.09-.21-.33-.49m-1.29-4.86c0-.68.97-.03 1.29-.06 0 .72-1.01.04-1.29.06m4.2 2.03h.48c-.16-.23.69-.29.78-.3.22-.01.45 0 .67.05.12.23-.28.27-.16.5-.1-.01-.83-.07-.64.25h-1.29c.21-.28-.7-.25-.81-.25.21-.22-.06-.71.21-.78.62-.17.38.47.76.53m3.23.49c-.2 0-.62.18-.77-.07-.32-.53.46-.42.61-.42-.12.23.27.26.16.49m-.16 4.13c0 .15.09.44-.09.48-.38.08-.82.01-1.21.01.11-.14-1.29-.24-1.45-.25.17-.2-1-.25-1.13-.25.12-.23-.28-.26-.16-.49h-.64c.25-.28-.44-.28-.49-.43.39-.04.47-.51.74-.57.09-.02.71-.03.55-.29.36 0 .71.01 1.08-.03.28-.03.2.38.22.61.03.28.27.16.42.16.32 0 .22.27.22.55.67 0 1.27.5 1.94.5m-3.23-5.91c-.09-.01-1.96.09-1.93-.17.01-.15 1.93-.36 1.93.17m0 .3c0 .43-.9.23-1.09.23-.3-.01-1.01.27-1.01-.29.7.07 1.4-.04 2.1.06m2.58-8c0-.63 1.38.12 0 0m-2.58-.25c0-.63 1.38.12 0 0m.64-.8v-.74c.49.05.5.03.65-.45.07-.21.8-.07.64-.35.24 0 1.19-.22 1.29.18-.36.07-1.13.62-1.13 1.11.82-.04.14.38.48.8-.33 0-1.27.19-1.3-.23-.02-.45-.35-.32-.63-.32m-5.32 6.78c.04-.36 1.08.23 1.13-.12-.24-.11-.54-.47-.48-.83.07-.39.65-.2.68.14.05.57 1.01-.15 1.18-.28.57-.45.79.08 1.36-.01-.55-.56-1.27-.71-1.94-.92.26-.21.66-.18.95-.29.11-.04.24-.1.31-.22.11-.19.38-.03.59-.09.17-.04.3-.25.48-.25.24.01.48.25.75.26.25.02.97-.2.97.28 0 .48-.64.24-.87.22-.3-.02-.76.34-.38.69.2.19.61.19.61-.23.65 0 1.29.09 1.94.06-.19.32.54.25.64.25 0 .77-.23.21-.54.44-.65.44.21 1.16.46 1.44.05.06.19.4.25.43.2.1.55.01.76.01.33 0 .56-.14.54.37 0 .17-.05.34-.15.46-.42.48-1.2.06-1.7.12-.32.04-.17.34-.39.49-.33.23-.83.05-1.19.05 0-.38.07-.54.35-.43.28.12.44-.18.08-.3-.3-.09-.6-.26-.87-.26-.59 0-1.06-.23-1.63-.31-.14-.02-1.31 0-1.33-.26-.03-.38-.7-.33-.96-.46-.21-.11-1.51-.56-1.6-.45m-.65-2.4c1.01 0 0 .51 0 0m1.78 4.61c.25.43-1.6.36-1.77.12.31-.14 1.06-.12 1.77-.12zm-1.94 1.85c.37.03 2.05-.57 2.11-.01.1.99-.85.74-1.3.74.2-.27-.71-.25-.81-.24v-.49m1.29 1.73c-.12-.02-1.32-.06-1.29-.13.16-.01.33-.02.48-.09.21-.1.24-.48.41-.54.57-.18.65.25.4.76m-1.77-.99c1.01 0 0 .51 0 0m-.81-1.54h.65c-.25.29.26.58-.32.56-.59.02-.09-.27-.33-.56m-1.29-2.77c.25 0 .83.08.69.57-.06.22-.39.17-.53.17-.35-.12-.04-.47-.16-.74m-1.45 5.11c-.19.31.54.26.64.25v.49c-.16-.02-.8-.12-.64.31-.26.02-.52-.02-.77-.04-.44-.05-.51.1-.55-.48-.06-.82.89-.53 1.32-.53m-1.94-3.02c.03-.09.39-.06.64-.06.35.23-.82.28-.64.06zm0 4.62c.1-.03.89-.07.64-.37.58-.02 1.34.2 1.89.02.22-.07 1.51-.53 1.52-.71.03-.76 2.02-.72 1.96.16-.03.52-.23 1.18.25 1.48.13.09.96-.07 1.09-.24.34-.45-.04-.82.65-.73.47.06.71-.13.71.57-.16-.02-.32-.05-.47-.01-.28.07-.07.37-.26.51-.15.11-.37.07-.54.11-.32.06-.59.3-.92.34-.24.03-1.78.42-1.8.1-.01-.19.04-.37-.04-.55-.16 0-.54.13-.64-.09-.21-.42.25-.93-.44-.89-.31.02-.91.06-1.05.35-.19.4-.88-.07-1.16.2a.43.43 0 0 0-.09.23c-.04.35-.24.19-.5.22-.07.01-.92-.04-.83-.14.05-.06.77-.14.7-.3-.04-.1-.87-.07-.67-.26m4.03 4.01c-.45-.04-.94-.07-1.38.11-.16.07-.71.24-.75-.17-.02-.3 1.35-.14 1.48-.25-.76-.83 1.14-.67 1.29-.68v.74c-.09-.01-.82-.07-.64.25m-2.74 6.96h.65c-.24.27.24.53-.33.49-.56.03-.08-.22-.32-.49m.65-1.29c-.51.02-.72-.06-.65-.25.44-.2 1.15.07.65.25zm-.65-3.64c0-.63 1.38.11 0 0m.81-2.71c.03-.09.39-.06.64-.06.35.22-.82.28-.64.06zm1.77-.56c-.5-.09-1-.02-1.5-.02-.22 0-.72-.29-.23-.3.14 0 1.32-.12 1.3-.16-.05-.08-1.29-.23-.41-.38.55-.09 1.1.09 1.65.06-.05.34-1.11.34-.81.8m-1.77-1.29c0-.64 1.04.12 0 0m-2.1 2.03h1.29c-.21.33.32.91-.27.98-.41.04-.78-.23-1.18-.24.01-.27.26-.45.16-.74m-1.29-1.29c1.01 0 0 .51 0 0m-.49 3.82c-.3.03-.49-.3-.81-.25v-.98c.12 0 .37-.12.46.02.09.13-.05.32.1.44.16.12.4.06.57.04-.25.33.3.71-.32.73m-.16-4.13c.26 0 .48-.14.48.31h-.64c-.03-.17.03-.27.16-.31m-.97-2.46c.36.1-.03.67.31.69.57.04.39.25.5.78-.44-.06-1.04.62-1.25-.15-.15-.58-.16-1.24.44-1.32m-.48 13.3c.12-.1 1.23-1.06.5-1.04-.54.01-.71-.27-.05-.26.41 0 .99-.14.9.64-.08.69-.95.64-1.35.66m1.61-1.29c-1.14-.89 2.04-1.78 2.42-1.78-.15.2.62.2.71.25.21.1.08.33.02.51-.1.3-.23.25-.47.26-.4.02-.13.4-.29.49-.19.1-.46.04-.65.02-.51-.03-1.31-.21-1.74.25m1.78 0h.64c-.24.28.24.53-.32.5-.56.02-.08-.22-.32-.5m-.81 3.39c.23.03.24.34.04.46-.2.12-.46.02-.67.03-.32.02-.91.16-1.16-.19.61-.1 1.2-.17 1.79-.3m-3.23-.31c.48 0 1.29-.33 1.29.5-.26.02-1.16-.22-1.29.18.65.07 1.27.38 1.94.31v.56c-.37-.06-.59.25-.94.31-.53.08-.26-.32-.33-.68-.05-.24-.54-.26-.65-.11-.18.24.17.49-.3.49-.15 0-1.82.07-1.12-.56.28-.27 1.52-.38 1.4-1m-1.29 6.65c0-.63 1.38.12 0 0m3.23-2.83c-.19-.55.17-1.08-.54-.88-.43.11-1.39-.1-1.39.64.15-.02.31-.04.46-.01.14.03.33.26.1.32-.4.1-.8-.08-1.21-.05.17-.29-.6-.26-.7-.39-.23-.31-.12-.56.15-.62.61-.15 1.23.02 1.84.03 0-.29-.1-.87.26-.84.51.04 1.03.04 1.54.04.71 0 0 .98.37 1.06.4.08.34.09.57.48-.5-.09-.95.29-1.45.22m.81 1.91c.03-.09.39-.06.65-.06.34.22-.83.27-.65.06zm2.9-3.15c-.56-.31-1.17-.33-1.77-.31-.04-.22.29-.25.16-.49.16.02.31.05.47.01.26-.06.09-.32.25-.46.32-.26.86-.04 1.21-.04-.24.23.77.23.83.32 0 0-1.46.22-1.48.35.3.35 1.29-.37 1.29.37-.35-.05-.61.27-.96.25m.97-6.96c0-.44.51-.25.81-.25 0 .45-.51.25-.81.25m.16 4.38c0-.64 1.04.12 0 0m-.16 5.66c.04-.22-.07-.46.16-.55.17 0 .44-.12.6.03.49.45-.64.54-.76.52m.81-11.7c.36-.06 1.12-.79.4-.9-.34-.05-.64-.18-.96-.32-.37-.16-.9-.02-.9-.53 0-.97.3-.63.87-.47.29.08 1.84.3 1.87-.29.04-.74-.07-.63-.51-.68-.2-.02-.17-.41-.02-.5.23-.14.54-.05.78-.03.71.07.32.36.39 1h1.29c.15.32.56.29.8.31-.5.85 2.54.67 2.59.86-.32.29-.81.15-1.18.14-.52-.01-1.04-.06-1.57-.01.15-.19-1.18-.25-1.3-.31-.08-.04.05-.31-.03-.39-.29-.3-.45.29-.51.54-.05.2.01.75-.11.9-.13.18-.49-.07-.6.14-.05.1.64.23.65.22-.04.08-.83.28-.68.44-.1-.01-1.29-.06-1.27-.12m5.32 6.53c-.14-.48-.86-.28-1.15-.25-.36.03.03.14-.14.28-.16.14-.46-.03-.64-.03.33-.41-.54-.48-.65-.68.23-.26.72-.11 1-.08.3.04.4.29.69.11.21-.13.54.21.81.15.12-.03.1-.17.09-.29-.03-.35-.41-.19-.66-.19.1-.29-.15-.47-.16-.74.24-.09 1.56-.35 1.56.19 0 .19-.01.36.16.43.42.14.38.02.38.63 0 .46-.13.26-.44.34-.27.06-.55.17-.85.13m-.8 1.42c-.03-.13.58-.03.81-.06.36.24-1 .27-.81.06zm-3.23-5.48c.4.05.83-.22 1.24-.23.36 0 .55.14.98-.04.1-.04.31-.11.37-.24.07-.16.97-.05 1.16-.05.33 0 .32.24.3.58-.03.38-.32.19-.59.17-.2-.02-.42-.03-.61.07-.24.12-.14.42-.31.6-.42.45-.34-.28-.65-.35-.41-.09-.83-.02-1.25-.02.1.36-.47.31-.58.19-.12-.14.02-.5-.06-.68m1.29.98c0 .45-.19.32-.52.33-.17 0-.69.07-.77-.2.42-.13.86-.12 1.29-.13m.65 1.29c0 .49-.66.2-.66.16.04-.26.52-.17.66-.16m2.74-.49c0-.63 1.38.12 0 0m.65-1.29v-.49h.81v.49h-.81m.64 8.99c.11 0 .66-.09.69.1.04.23-.69.35-.69-.1m-.48-11.95c-.04.15.49.15.54.22-.06-.09-.56.41-.6.47-.2.27-.01.57-.13.84-.1.24-.83.18-.99.19-.4.02-.29-.08-.25-.47.04-.39-.3-.44-.5-.32-.15.1-.71.43-.83.07s-.05-.43-.43-.41c-.27.02-1.55.45-1.66-.05.46-.35 1.06-.18 1.56-.15.25.02.51.03.76.03.29 0 .33-.18.61-.24.2-.04.41-.06.61-.07.33-.01.39-.08.63-.2.16-.08.81-.18.5-.54h1.45c-.16.62-.99.16-1.27.63m-6.14 1.66h.65c-.19.32.54.25.65.25 0 .57-.82.32-1.14.3-.66-.04.01-.2-.16-.55m-.16 5.42c.13-.32.21-.68.16-1.05.67 0 1.31-.03 1.88.5.51.48-.34.55-.54.55h-1.5m2.1.99c.2-.16-.51-.31-.52-.39 0-.03 1.9.24 1.99.46.08.21-1.4-.07-1.47-.07m2.74 7.7h-1.45c-.12-.45-.03-.58-.54-.51-.34.05.14-.31.05-.48.34 0 .73-.16 1.07.01.17.09.14.35.31.45.17.09.38.05.55.03.01.17.01.34.01.5m0-3.08c0-.62-.05-.42-.48-.56-.3-.11-.57-.15-.87-.22-.34-.08.11-.53.05-.76.18.02.5.1.65-.09.25-.34-.38-.64.26-.64.24 0 .71-.13.94-.02.16.09.14.64-.08.61-.15-.02-.4-.24-.5.01.08-.23 1.31.96 1.33.87-.06.22-.49-.03-.54.13-.02.06.62.18.69.18-.04.23.01.51-.23.55-.4.06-.81-.09-1.22-.06m2.59 7.95c-.11-.23.25-.28.81-.25.2.27-.41.39-.81.25zm1.77-2.04c-.28-.17-.79-.05-.97-.43.42-.13.86-.12 1.29-.12-.24.29.26.57-.32.55m1.94-1.54c-.35-.04-.01-.28-.16-.49.13.01.62.14.68-.08-.03.13-.8-.42-.87-.5-.37-.44-.36.09-.53.38-.28.49-1.13-.08-1.45-.2-.32-.12-.47.08-.78.13-.36.07-.73.05-1.09.03v.49c-.31-.04-.45.01-.67.27-.12.15-.39.43-.57.25-.29-.28-.12-.94-.21-1.32.3.01 1.53-.16 1.45-.66-.06-.36.15-.31.38-.33.28-.01.26-.25.26-.55-.1.01-.73.12-.7-.17.03-.27.63 0 .7.06.43.33.37-.14.63-.17.4-.04.51.23.86.3.36.07.72 0 1.08-.02v.8h.64c-.27.56 1.23.44.81 1.05.31.04 1.06-.31 1.29.06-.08-.17-1.55.59-1.75.67m-2.91-3.57h.65c-.24.27.24.53-.32.49-.56.04-.09-.21-.33-.49m1.94-7.45c.56-.08.81.14.81-.74.16.02.8.12.65-.31.29-.02.58-.03.85-.14.27-.11.43-.35.71-.41.56-.1 1.1.06 1.66.06-.03.35-.89.35-.65.8-.13-.02-.58-.1-.48.25-.23.03-1.04-.23-.8.4 0 .33-.07.38-.31.35-.6-.07-1.25.17-1.85.24-.1.01-1.35-.03-1.21-.18.06-.08.88-.08.62-.32m4.84 1.36c0 .7.46.17.61.68.11.38 0 .51-.26.58-.36.1-1.4.19-1.15.95-.35-.02-1.01.71-1.3.21-.14-.24.33-.21.38-.21.26-.01.28-.19.28-.49-.15.02-.66.15-.66-.19 0-.48-.37-.3-.63-.3.12-.28-.36-.48.11-.56.24-.04.42-.04.59.14.18.19 1.29 0 1.24-.38h-1.29c.29-.29-.69-.23-.65-.36.09-.26.72-.13.87-.13.41.01.59-.3.97-.42.52-.16 1.09-.29.74-1.12.38.05.64-.15 1-.23.07-.02.31-.07.3.13-.02.22-.36.17-.47.26-.57.4.28 1.26-.68 1.44m-3.87-.07c-.32-.19-.61-.29-.97-.25 0-.61 1.14-.3 1.45-.3-.14.42-.01.58-.48.55m-.16 3.08c.15.01.77.09.65-.31.35 0 .86-.13 1.19.03.22.1.1.57.1.77-.11-.01-.84-.07-.65.24H71.6c.02-.26.27-.44.17-.73m1.29 2.65c.03-.09.39-.06.65-.07.34.23-.83.28-.65.07zm-2.58.18h.48c0 .36.69.29.69.3-.04.1-.74.23-.53.44h-.81c-.05-.27.06-.51.17-.74m3.55 8.44c-.58.02-.08-.26-.32-.55h.64c-.25.29.26.57-.32.55m1.77-.98c-.51-.02-1.45.35-1.45-.56.28.04 1.9-.66 1.45.56m.16-3.15c-.34-.12-.04-.47-.16-.74.54.01.84.64.16.74m.49-5.1c0-.47.13-.52.46-.5.31.02.1.22.36.26.14.02.37-.07.49.04.11.11-1.2.18-1.31.2M77.74 33c-.33 0-.65.19-.65-.31.34 0 .65-.19.65.31m.64 4.86c.16.27-.29.26-.39.26-.08.03-.26.09-.27-.1-.02-.3.49-.16.66-.16m-.64 5.36c0-.63 1.38.12 0 0m.81-4.12c.05-.26-.45-.62.14-.5.34.06.79.09.99.5h-1.13m1.29-.74c0-.28.53-.44.54-.37-.06-.4-.82.17-.72-.35.04-.22.14-.53.35-.55.08-.01.65.02.48-.27.15-.01 1.43-.08 1.29-.25h.65c-.27.26.66.23.68.34.01.09-1.25.46-1.32.46.28.42-.47.55-.65.61.08.03 1.36.25 1.35.27-.07.09-.93.11-.7.35H80.5c.17-.32-.56-.25-.66-.24m4.04-5.92c.34-.03.68.05 1.03.06.11.01.5.18.24.4-.13.1-1.48.06-1.48-.02-.01-.16.33-.19.21-.44m0 4.38h.64v1.04c-.13-.02-1.48.01-1.45-.12.27-.12 1.08-.35.81-.92m-2.1-3.88c0-.63 1.38.12 0 0m.64-.5c0-.62 1.38.12 0 0m-1.45 7.46c.1-.35-.35-.26-.48-.25 0-.4.72-.39.65-.5.25 0 1.96.35 1.94.74-.71.01-1.41.01-2.11.01m.81 1.29c0-.63 1.38.12 0 0m-1.3 4.86v-.49c.43.03.86-.09 1.29-.06-.16.22.09.56-.05.74-.28.34-.91-.24-1.24-.19m1.3.37c.03-.09.39-.06.65-.06.33.23-.83.28-.65.06zm2.74 1.18h-2.13c-.5 0-.61.1-.61-.49h2.13c.49-.01.61-.11.61.49m-.64-9.24c0-.64 1.37.11 0 0m0-1.79c-.47-.32 1.21-.35 1.13-.12-.24.09-.64.13-1.13.12zm1.93-1.79c-.1-.01-1.37 0-1.31-.09.19-.27 1.03-.14 1.31-.16v.25m1.61 7.64a.556.556 0 0 1-.32-.49h.65c-.24.28.24.52-.33.49m-.96-7.7c0-.44-.12-.49.3-.49.24 0 .48.01.72-.01.29-.02.73-.17.99.06.39.35-.25.56-.44.55-.53-.04-1.05-.09-1.57-.11m2.09 11.52c-.41.33-1.01.02-1.45.06v-.49h.81c-.28.26.78.25.64.43m4.36 1.11c-.61-.02-.07-.4-.32-.74h.64c-.25.34.3.72-.32.74m.97-2.34c-.61 0-1.77.18-1.26-1.1.16-.41.35-.06.49.05.21.17.54.07.77.06v.99m0-3.39c-.51.02-.86.28-1.36.13-.61-.18-1.25-.07-1.87-.07v-.49h2.58c-.27.27.79.25.65.43m.65-6.84c-.5-.04-.99 0-1.49.01-.33.01-.82.16-1.09-.14.03-.17.9-.15.65-.43h2.58c.22.34-.65.31-.65.56m1.77-1.84c-.54 0-1.02-.4-1.58-.41-.54-.01-.78-.23-1.26-.41-.56-.21-.64.01-.9-.64-.17-.44-.85-.37-1.17-.36-.45.02-.57.03-.89-.34-.22-.25-.67-.12-.94-.12h-.52c-.12.14.13.33-.02.45-.11.09-.36.09-.46-.03-.24-.3-.49-.01-.76.03-.09.01-.89.05-.71.28-.22.02-1.17-.2-1.27.13-.11.37.15.34-.28.36-.34.01-.69.09-1.03.07.24-.29-1.15-.23-1.22-.27-.16-.07-.21-.28-.23-.47a.757.757 0 0 1-.5-.13c-.3-.19-.62-.18-.95-.2-.33-.02-.49.15-.49.58-.54-.02-1.08.05-1.61-.04-.9-.15.83-.34.82-.34.02-.24-1.02-.1-1.15-.11.14.18-.86.1-.99.03-.85-.43-1.64-.63-2.56-.59.3-.3-.61-.27-.65-.43-.04-.14.94-.1.65-.37.85.07 1.57-.28 2.39-.07.21.05 1.64.24 1.69.56.02.13-.58.01-.56.13.05.37 1.36.21 1.56.2.34-.01.68-.03 1.03-.03.28 0 .56-.01.84 0 .09.25.32.36.51.41.55.16 1.11-.22 1.67-.33.39-.07 1.26.61 1.7.1-.16-.16-.96-.3-.65-.74-.16 0-.49.14-.61-.06-.16-.27.06-.49.26-.47.24.03.49.13.74.13s.52-.53.42-.83c.79-.04.48-.83.47-1.63 0-.3 0-.95.33-1 .25-.03.32-.1.32-.45-.6-.03-1.19-.1-1.79-.23-.64-.14-1.19-.39-1.85-.26-.55.12-1.02.49-1.57.49-.68 0-.77.07-.77-.74-.64.03-1.41.08-2.04-.08-.28-.07-.56-.34-.87-.42-.38-.09-.39.14-.68.18-.36.05-.73.01-1.09.01.21.67-.13 1.05.65 1.05 0-.67.21-.53.67-.57.38-.03.88.08 1.22.33.32.24-.58.22-.6.25-.11.13.21.39.27.43.21.17.77.04 1.03.04-.1.29.15.47.16.74-.39.06-.81-.26-1.17-.14-.49.17-.1.47.22.44.34-.04.47.41.71.67.52.56-.02.82-.44.86-.53.05-.93.26-1.43.44-.56.21-1.19.07-1.77.07-.38 0-2.5.25-2.24 1.23-.65-.03-1.29.06-1.94.06.02-.22.79-.51.66-.68-.22-.25-.82-.14-1.09-.14-.33.01-.47.31-.76.23-.71-.21-1.47-.33-2.2-.15 0 .43.45.25.65.25 0 .25-.13.74.04.94.14.16.54-.13.63.1.04.11-.99.18-.67.75-.16-.02-.33-.07-.5-.04-.27.05-.19.35-.37.48-.59.42-.34-.72-.42-.99.4.02.43-.13.64-.49-1.39-.07.01-.31 0-.34-.06-.17-.54-.16-.64-.16.1-.18-.17-.31-.15-.47.01-.13 1.13.02.72-.32-.15-.12-.66-.26-.73-.44.25-.21.63-.14.91-.1.13.02.25.03.38.04.24.02.15.18.36.24.26.08.65-.19.89-.3.5-.21.99-.43 1.49-.62-1.1-.38-2.26-.09-3.39-.12.27-.27-.49-.21-.49-.34.01-.11.91-.67 1.01-.66 1.01.03 2.02 0 3.03.02-.84 1.26 1.63.99 2 .99.53 0 1 .04 1.51.19.21.06.84.29 1.01.03.18-.28.08-1.08-.31-.94-.43.15-.47.42-.92-.01-.76-.73-1.74-.77-2.65-.75.15-.43-.49-.32-.65-.31-.02-.47-.06-.89-.49-.96-.74-.11-1.51-.05-2.25-.09.29-.27-.69-.23-.65-.37.6-.18 1.2-.04 1.8-.13.21-.03.28-.21.23-.47-.07-.34-.25-.24-.46-.24-.21.01-.25-.14-.4-.26-.15-.14-.49-.05-.66-.03-.51.06-.79.36-.52 1.01-.45.06-.84-.31-1.29-.25v-.74c.16.01.32.03.47-.01.34-.09-.02-.34.01-.55h5.49c-.21.28.7.25.8.25-.18.31.81.24.51.57.72.01 1.38.48 2.1.5 0-.71-.64-.65-1.12-.76-.23-.06-1.21.17-.94-.43.3-.64.84-.22 1.35-.37.27-.08-.16-.46-.25-.47-.11-.01-.22-.01-.33 0 0-.18-.1-.52.12-.59-.65 0 .08-.69.28-.84.24-.17.26-.35.1-.7-.17-.34-1.05-.23-1.31-.21 0-.26-.09-.8.12-.97.31-.25.84.16 1.17.16-.33-.98 1.08-.73 1.46-.73-.16.21 1.84.24 1.94.31a.314.314 0 0 0-.29.09c-.15.37 1.29.77-.06.87-.31.03-.45.27-.27.68.11.25.79.32.79.57-.04.03-.74.12-.7.18.18.24.93.13 1.18.13-.09-.42.49-.34.66-.26.25.11.02.52.13.75-.48-.04-.84.33-1.29.43.25.1.51.13.77.13.17 0 .34 0 .52-.01-.03-.14 0-.22.11-.24.61-.17.32.16.54.49-.6 0-1.3-.23-1.88.06-.17.09-1.07.34-.86.68-.47-.02-.84.38-1.29.43 1.05.14 2.11.13 3.16.12.09 0 .88-.14.88.1 0 .26.67.17.76.17 2.44.08 4.87-.42 7.31-.28-.34.41.53.48.64.68-.35.04-1.94.03-1.94.62.33 0 2.17.25 1.94-.49.43-.02 1.07-.05 1.35-.55.3-.54.97-.11 1.41-.05.34.05.68.05 1.02.01.36-.04.58.2.88.45.39.34.84.55 1.31.25-.31-.17-.59-.47-.65-.93h1.45v.74c.57 0 1.07.5 1.61.49.47-.01 1.01-.33 1.47-.47.34-.11.31-.36.31-.76.42.05 1.85-.46 2.1.13-.34.15-.72.08-1.08.11-.17.01-.67.37-.28.5.28.09.99-.18 1.2.13.19.3-1.06.74-1.25.84-.62.32-1.34.08-1.98.08.17.22-.21.25-.3.25-.38.02-.65.15-1 .32-.64.31-1.35.43-2.03.56-.23.04-.48.1-.71.1-.21 0-.06-.14-.21-.19-.19-.06-.46.01-.65.01-.44 0-.56-.11-.56.43.15-.01.84-.13.83.21 0 .18-.82.12-.91.11-.17 0-.34-.01-.5-.01-.1 0-.06.25-.25.3a.82.82 0 0 1-.51-.05c-.36-.16.09-.48.05-.75-.43.03-.86-.09-1.29-.06 0-.78 1.1-.52 1.54-.6.34-.06.77-.09 1.04-.39h1.29c-.18.31.49.26.59.25.01 0 .43-.48.57-.55 1.11-.6-1.35-.5-1.64-.5.12-.23-.28-.27-.16-.49-.45.06-.84-.31-1.29-.25.26.45-.44.6-.64.68.09.04.53.03.53.22-.01.28-.63.01-.53.65-.18-.02-1.99.22-1.98.24-.02-.06.49-.3.54-.33.12-.07-.44-.32-.62-.06-.33.47-.93-.16-1.33-.1 0 .36-.2 1.25.25 1.32.58.08 1.09.44 1.65.6.29.08.57 0 .73.29.16.27.47.41.72.5 1.34.52 2.52.61 3.91.61-.09.39.28.66.16 1.05.23-.01.39.07.55.28.22.3.57.26.87.36.29.1.79.44 1.09.32.24-.1.46-.25.68-.39.18-.11.42-.29.62-.27.17.01.22.32.37.39.57.3 1.16-.39 1.16.6.27-.03.46.11.71.22.29.12.5-.1.62.23.22.58 1.03.3 1.41.3-.21.41.91.31.65.74.16-.03.37-.1.52.02.19.14.16.29.42.31.3.02.29-.26.5-.28.33-.03.68.12 1 .2.09.02.2.06.3.05 0 .1.07.4-.04.46-.28.17-1.34.12-1.45-.13-.13-.31-.79-.29-1.03-.31-.59-.04-.98-.15-1.56-.36-.42-.15-.77-.05-.77-.7-.08.01-1.39-.01-1.3.18.08.17.69.07.81.07 0 .91.78.37 1.13 1.05-.74.02-2.06-.74-2.75-.19.27.74.02.65-.56.86-.64.24-1.37-.21-2.03-.19.1.37-.51.35-.63.17-.07-.11-.06-.21-.09-.33-.05-.2-.38-.08-.49-.12-.23-.08.04-.66-.21-.87-.41-.31-.49.19-.86.13m-15.82-6.9c0-.64 1.05.12 0 0m2.59 1.3c-.19-.02-1.32.19-1.34-.23 0-.18 1.3-.01 1.34-.02v.25m.64.24c0 .39-.29.26-.56.29-.04.01-.81-.03-.74-.13.18-.27 1.03-.14 1.3-.16m16.95-1.3c0-.63 1.38.12 0 0m-.16 1.71c-.51.04-.72-.07-.65-.32.45-.25 1.15.09.65.32zm-5.33 23.17c0 .5-.66.17-.66.16.04-.26.52-.16.66-.16m-1.29 9.49c0-.63 1.38.12 0 0m.81-5.91c-.31-.5.8-.48.48-.98.36.06 1.45-.78 1.45.12 0 .57-.43.37-.73.36-.04 0-.72.08-.67.17.09.13.68-.01.61.25-.08.35-.94.07-1.14.08m.48 4.44h.8c-.19.43.54.5.66.77.17.41-.54.08-.65.03-.32-.17-.59-.46-.81-.8m1.45 5.35c0-.64 1.05.12 0 0m0-25.07c.85-.22 1.72-.02 2.58-.06 0 .15.09.44-.09.48-.38.09-.82.01-1.2.01.18-.22-1.27-.26-1.29-.43m5.98 32.34c.03-.09.39-.06.65-.07.34.23-.83.29-.65.07zm.8-8.56c0-.64 1.05.12 0 0m-1.45-.74c-.03-.4-.56-.44-.79-.49-.13-.02-.25.01-.38-.03-.28-.06-.02-.29-.14-.47-.17-.25-.99.01-1.24-.04-.24-.05-.4-.29-.63-.38-.28-.11-.57-.12-.86-.14 0-.5 1.11-.59 1.4-.67.37-.1.54.11.88.19.33.08.68.02 1.01-.02.25-.03.5-.08.75-.05-.08.16.27.23.33.24.17.04 1.05-.01 1.13.25.08.28 1.26-.33 1.4-.37a6.01 6.01 0 0 1 1.58-.15c.22.01.27.19.47.25.21.06.45.05.66.04.4-.02 1.23-.22 1.53.23-.02-.26 1.13-.2.97-.49h1.29c-.3.3.61.27.65.43-.19.05-1.03.51-.54.81.25.16.59.06.86.04.39-.03.79.09 1.17.17.73.14 1.4.25 2.12.49.44.14 1.23-.15 1.23.65-.28 0-.68.09-.82-.13-.17-.28-.76-.22-1-.22-.31.01-.62.05-.93.04-.07-.21-.4-.21-.55-.23-.5-.05-1.02.06-1.5-.15-.3-.13-.75-.58-1.08-.49-.37.1-.69.15-1.07.14-.12 0-.41-.13-.46.09.03.27-.07.34-.31.19-.29-.02-.59-.03-.88-.03-.66.01-1.39.18-2.05.05-.14-.03-.16-.19-.16-.34-.01-.33-.26-.23-.5-.31-.31-.1-1.2-.55-1.44-.09.48.31 1.29.18 1.29.99h-3.39m4.03 7.02c.03-.09.39-.06.65-.06.35.22-.82.27-.65.06zm-.8 2.03c.27-.1 2.1.14 2.1-.31-.26.02-.52-.02-.77-.04-.33-.04-.55.13-.54-.36.01-.29 1.13-.15 1.31-.15-.13.22.23.24.32.25.38.04.26.07.37.47.11.37.52.27.74.15.32-.19.52.16.85.19.49.05 4.24.59 3.85 1.77.45-.06.84.31 1.29.25 0 .29.21 2.34-.2 2.34-.29 0-.45-.04-.45.4 0 .52.37.34.64.34-.19.54.32 1.29-.14 1.72-.27.26-.89-.18-1.22-.23-.25-.03-.39-.28-.6-.44-.25-.19-.64-.09-.62-.49.01-.16.03-.25.16-.26.34-.03.31-.26.48-.55-.5 0-.71.03-.74-.67-.02-.4-.44-.25-.53-.57-.11-.36 0-.76-.18-1.1.2-.01.84.12.62-.43-.11-.28-.5.17-.6-.15-.18-.55.07-.51-.37-.7-.24-.11-.17-.29-.3-.5-.34-.02-.66-.17-.99-.31-1-.41-2.19-.01-3.12-.34-.12-.05-1.38-.25-1.36-.28m-.49 1.73c.52 0 1.04.04 1.56.03.26-.01.52-.03.77-.09.44-.1.1-.13.33-.42.19-.23.69-.08.92-.08.33.01.38.16.45.55-1.42.07.06.24.05.32-.01.52-1.96-.35-1.51.91h-1.93c.19-.31-.54-.26-.65-.25.28-.42-.47-.55-.64-.62-.04-.13.95-.08.65-.35m-25.01 3.88c.26-.18 1.45-.19 1.45.19-.15-.02-1.59.01-1.45-.19m.64.8c-.03-.13.57-.03.81-.06.37.24-.99.27-.81.06zm2.91-4.93h1.29c-.34.37-.88.5-1.32.49-.23 0 .12-.3.03-.49m2.58 5.5c.53.02.48-.37.84-.68.57-.49.33.35.45.6-.1-.01-.83-.07-.64.24-.07-.01-.78.03-.65-.16m.81 1.89c0-.79.59-.49 1.13-.49-.13.24.2.27.16.49h-1.29m2.09-3.02c-.34-.06-.04-.41-.16-.64h1.29c-.09.53-.8.55-1.13.64m3.88 1.79c.11 0 .66-.1.69.09.04.25-.69.36-.69-.09m1.94 5.6h-3.39c.09.4-.48.48-.57.19-.12-.38.24-.78.09-1.15.32 0 .59.18.9.25.46.11.94.07 1.4.02.69-.07 1.61-.34 2.22.21-.15.05-.87.09-.65.48m1.77-6.4c-.23-.01-.76-.46-.28-.57.51-.11.9.6.28.57m2.26 6.07c-.63 0-1.29.32-1.29-.64.63 0 1.29-.32 1.29.64m.16-4.04c-.32-.18-.09-.55-.16-.85-.07-.29-.49-.14-.65-.14.19-.3-.12-.62.47-.51.22.04.2.15.16.36-.05.25.38.1.5.14.32.09.3.68.72.46.16-.09.17-.31.32-.4.19-.13.41.09.56-.18.17-.29.65.09.9.09.3 0 .86-.14 1.1.18.46.62-.81.64-.68.85h-1.2c-.17 0-.82-.13-.96.01.4-.39-1.03 0-1.08-.01" />
</svg>