<svg xmlns="http://www.w3.org/2000/svg" xml:space="preserve" viewBox="0 0 262.24 451.04">
    <title>Leeds Beckett University</title>
    <path
        d="M59.73 145.37c-5.59-8.84-7.78-15.66-11.99-24.88-2.1-4.53-3.45-4.53-3.45-4.53-1.01.44.91 46.11 34.54 67.37 19.96 12.57 43.33 18.01 68.89 13.71 28.88-4.79 54.52-19.08 63.84-43.69.51-1.32.94-3.97-.81-1.98-.67.76-.39.34-1.27 1.42-8.89 10.73-19.63 17.5-28.13 21.34-8.74 3.94-33.31 14.63-35.64 2.61-1.3-6.45 7.72-8.89 18.54-14 15.38-7.27 24.82-19.05 31-30.71 8.16-15.51 6.86-34.29 5.77-37-.66-1.65-2.43 3.95-2.85 6.42-4.36 27.11-23.43 48.01-49.96 52.42a59.145 59.145 0 0 1-18.1.18c-1.52-.23-2.08-1.85-1.13-2.6 3.61-2.69 5.59-7.18 4.79-11.89-1.11-6.72-7.48-11.24-14.12-10.12-6.23 1.02-10.66 7.47-10.58 13.54.05 2.78-2.56 3.4-5.45 1.03-14.81-11.97-27.48-32.21-25.51-65.91.25-4.3.96-13.38-.34-12.37-2.27 1.85-6.73 18.8-6.85 35.91-.18 29.89 22.18 56.2 15.89 62.29-7.51 7.38-21.73-10.09-27.08-18.56z" />
    <path
        d="M92.64 251.84c22.38 12.2 34.93 14.6 60.07 11.02 17.28-2.43 30.95-15.2 29.11-14.9-1.53.24-20.05 6.53-34.52 6.84 6.36-2.08 10.72-4.55 16.17-7.64 8.54-4.78 13.06-11.97 12.64-12.26-1.71-.95-19.34 8-35.15 11.76-.42.11-.82.23-1.27.37-12.96 3.6-22.65.25-29.48-4.99-.98-.85-.26-2.55 1.99-2.46 8 .32 14.74-4.69 14.93-11.17.23-6.45-6.13-11.95-14.15-12.28-5.67-.19-10.66 2.16-13.17 5.86-.83 1.1-2.14-.44-2.44-1.13-4.3-10.38-8.86-25.56-34.22-28.98-28.94-3.92-34.98-18.21-37.3-26.16-2.16-8.42-4.52-32.73-4.54-32.75-1.34-12.74-2.45-19.59-3.27-18.77-1.26 1.2-3.84 13.57-4.03 20.96-.15 7.35-.95 22.71 1.95 37.98-6.35-14.36-6.75-20.13-8.48-27.88-1.69-7.75-3.39-20.7-4.78-19.42-1.39 1.24-2.6 11.55-2.64 14.87-1.02 41.23 7.66 65.23 48.05 77.51 18.19 5.59 30.11 25.79 44.53 33.62zM8.08 78.99c-.01.02-.01.04-.02.06.06-.17.12-.33.21-.49-.08.17-.14.27-.19.43zM7.84 79.67c.1-.24.15-.44.22-.61-.07.2-.14.4-.22.61zM8.78 105.17c1.5-4.41 2.63-11.68 4.66-17.85 1.98-6.2 5.46-14.06 10.43-18.09 0 0 1.96-1.13 1.77.03-1.31 6.42 1.03 13.05 5.9 13.43 7.87.58 10-5.45 11.56-11.58.26-.84.9-.91.56 1.31-.56 3.45-1.82 11.76-1.87 12.48-.58 10.78 2.08 24 3.71 22.44 1.56-1.39 2.93-17.32 3.73-22.32.85-5.45 5.75-15.97 8.5-19.82 11.14-15.87 14.96-15.59 35.14-26.24 18.38-9.76 21.33-26.15 39.11-23.09.53.1.99.37 1.38.49 8.14 3.15 13.53 15.03 20.75 21.28 6.38 5.55 26.31 8.32 28.96 8.32 7.21-.27 1.27-2.39-.87-3.49-6.64-3.34-17.35-9.6-19.52-10.91-4.82-3-6.31-11.67-14.48-19.22 5.51 3.12 10.45 7.79 15.42 9.88 12.41 5.21 26.79 2.95 29.06 2.43 2.61-.65-3.19-2.23-5.85-2.58-7.65-1.02-17.87-6.43-23.34-11.59C153.54.92 138.09-.85 122.16.34c-14.2 1.06-28.29 3.53-45.63 19.95C63.9 32.2 41.69 32.98 28.46 45.86 13.59 60.37 9.06 78.06 8.05 82.57c-2.4 10.55-.07 24.7.73 22.6z" />
    <path
        d="M135.8 115.32c-6.17.73-11.37 1.89-12.53 2.72-.01.13-.08.24-.11.37 0 .07 0 .07-.04.08.48 1.64 13.05 3.66 27.54 1.96 23.38-2.74 33.33-20.72 29.75-44.36-1.59-10.66-4.11-15.98-8.89-20.87-7.27-7.5-15.5-5.28-22.02-7.24-9.28-2.78-10.09-8.78-21.76-6.59-15.17 2.78-24.12 10.49-29.06 24.14-8.05 22.27 7.03 39.9 8.17 38.01.36-.53-.75-2.33-1.96-8.34-2-10.59 1.21-21.26 4.23-26.08 4.84-8.74 13.44-13.42 23.39-13.58 3.13-.09 3.58 5.25 2 9-3.04 7.13-.46 15.09 5.69 17.75 6.14 2.71 13.56-.89 16.57-7.99.81-1.89 1.01-2.29 1.08-4.18 0-1.64 2.2-2.09 3.44-.6 6.47 9.8 9.19 23-.81 35.46-4.39 5.19-11.67 8.83-24.68 10.34z" />
    <path
        d="M238.24 81.52c.64 2.81-.36 4.36-1.02 2.61-.86-2.08-2.12-4.28-3.66-6.45-5.01-6.93-11.64-10.67-14.67-8.41-3.06 2.29-1.51 9.73 3.45 16.68.6.71 1.13 1.39 1.67 2.06 2.11 2.47.84 2.91-1.84.72-3.28-2.71-6.33-5.91-8.75-8.34-4.02-4.57-27.69-27.93-28.55-27.02 0 0-1.58 1.41 1.76 7.7 1.83 3.35 4.73 7.48 10.95 15.99 4.59 6.22 23.11 28.58 26.68 40.87 5.14 17.59 5.73 39.84-22.43 73.13-13.88 16.39-35.43 24.99-56.7 23.4-2.33-.14-12.71-.94-2.54 3.55 9.53 4.2 26.23 2.04 26.26 2.04 41.69-5.64 60.51-35.36 62.03-36.09 4.53-2.22-1.63 19.57-21.56 43.68-4.55 6.03-8.69 10.58-14.51 16.23-7.5 7.22 1.31 3.31 1.73 3.08 48.97-27.38 73.41-78.34 63.54-134.26-7.98-45.36-36.99-76.19-43.48-82.16-6.49-5.98-14.43-10.6-15.92-9.93-.19.08-.24.19-.24.41.17 1.33 16.16 15.88 23.67 28.4 3.7 6.14 11.3 19.41 14.13 32.11z" />
    <path
        d="M109.65 320.75c-11.15-34.48-43.73-66.19-79.91-85.08l-4.89-.47c35.06 27.62 65.3 66.72 65.63 108.7-21.57 30.08-35.83 66.14-42.4 107.14h20.16c16.51-96.95 81.04-176.56 184.82-198.5l.59-3.61c-60.86 10.45-109.16 35.29-144 71.82z" />
</svg>