<svg xmlns="http://www.w3.org/2000/svg" xml:space="preserve" viewBox="0 0 195 130">
	<title>Lek en Linge logo</title>
	<path
		d="M84.29 0c6.76.15 13.12 2.22 18.19 6.85 6.06 4.82 8.13 12.56 12.12 18.87 2.47 4.22 5.94 7.8 9.28 11.33-3.49.06-6.15-.02-9.23 0-5.19-7.76-8.68-16.54-14.23-24.08-3.83-4.71-10.8-5.52-16.13-7.77V0zM111.775 9.751c6.558 0 .025-.012 6.546 0 2.717 5.733 5.458 11.932 10.127 16.39 3.606 3.529 8.472 5.219 12.856 7.559 6.472 3.197 12.832 7.142 17.142 13.058 5.002 5.99 5.533 14.063 6.46 21.487-5.262 0 .061.049-5.237-.012-1.519-5.476-1.68-11.332-4.866-16.183-2-2.854-4.211-5.635-7.04-7.73-7.027-5.28-16.018-7.362-22.687-13.156-6.224-5.843-9.559-13.977-13.301-21.413z" />
	<path
		d="M123.162 9.751c6.373.012-.074-.049 6.397 0 5.904 10.645 17.822 15.631 27.517 22.038 6.162 3.87 11.078 9.481 14.388 15.9 3.198 6.383 3.976 13.524 4.57 20.544-5.57.049.036.049-5.57.012-1.347-6.42-1.643-13.059-4.842-18.877-2.112-3.7-4.607-7.265-7.929-10.021-7.126-6.064-16.216-9.138-23.7-14.688-4.94-3.834-7.67-9.702-10.831-14.908zM61.35 69.87c0 9.87-8.06 17.88-18.01 17.88-9.95 0-18.02-8-18.03-17.87v-.01C25.3 60 33.37 52 43.32 51.99c9.95 0 18.02 8 18.03 17.87v.01zM103.95 69.87c0 9.87-8.06 17.88-18.01 17.88-9.95 0-18.02-8-18.03-17.87v-.01C67.9 60 75.97 52 85.92 51.99c9.95 0 18.02 8 18.03 17.87v.01zM103.95 30.87c0 9.87-8.06 17.88-18.01 17.88-9.95 0-18.02-8-18.03-17.87v-.01C67.9 21 75.97 13 85.92 12.99c9.95 0 18.02 8 18.03 17.87v.01zM103.95 112.12c0 9.87-8.06 17.88-18.01 17.88s-18.02-8-18.03-17.87v-.01c0-9.87 8.06-17.88 18.01-17.88 9.95 0 18.02 8 18.03 17.87v.01zM64.644 130.001h-6.55c-2.713-5.737-5.452-12.937-10.139-17.4-3.601-3.525-8.473-5.225-12.852-7.55-6.475-3.2-12.84-7.137-17.132-13.062-5.008-6-5.748-13.063-6.673-20.488h4.798c1.53 5.475 2.344 10.35 5.526 15.2 1.998 2.85 4.206 5.638 7.043 7.725 7.03 5.275 16.01 7.363 22.695 13.15 1.48 1.388 2.787 2.938 3.984 4.575 3.823 5.25 6.438 12.175 9.3 17.85z" />
	<path
		d="M53.247 130.001h-6.402c-5.895-10.637-17.823-16.637-27.517-23.05-6.155-3.875-11.089-9.487-14.395-15.9C1.74 84.676.58 78.526-.013 71.501H5.18c1.357 6.413 2.405 12.05 5.6 17.875 2.11 3.7 4.613 7.263 7.93 10.013 7.13 6.062 16.22 10.437 23.695 15.987 4.946 3.838 7.684 9.413 10.842 14.625zM145.91 67.44H195v4.15h-49.09z" />
	<path
		d="M146.54 69.87c0 9.87-8.06 17.88-18.01 17.88-9.95 0-18.02-8-18.03-17.87v-.01c0-9.87 8.06-17.88 18.01-17.88 9.95 0 18.02 8 18.03 17.87v.01z" />
</svg>