<?xml version="1.0" encoding="utf-8"?>
<svg version="1.1" id="Layer_1" xmlns="http://www.w3.org/2000/svg" xmlns:xlink="http://www.w3.org/1999/xlink" x="0px"
	y="0px" viewBox="0 0 111.8 115.2" style="enable-background:new 0 0 111.8 115.2;" xml:space="preserve">
	<title>Nederlands Jeugdinstituut</title>
	<path d="M15.2,0v45.6H0v58.2h15.2v6.3c0,2.8,2.3,5.1,5.1,5.1h86.5c2.8,0,5.1-2.3,5.1-5.1V0H15.2z M58.8,94.9c0,1.1-0.9,2-2,2H53
	c-1.2,0-2.3-0.7-2.8-1.8L41.2,76c-2.4-5-3.4-8.2-4.4-11.3h-0.1c0.3,2.6,0.8,7.6,0.8,12.9v17.3c0,1.1-0.9,2-2,2h-3c-1.1,0-2-0.9-2-2
	V58.4l-2.3-0.4c-1.1-0.2-1.9-1.2-1.9-2.4V55c0-1.1,0.9-2,2-2H32c0.1-0.1,0.2-0.1,0.3-0.1h3.5c1.2,0,2.3,0.7,2.8,1.8l9.8,20.4
	c1.5,3.2,3.1,7.5,4,10.5h0.1c-0.3-2.8-0.8-7.7-0.8-12V54.9c0-1.1,0.9-2,2-2h3.1c1.1,0,2,0.9,2.1,2V94.9z M77.8,92.2
	c0,5.6-1.3,9.1-4.2,11.6h0c-1.3,1.1-2.8,1.9-4.7,2.7c-1,0.4-2.2,0-2.6-0.9l-0.9-1.8l0,0c-0.5-0.9-0.2-2.2,0.7-2.8
	c2.8-1.9,4.5-3.7,4.5-10.1V58.4l-2.3-0.4c-1.1-0.2-1.9-1.2-1.9-2.4V55c0-1.1,0.9-2,2-2h3.8c0.1-0.1,0.2-0.1,0.3-0.1h3.3
	c1.1,0,2,0.9,2,1.9V92.2z M96.7,94.9c0,1.1-0.9,2-2,2h-3.2v-0.1c-1.1,0-2-0.9-2-2V70.6l-2.3-0.4c-1.1-0.2-1.9-1.2-1.9-2.4v-0.7
	c0-1.1,0.9-2,2-2h7.4c1.1,0,2,0.9,2,2V94.9z M93,60.4c-2.5,0-4.6-2-4.6-4.7s2-4.7,4.6-4.7c2.6,0,4.7,2,4.7,4.7
	C97.7,58.3,95.7,60.4,93,60.4z" />
</svg>