<svg xmlns="http://www.w3.org/2000/svg" xml:space="preserve" viewBox="0 0 111.85 115.2">
	<title>Nederlands Jeugdinstituut</title>
	<path
		d="M0 45.56h15.15v58.22H0zM15.15 0v45.56h89.13v58.22H73.56c-1.26 1.06-2.82 1.94-4.72 2.71-.99.43-2.17 0-2.61-.87l-.92-1.84H15.15v6.33c0 2.79 2.3 5.09 5.09 5.09h86.53c2.79 0 5.09-2.3 5.09-5.09V0H15.15z" />
	<path
		d="M65.3 103.76c-.5-.93-.19-2.23.74-2.85 2.79-1.92 4.53-3.72 4.53-10.06v-32.4l-2.3-.37c-1.12-.19-1.92-1.24-1.92-2.36v-.74c0-1.12.93-1.99 1.99-1.99h3.85c.12-.06.19-.06.31-.06h3.29c1.06 0 1.99.93 1.99 1.92v37.37c0 5.63-1.3 9.11-4.22 11.57h30.72V45.56H15.15v58.22h50.16l-.01-.02zM93.04 51c2.61 0 4.66 2.05 4.66 4.72 0 2.61-2.05 4.66-4.72 4.66-2.54 0-4.59-2.05-4.59-4.66S90.44 51 93.04 51zm-7.75 16.14c0-1.06.87-1.99 1.99-1.99h7.39c1.06 0 1.99.87 1.99 1.99v27.75c0 1.06-.87 1.99-1.99 1.99H91.5v-.06c-1.06 0-1.99-.87-1.99-1.99V70.61l-2.3-.37c-1.06-.19-1.92-1.18-1.92-2.36v-.74zM58.84 94.89c0 1.12-.93 1.99-1.99 1.99H53c-1.18 0-2.3-.74-2.79-1.8l-9.06-19.12c-2.36-5.03-3.41-8.19-4.41-11.3h-.12c.31 2.61.81 7.63.81 12.91v17.32c0 1.12-.93 1.99-1.99 1.99H32.4c-1.12 0-1.99-.93-1.99-1.99V58.45l-2.3-.37c-1.12-.19-1.92-1.24-1.92-2.36v-.74c0-1.12.93-1.99 1.99-1.99h3.85c.12-.06.19-.06.31-.06h3.48c1.18 0 2.3.74 2.79 1.8l9.81 20.36c1.49 3.23 3.1 7.51 4.03 10.49h.06c-.31-2.79-.81-7.7-.81-12.04V54.91c0-1.12.93-1.99 1.99-1.99h3.1c1.06 0 1.99.93 2.05 1.99v39.98z" />
</svg>