<svg xmlns="http://www.w3.org/2000/svg" xml:space="preserve" viewBox="0 0 404.9 142.5">
	<path
		d="M119.4 139.6V3.5H83.2v37.2c0 11.1.2 29.2 1.2 35.2-2.9-5.6-15-23.7-21.2-32.1l-30-40.3H0v136.2h36.2V98c0-11.1-.2-29.2-1.2-35.2 3.5 6 15.2 23.5 21.2 31.9l32.5 44.9h30.7zM404.9 97.8c0-25.5-15.2-36-49.4-44.2-17.5-4.1-22.4-6.4-22.4-11.5 0-4.9 2.7-8.4 14-8.4 13.8 0 25.9 4.7 37.9 12.8l18.3-29.6C388.9 7 372.2 1.3 349.1 1.3c-32.9 0-53.7 17.3-53.7 43 0 27.2 15.8 36.2 48.6 43.8 18.3 4.3 23.1 7.4 23.1 12.4 0 6.4-4.3 8.8-17.7 8.8-12.6 0-30-6.8-39.9-13.6l-18.3 29.6c14.2 9.3 35.4 16.5 57.4 16.5 32.8 0 56.3-12.9 56.3-44z" />
	<path fill-rule="evenodd"
		d="M174.8 71.3c0-19.3 15.6-35 35-35 19.3 0 35 15.7 35 35s-15.7 35-35 35c-19.4-.1-35-15.7-35-35zm-36.3 0c0-39.4 31.9-71.3 71.3-71.3S281 31.9 281 71.3s-31.9 71.3-71.3 71.3-71.2-32-71.2-71.3z"
		clip-rule="evenodd" />
</svg>
