<svg xmlns="http://www.w3.org/2000/svg" xml:space="preserve" viewBox="0 0 170.89 71.38">
	<title>Saint Gobain</title>
	<path
		d="M6.916 61.624c-2.37-.72-3.407-1.175-3.407-2.53 0-1.213 1.615-1.644 2.998-1.644 1.21 0 2.512.36 3.397.939a.86.86 0 0 0 .706.109.87.87 0 0 0 .554-.455l.402-.804a.88.88 0 0 0-.303-1.126c-1.274-.832-3.08-1.347-4.713-1.347-3.437 0-5.744 1.763-5.744 4.388 0 3.412 2.883 4.272 5.193 4.967 2.42.727 3.479 1.193 3.468 2.632 0 1.446-1.704 1.961-3.295 1.961-1.527 0-3.189-.811-4.198-1.742a.92.92 0 0 0-.73-.261.882.882 0 0 0-.653.42l-.466.783a.87.87 0 0 0 .138 1.069c1.496 1.474 3.754 2.391 5.884 2.391 3.599 0 6.019-1.87 6.019-4.639.028-3.51-2.9-4.399-5.25-5.111M22.776 55.32a.878.878 0 0 0-.797-.511h-.953a.872.872 0 0 0-.797.515l-6.714 14.799a.876.876 0 0 0 .797 1.238h.974a.872.872 0 0 0 .798-.515l1.672-3.697h7.532l1.693 3.704c.141.31.455.511.794.511h.973a.876.876 0 0 0 .798-1.238l-6.77-14.806zm-3.842 9.186L21.5 58.82l2.593 5.686h-5.158M33.943 54.811h-.889a.875.875 0 0 0-.875.875v14.8c0 .483.392.874.875.874h.89a.875.875 0 0 0 .874-.875V55.686a.875.875 0 0 0-.875-.875M52.406 54.811h-.867a.872.872 0 0 0-.875.875v10.778l-8.308-11.296a.872.872 0 0 0-.706-.357h-1.037a.875.875 0 0 0-.875.875v14.8c0 .483.392.874.875.874h.889a.875.875 0 0 0 .875-.875V59.712l8.287 11.292a.877.877 0 0 0 .705.356h1.037a.875.875 0 0 0 .875-.875V55.686a.875.875 0 0 0-.875-.875M67.67 54.811H56.787a.875.875 0 0 0-.875.875v.868c0 .48.392.875.875.875h4.124v13.056c0 .484.392.875.875.875h.886a.875.875 0 0 0 .878-.875V57.43h4.12a.875.875 0 0 0 .875-.875v-.868a.875.875 0 0 0-.875-.875M74.18 62.876h-4.724a.875.875 0 0 0-.875.875v.72c0 .483.392.874.875.874h4.724a.875.875 0 0 0 .875-.874v-.72a.877.877 0 0 0-.875-.875M92.567 62.347H89.12a.875.875 0 0 0-.875.875v.89c0 .483.392.874.875.874h1.768v2.706a6.265 6.265 0 0 1-3.528 1.09c-3.267 0-5.92-2.561-5.92-5.708 0-3.136 2.657-5.69 5.92-5.69 1.517 0 3.01.557 4.096 1.534.18.16.416.24.656.223a.88.88 0 0 0 .61-.321l.53-.656a.877.877 0 0 0-.106-1.21 8.77 8.77 0 0 0-5.786-2.163c-4.72 0-8.562 3.715-8.562 8.287 0 4.579 3.82 8.304 8.52 8.304 2.123 0 4.244-.78 5.824-2.138a.884.884 0 0 0 .303-.663v-5.355a.88.88 0 0 0-.878-.879M104.972 54.788c-4.71 0-8.537 3.715-8.537 8.287 0 4.582 3.831 8.304 8.537 8.304s8.541-3.725 8.541-8.304c0-4.572-3.831-8.287-8.54-8.287m0 13.973c-3.243 0-5.881-2.55-5.881-5.686 0-3.126 2.638-5.666 5.88-5.666s5.878 2.54 5.878 5.666c.003 3.136-2.636 5.686-5.878 5.686M127.527 62.616c.89-.765 1.387-1.894 1.387-3.27 0-2.797-2.103-4.537-5.49-4.537h-6.057a.877.877 0 0 0-.875.875v14.8c0 .483.392.874.875.874h6.096c3.877 0 6.188-1.813 6.188-4.854.004-1.718-.776-3.087-2.124-3.888m-4.127-1.093h-4.269V57.43h4.272c1.31 0 2.872.35 2.872 2.025 0 1.37-.967 2.068-2.875 2.068m-4.269 2.614h4.272c1.348 0 3.613.293 3.613 2.258 0 1.936-1.965 2.342-3.613 2.342h-4.272v-4.6M140.393 55.32a.878.878 0 0 0-.798-.511h-.952a.872.872 0 0 0-.797.515l-6.71 14.799a.876.876 0 0 0 .8 1.238h.974a.872.872 0 0 0 .798-.515l1.672-3.697h7.532l1.693 3.704c.141.31.455.511.797.511h.974a.88.88 0 0 0 .737-.402.871.871 0 0 0 .06-.836l-6.78-14.806zm-3.846 9.186 2.565-5.686 2.593 5.686h-5.158M151.56 54.811h-.89a.875.875 0 0 0-.874.875v14.8c0 .483.391.874.875.874h.889a.878.878 0 0 0 .878-.875V55.686a.882.882 0 0 0-.878-.875M170.02 54.811h-.868a.875.875 0 0 0-.875.875v10.778l-8.308-11.296a.867.867 0 0 0-.706-.357h-1.037a.875.875 0 0 0-.875.875v14.8c0 .483.392.874.875.874h.889a.875.875 0 0 0 .875-.875V59.712l8.287 11.292a.877.877 0 0 0 .705.356h1.037a.875.875 0 0 0 .875-.875V55.686a.875.875 0 0 0-.875-.875M96.069 31.59v14.548h-2.678V29.586l2.678 2.004zm51.929 14.499H137.46l-.074-.074-9.267-9.165a1.334 1.334 0 0 0-2.272.949v8.34h-2.752V25.5c0-.367-.151-.72-.42-.97l-7.7-7.271a1.321 1.321 0 0 0-.918-.363h-3.849c-.737 0-1.333.6-1.333 1.333v27.908h-2.73V1.332a1.33 1.33 0 0 0-.83-1.235 1.357 1.357 0 0 0-1.457.297l-12.753 12.94a1.33 1.33 0 0 0-.384.934v9.998L85.5 20.368a1.365 1.365 0 0 0-1.634.028l-11.87 9.518a1.326 1.326 0 0 0-.498 1.04v15.184h-2.692v-8.367c0-2.94-2.025-6.065-5.771-6.065-3.75 0-5.772 3.14-5.772 6.093v8.34h-2.72v-5.677c0-2.3-1.583-4.745-4.519-4.745-2.935 0-4.519 2.449-4.519 4.752v5.67h-2.709v-.251c-.003-1.143-.007-2.61-.007-3.196 0-1.955-1.845-3.67-3.948-3.67-2.102 0-3.947 1.705-3.947 3.652v3.464H23.005a1.335 1.335 0 0 0 0 2.67h13.222c.357 0 .692-.137.942-.39.25-.251.392-.586.392-.943v-4.557c0-.494.536-1.225 1.28-1.225.734 0 1.285.67 1.285 1.267 0 .342.014 4.522.014 4.522.003.734.6 1.33 1.333 1.33l5.376-.003c.734 0 1.334-.6 1.334-1.334v-7.01c0-.719.388-2.084 1.852-2.084s1.852 1.358 1.852 2.078v7.01c0 .737.596 1.333 1.334 1.333l5.387.003a1.34 1.34 0 0 0 1.337-1.333v-9.673c0-1.186.649-3.426 3.104-3.426 2.279 0 3.104 2.032 3.104 3.398v9.704c0 .734.6 1.334 1.334 1.334h5.359c.737 0 1.333-.6 1.333-1.334V31.597l.095-.078 10.47-8.396 5.991 4.473v19.88c0 .733.6 1.333 1.334 1.333h5.348c.733 0 1.333-.6 1.333-1.334V30.923c0-.416-.201-.818-.536-1.069l-4.812-3.595V14.82l.074-.074 10.012-10.16v42.887c0 .734.6 1.333 1.333 1.333h5.401c.734 0 1.334-.6 1.334-1.333V19.56h1.986l.074.07 6.823 6.446v21.4c0 .733.6 1.333 1.333 1.333h5.423c.737 0 1.333-.6 1.333-1.334v-6.48l7.461 7.38c.25.247.586.385.939.385h11.088c.737 0 1.333-.6 1.333-1.334a1.362 1.362 0 0 0-1.351-1.337" />
</svg>