<svg xmlns="http://www.w3.org/2000/svg" class="c-footer__logo" viewBox="0 0 1296 301">
    <title>SETUP logo</title>
    <defs>
        <clipPath id="a">
            <path
                d="M736 3v71.635h-75.299V301H588.3V74.635H513V3h223ZM494 3v71.635l-135.778-.001v45.847H494v71.634H358.222v37.25H494V301H286V57.442h60.666V3H494Zm802-2v245.714h-190.748V301H1033V55.286l60.692-.001V1H1296ZM260 0v71.635l-187.778-.001v45.846h127.111v60.173h57.778v71.635h-57.778V298H0v-71.635h184.888v-37.25H57.778l-.001-60.173H0V57.308l57.777-.001V0H260Zm574.024 301H762V3h72.024v226.365h97.952V3H1004v298h-72.024v-.001l-97.952.001Z" />
        </clipPath>
    </defs>
    <g clip-path="url(#a)">
        <path d="M0 0h1296v301H0V0z" />
    </g>
</svg>