<?xml version="1.0" encoding="UTF-8"?>
<svg xmlns="http://www.w3.org/2000/svg" id="Layer_1" data-name="Layer 1" viewBox="0 0 158.04 42">
    <title>Universiteit</title>
    <path
        d="M101.48,16.36h3.61v.54H105c-1.12,0-1.29.49-1.29,1.16v3.47c0,3.12-2.26,3.7-3.92,3.7-2.51,0-4.1-1.09-4.1-3.22V17.85c0-.7-.19-1-1-1h-.24v-.54h4.37v.54h-.24a.87.87,0,0,0-1,1V22a2.22,2.22,0,0,0,2.52,2.29,2.43,2.43,0,0,0,2.74-2.57V18.34c0-1-.28-1.44-1.15-1.44h-.25Zm10.59,7.41c0,.68.25.82.8.82V25h-3.3v-.45c.58,0,.8-.43.8-1.58V21.8c0-1.12-.31-1.55-.86-1.55a2.66,2.66,0,0,0-1.48.62V23.7c0,.62.26.89.82.89H109V25h-3.53v-.45h.08c.59,0,.79-.25.79-1V20.89c0-.3-.16-.48-.65-.62l-.29-.09v-.33l2.38-.81H108v1.24a5.36,5.36,0,0,1,2.58-1.09c1,0,1.46.73,1.46,2.4ZM116.86,25h-3.49v-.45h.15c.58,0,.78-.25.78-1V20.94c0-.37-.08-.47-.47-.6l-.46-.17v-.34l2.39-.79H116v4.67c0,.57.23.88.85.88Zm-.66-8.22a1,1,0,0,1-1.1.95,1,1,0,0,1-1.12-.95,1.08,1.08,0,0,1,1.12-1,1,1,0,0,1,1.1,1m.81,2.52h3.55v.45h-.49c-.3,0-.42.27-.18.78l1.24,2.78,1.09-2.46c.32-.72.15-1-.83-1.1v-.45h2.78v.45a1.12,1.12,0,0,0-1.17.84l-2,4.5h-.84l-2.07-4.47c-.27-.58-.46-.8-1.08-.87Zm12.78,4.08a3.85,3.85,0,0,1-3,1.77,2.59,2.59,0,0,1-2.56-2.86,3,3,0,0,1,3-3.14,2.41,2.41,0,0,1,1.76.67c.82.82.43,1.6.92,1.86v.4h-3.87a2.06,2.06,0,0,0,1.72,2c.52,0,1-.3,1.7-1ZM128,21.58c0-1.08-.39-1.73-1-1.73s-1.09.74-1,1.73ZM134.54,25h-3.88v-.45h.09c.58,0,.79-.25.79-1V21.34c0-.63-.09-.77-.51-.93l-.37-.16V19.9l2.28-.86h.3V20.6h0c.51-1,.74-1.41,1.21-1.41a1.11,1.11,0,0,1,.28,0l1.1.41a4.94,4.94,0,0,1-.67,1.48,5.12,5.12,0,0,0-1.13-.35c-.28,0-.52.19-.82.63v2.26c0,.66.21.93.93.93h.37Zm2.2-1.65h.45a1.56,1.56,0,0,0,1.45,1.2.69.69,0,0,0,.72-.64c0-1-2.62-1.3-2.62-3,0-1.06.88-1.77,2.19-1.77a4.5,4.5,0,0,1,1.56.29l0,1.5h-.45c-.25-.77-.71-1.19-1.31-1.19a.58.58,0,0,0-.64.53c0,1.14,2.75,1.19,2.75,3.1a1.71,1.71,0,0,1-1.81,1.76,6.07,6.07,0,0,1-1.48-.2c-.09,0-.17.06-.28.18h-.41ZM145.08,25H141.6v-.45h.15c.57,0,.78-.25.78-1V20.94c0-.37-.08-.47-.47-.6l-.46-.17v-.34L144,19h.25v4.67c0,.57.24.88.85.88Zm-.65-8.22a1,1,0,0,1-1.1.95,1,1,0,0,1-1.12-.95,1.08,1.08,0,0,1,1.12-1,1,1,0,0,1,1.1,1m3.81,6.67c0,.51.23.74.64.74s.65-.21,1.06-.7l.19.39a2.45,2.45,0,0,1-2,1.27c-1,0-1.57-.53-1.57-1.73V20.11h-.74v-.36a4.2,4.2,0,0,0,2-2.15h.41v1.74h1.82l-.21.77h-1.61Zm4.06-2.43c-.49-1-.73-1.27-1.33-1.27v-.45h3.56v.45c-.73,0-.84.28-.57.84l1.16,2.4,1.06-2.15c.29-.6.11-1.07-.73-1.09v-.45H158v.45c-.62.14-.8.31-1.2,1.1l-3.12,6.36c-.35.7-.78,1-1.27,1a.82.82,0,0,1-.88-.8.89.89,0,0,1,.21-.58c.64-.65,1.38.22,2.12-1.4l.28-.61ZM52,16.41h3.58v.53h-.1c-1.1,0-1.27.49-1.27,1.15v3.44c0,3.08-2.24,3.66-3.88,3.66-2.49,0-4.06-1.08-4.06-3.19V17.88c0-.69-.19-.94-1-.94h-.23v-.53h4.32v.53h-.23a.86.86,0,0,0-1,.94V22a2.2,2.2,0,0,0,2.49,2.26,2.4,2.4,0,0,0,2.71-2.54V18.37c0-1-.27-1.43-1.13-1.43H52Zm5.77,7.05c0,.52.23.73.64.73s.64-.2,1-.69l.19.39a2.42,2.42,0,0,1-2,1.26c-.94,0-1.57-.53-1.57-1.71V20.12h-.73v-.36a4.12,4.12,0,0,0,2-2.12h.4v1.72h1.81l-.21.76h-1.6ZM64.1,25H60.26v-.45h.1c.57,0,.77-.24.77-1V21.34c0-.62-.08-.76-.49-.93l-.38-.15v-.35l2.27-.85h.29V20.6h0c.51-1,.73-1.39,1.2-1.39a.73.73,0,0,1,.27,0l1.09.4a4.87,4.87,0,0,1-.65,1.47,5.28,5.28,0,0,0-1.13-.35c-.27,0-.51.19-.81.62v2.24c0,.66.21.92.93.92h.35Zm7.32-1.61a3.81,3.81,0,0,1-3,1.76,2.56,2.56,0,0,1-2.53-2.83,2.91,2.91,0,0,1,3-3.11,2.37,2.37,0,0,1,1.75.66c.81.82.43,1.59.91,1.84v.4H67.72a2,2,0,0,0,1.7,2c.51,0,1-.29,1.69-1Zm-1.78-1.82c0-1.06-.38-1.71-1-1.71s-1.07.73-1,1.71Zm8.45,2.1a3.19,3.19,0,0,1-2.81,1.48,2.73,2.73,0,0,1-2.91-2.74A3.36,3.36,0,0,1,76,19.21c1.19,0,2.09.5,2.09,1.17a.66.66,0,0,1-.71.7c-1,0-1.17-1.23-2-1.23s-1.16.84-1.16,2.08c0,1.49.7,2.5,1.72,2.5a2.33,2.33,0,0,0,1.77-1Zm3-.07c0,.87.23.95.72.95h.13V25H78.45v-.45h.2c.7,0,.75-.27.75-1v-6c0-.4-.07-.5-.44-.62l-.4-.14v-.32l2.2-.67h.33v4.5a5.12,5.12,0,0,1,2.48-1.05c1,0,1.51.81,1.51,2.44v1.83c0,.81.1,1.07.62,1.07h.14V25H82.58v-.45h.11c.58,0,.71-.22.71-1V21.46c0-.74-.35-1.21-.9-1.21a2.86,2.86,0,0,0-1.41.52Zm7.76-.14c0,.52.24.73.64.73s.64-.2,1.05-.69l.19.39a2.43,2.43,0,0,1-2,1.26c-.94,0-1.56-.53-1.56-1.71V20.12h-.74v-.36a4.12,4.12,0,0,0,2-2.12h.4v1.72h1.81l-.21.76h-1.6Z">
    </path>
    <path
        d="M16.39,22.84a1.54,1.54,0,0,0,1.55,1.54h.72a.92.92,0,0,1,.84.56h.55a.91.91,0,0,1,.84-.56h.72a1.54,1.54,0,0,0,1.54-1.54V17.62H16.39Zm6.13-4.59v4.59a.91.91,0,0,1-.26.64L17,18.25Z">
    </path>
    <path d="M21.84,1.33a19.53,19.53,0,0,0-4.14,0l2.07,11.76ZM19.06,2.65a.72.72,0,1,1,.71.72.71.71,0,0,1-.71-.72">
    </path>
    <path
        d="M26.49,2.39c-.43-.15-.88-.29-1.32-.42.1.06.21.11.31.18l-.33.46a2,2,0,0,0-.55-.25c-.34-.09-.5,0-.54.18s0,.23.33.37c.66.33.78.66.69,1-.17.68-.78.8-1.39.65a2.85,2.85,0,0,1-.82-.36l.32-.49a2.74,2.74,0,0,0,.6.27c.23,0,.47.07.53-.19s-.25-.36-.55-.53a.79.79,0,0,1-.45-1,.86.86,0,0,1,.88-.63c-.57-.13-1.14-.23-1.73-.31l-.8,11.91Z">
    </path>
    <path
        d="M34.37,7.65A20.59,20.59,0,0,0,32.8,6.12L31.38,7.76c.3.27.6.55.89.84L31.82,9a15,15,0,0,0-1.38-1.25l1.77-2.17c-.31-.24-.62-.48-.94-.71L25,15.08Z">
    </path>
    <path d="M37.14,11.53a19.64,19.64,0,0,0-2.36-3.4l-8.49,8.38Zm-1.68-1.36a.72.72,0,1,1-1-.18.73.73,0,0,1,1,.18">
    </path>
    <path
        d="M38.9,16c-.14-.55-.31-1.08-.5-1.61l-2.64.94c-.08-.2-.16-.42-.25-.63l2.61-1c-.2-.52-.44-1-.69-1.53l-10.26,6.1Z">
    </path>
    <path
        d="M39.05,25.43c.1-.45.2-.91.27-1.37a3.49,3.49,0,0,1-.15.34l-.5-.27a1.64,1.64,0,0,0,.19-.58c0-.35-.07-.5-.24-.52s-.23.06-.33.38c-.25.7-.57.86-1,.81-.69-.08-.89-.67-.82-1.3a2.81,2.81,0,0,1,.27-.85l.52.25a2.91,2.91,0,0,0-.2.63c0,.23,0,.48.26.51s.32-.3.46-.62a.78.78,0,0,1,.89-.56.86.86,0,0,1,.73.8c.06-.58.1-1.17.11-1.76L27.63,22Z">
    </path>
    <path
        d="M37.43,29.91c.14-.27.27-.55.4-.84l-.57-.25c.1-.22.2-.44.29-.67l-2-.82c.08-.2.16-.42.24-.63l2.06.74c.08-.23.15-.45.22-.68l.6.19c.1-.3.18-.6.26-.91L27.17,23.81Z">
    </path>
    <path d="M34.78,33.88c.37-.43.71-.87,1-1.32l-2.28-1.64.39-.56,2.34,1.56q.46-.71.87-1.44l-10.85-5Z"></path>
    <path
        d="M31.27,37.09l.74-.55-.39-.49c.19-.15.38-.3.56-.46l-1.41-1.67.5-.44,1.48,1.61.52-.49.44.44c.22-.22.44-.45.65-.69L25,26.92Z">
    </path>
    <path d="M27.08,39.38c.52-.21,1-.43,1.53-.68l-1.26-2.52.6-.32,1.36,2.47q.74-.4,1.44-.87L23.45,28Z"></path>
    <path
        d="M17.71,40.67a19.85,19.85,0,0,0,2.06.11,20.2,20.2,0,0,0,2.07-.11L19.77,28.91Zm2.78-1.32a.72.72,0,1,1-.72-.72.71.71,0,0,1,.72.72">
    </path>
    <path d="M13.05,39.61c.53.19,1.07.36,1.62.5l.73-2.71.66.15-.62,2.75c.54.12,1.08.22,1.63.29l.81-11.91Z"></path>
    <path
        d="M8.8,37.46q.91.6,1.89,1.11l1-1.94c-.36-.18-.72-.38-1.07-.6L11,35.5a18.35,18.35,0,0,0,1.64.88l-1.2,2.54c.35.16.71.32,1.07.46L16.1,28Z">
    </path>
    <path
        d="M5.18,34.35a18.9,18.9,0,0,0,1.57,1.53l1.43-1.64c-.31-.27-.6-.54-.89-.83L7.73,33a18.09,18.09,0,0,0,1.38,1.25L7.35,36.39c.3.24.61.48.93.7l6.25-10.17Z">
    </path>
    <path
        d="M.64,26c.12.46.26.9.41,1.34,0-.12,0-.24,0-.36h.57a2.09,2.09,0,0,0,.1.6c.13.33.29.41.46.34s.17-.15.12-.48c-.11-.74.09-1,.47-1.16.65-.25,1.1.17,1.32.76a2.69,2.69,0,0,1,.17.88l-.59,0a2.6,2.6,0,0,0-.11-.66c-.09-.21-.21-.42-.46-.33s-.15.42-.13.76a.78.78,0,0,1-.52.92.87.87,0,0,1-1-.37c.21.54.45,1.07.71,1.59l10.26-6.1Z">
    </path>
    <path
        d="M0,21.32c0,.31,0,.62,0,.94l.61,0,.06.72,2.18-.22c0,.22,0,.45.08.67L.8,23.7l.12.7-.61.11c0,.31.12.61.18.92L11.92,22Z">
    </path>
    <path d="M4.76,8.13a19.59,19.59,0,0,0-2.35,3.4l10.85,5Zm-.49,3A.72.72,0,0,1,5.08,10a.72.72,0,0,1-.81,1.18"></path>
    <path
        d="M17.07,1.41c-.46.06-.92.14-1.38.23l.37,0L16,2.22a2,2,0,0,0-.61,0c-.34.08-.44.24-.4.41s.13.19.47.18c.74,0,1,.22,1.1.6.17.68-.31,1.08-.92,1.23a3,3,0,0,1-.9.06l0-.58a2.47,2.47,0,0,0,.66,0c.23-.06.45-.16.39-.42s-.4-.2-.74-.21a.79.79,0,0,1-.85-.64.86.86,0,0,1,.51-1c-.58.15-1.14.32-1.7.52l4.83,10.93Z">
    </path>
    <path
        d="M30.75,4.54c-.42-.28-.86-.54-1.3-.79a1.42,1.42,0,0,1,.21,1.7,1.44,1.44,0,0,1-2.05.62A1.45,1.45,0,0,1,27,4a1.44,1.44,0,0,1,1.54-.79c-.46-.22-.93-.43-1.41-.62L23.45,14Z">
    </path>
    <path d="M27.63,4.38A.78.78,0,1,0,29,5.1a.78.78,0,1,0-1.36-.72"></path>
    <path d="M36.67,19.4c0-.27-.06-.53-.1-.79l2.62-1.37c0-.22-.09-.44-.14-.66L27.63,20.05l11.92.63c0-.2,0-.4,0-.61Z">
    </path>
    <polygon points="37.34 18.91 39.56 19.35 39.39 17.97 37.34 18.9 37.34 18.91"></polygon>
    <path
        d="M12.46,2.62c-.47.19-.94.4-1.4.62A1.42,1.42,0,0,1,12.59,4a1.45,1.45,0,0,1-.66,2,1.44,1.44,0,0,1-2-.62,1.43,1.43,0,0,1,.21-1.7c-.44.25-.87.51-1.29.79L16.1,14Z">
    </path>
    <path d="M11.66,5.55a.79.79,0,0,0,.26-1.16.78.78,0,1,0-1.36.71.78.78,0,0,0,1.1.45"></path>
    <path d="M8.28,4.91l-.53.39L9.42,7.55,8.83,8,6.77,7.35l1.3,1.36-.43.43-2-2-.45.47,9.35,7.43Z"></path>
    <polygon points="7.13 5.7 6.25 6.48 8.33 7.18 7.13 5.7"></polygon>
    <path
        d="M2.11,12.09c-.24.48-.46,1-.66,1.46l3,.09c-.11.23-.22.47-.32.71l-.67,0c-.12.3-.24.61-.35.93l.52.42c-.08.24-.15.48-.22.72l-2.3-2C1,14.88.79,15.42.64,16l11.73,2.23Z">
    </path>
    <path d="M1.78,14.17h0l.92.7c.07-.21.15-.41.23-.62Z"></path>
    <path
        d="M.5,16.58a18.62,18.62,0,0,0-.33,1.84c.1-.47.37-.83.82-.8a.72.72,0,0,1,.7.76h0a1.25,1.25,0,0,1,.38-.28,9.78,9.78,0,0,1,1-.43c-.06.26-.1.5-.14.76,0,0-.45.12-.65.2s-.5.24-.53.44c0,0,0,.08,0,.1l1.1.11c0,.23,0,.45-.05.68L0,19.8l0,.88,11.92-.63Z">
    </path>
    <path d="M1,18.36c-.23,0-.38.1-.41.39,0,.11,0,.21,0,.33l.71.07c0-.1,0-.21,0-.32s0-.44-.3-.47"></path>
    <path d="M2.41,30.48c.1.18.2.36.31.54l2.85-.74a7.66,7.66,0,0,0,.45.66L4.34,33.36l.42.52,8.5-8.38Z"></path>
    <polygon points="5.19 31.04 3.03 31.67 3.82 32.81 5.2 31.04 5.19 31.04"></polygon>
    <path
        d="M21.67,28.68l.8,11.91a6,6,0,0,0,.61-.09l-.1-.61c.38-.06.76-.14,1.18-.24L24,39.17c-.38.09-.71.16-1.06.22l-.09-.56c.33,0,.65-.12,1-.2l-.13-.49c-.39.09-.74.16-1.09.22l-.1-.62a16.66,16.66,0,0,0,1.7-.38l.22.74c.3-.08.6-.18.9-.28l.11-.41Z">
    </path>
    <path d="M24.92,39.64h0l.31-1.16-.61.18Z"></path>
    <polygon points="25.44 40.03 26.56 39.76 25.95 38.39 25.44 40.03"></polygon>
</svg>