<svg xmlns="http://www.w3.org/2000/svg" xml:space="preserve" style="enable-background:new 0 0 1981 1234"
	viewBox="0 0 1981 1234">
	<path
		d="M724 0c8.9 2.7 17.9 5.6 26.9 8.2 13 3.8 26 7.5 40 11.6-4.3 3.2-8.2 6.3-12.2 9.1-3.2 2.3-4.8 4.8-4.9 9.2-.5 13.8-1.9 27.6-2.8 41.5-.1 1.8.1 4 1 5.4 9.7 15.4 19.5 30.7 29.4 45.9 1.2 1.9 3.1 3.5 5 5.6 8.4-15.2 15.4-30.2 18.8-46.6.4-1.7-.4-3.9-1.2-5.6-2.3-4.9-4.8-9.7-7.6-15.2 18.2 4.7 35.8 9.2 54.3 13.9-1.3 10.2-2.1 20.6-4.1 30.7-2.7 13.4-5.9 26.8-9.6 40-4.4 15.9-11.3 30.7-21 44.1-1 1.3-1.8 3.2-1.8 4.8.5 22.5 1.7 45.1 1.7 67.6 0 14.2-1.2 28.4-3 42.4-2.4 19.5-5.7 38.9-8.8 58.3-5.3 33.1-14.7 65-26.1 96.4-11.1 30.6-24.9 59.9-42.3 87.5-6.4 10.1-13.3 19.8-19.7 30-1.3 2.1-1.7 5.3-1.2 7.7 6.9 29.2 14.1 58.4 21.1 87.6 4.4 18.4 8.7 36.9 13.1 55.3 5.8 24.1 11.6 48.2 18.2 72.3 18.7-96.7 37.5-193.4 56.3-290.3h88.4c19.7 96.6 39.4 193.3 59.2 290.1h.8c3.5-13.4 7-26.8 10.4-40.3 4.6-18.7 9.1-37.5 13.7-56.2 9.4-38.2 18.9-76.4 28.3-114.6 5-20.1 9.9-40.3 14.7-60.4 1.2-5.1 2.1-10.3 3.6-15.3.4-1.4 2.1-3.3 3.2-3.3 23.6-.2 47.3-.1 71.5-.1-35.9 133.5-71.7 266.4-107.4 399.5h-80.1c-20.5-102.5-41.1-205-61.6-307.4-.4-.1-.7-.1-1.1-.2-.9 3.8-2 7.6-2.8 11.5-5.1 25.8-10.1 51.7-15.2 77.5-4.8 23.7-9.8 47.4-14.6 71.1-4.2 20.7-8.3 41.4-12.4 62-1.7 8.5-3.5 17-4.9 25.5-.3 1.8.6 4.5 1.9 5.8 14 13.8 19.7 31.4 22.9 50.1.2 1.1 0 2.3 0 4.3h-4.9c-35 0-70-.1-105 .1-3.8 0-5.3-.8-6.3-4.8-10-38.4-20.2-76.7-30.5-115-9.8-36.3-19.9-72.4-29.6-108.7-9.2-34.4-18.2-68.8-27.3-103.2-.9-3.3-1.8-6.6-3-9.8-1.1-3-.1-5.2 2.3-7.1 14.3-11.3 25.6-25.3 36.4-39.7 14.2-19.1 26.5-39.5 36.5-61.1 14.1-30.2 25.3-61.3 31.8-94 3.1-15.9 6.5-31.7 8.8-47.7 1.8-12.9 2.7-25.9 3.1-38.9.7-21.1 1.1-42.2 1-63.3 0-12-1.2-24.1-1.9-36.1-.1-1.1-.6-2.2-1.2-3.1-12.2-16.6-24.5-33.2-36.8-49.8l-.9-1.2c-4.9-8.3-4.9-8.3-14.1-5.3-14.2 4.6-27.8 10.2-37.8 22-6.5 7.7-12.9 15.5-19.8 22.7-9.2 9.6-21.1 14.4-34.1 16.1-8.5 1.1-17.2 1.1-27.2 1.6 4.2-11.4 7.7-21.9 11.9-32.1 6.1-15 14.3-28.9 24.7-41.1 16.2-19.1 35.7-33.6 60.9-39 4.6-1 9.3-1.7 14.3-2.7 3-25.1 6-50.3 9-75.5.4-.3 1-.3 1.7-.3z" />
	<path
		d="M0 637c.7-4.2 1.6-8.5 2.1-12.7 2.5-23.3 8.9-45.5 17.6-67.2C31 528.9 45.9 502.7 65 479.2c12.7-15.7 26.6-30.5 41.3-44.3 19.6-18.4 41.8-33.4 66.4-44.5 13.9-6.2 28.4-10.6 43.7-12.4 17.6-2.1 33.8.7 48.5 10.4 5.9 3.9 10.8 9.4 16.5 14.5-13.8 6.1-26.8 11.2-39.1 17.4-28.4 14.4-55.4 31.1-80 51.6-30.2 25.1-55.3 54.1-71.8 90-7 15.3-12.6 31.3-14.5 48.2-1.4 12.1-2.9 24.3-2.9 36.4.1 20.7 2.1 41.3 6.8 61.6 5.7 25 14.8 48.5 29.9 69.5 19.2 26.6 43.7 46.1 74.9 55.3-1.5-20.1-2.6-40.3-4.5-60.3-1.7-17.9.4-35.5 2.1-53.3 3.9-40.8 16.1-79.2 35.2-115.3 10.8-20.5 23.5-39.9 38.8-57.3 11.9-13.5 23.6-27.4 36.9-39.6 17.8-16.4 36.5-31.9 55.7-46.5 17.8-13.6 36.6-26 55.3-38.3 28.3-18.6 57.1-36.5 85.5-55 20.4-13.2 39.5-28.1 55.9-46.1 7.8-8.6 13.7-18.4 17.5-29.3.1-.4-.1-1-.2-1.7-19.6-1.1-38.4-5-51.8-21-6.5-7.7-10.3-17-11-27.6 8.5-.8 16.7-1.7 24.8-2.4 15.6-1.4 31.2-2.7 46.8-4 9.7-.8 19.4-1.3 29.1-2.1 6.2-.5 12.4-1.3 18.6-1.9 1.9-.2 3.9 0 6.8 0-.5 8.3-.7 16.2-1.5 24-1 10.1-2.2 20.2-4 30.2-4.7 25.6-14.6 49.2-28.4 71.2-10.6 16.8-23 32.4-37.7 45.5-16.8 14.9-34.4 29.2-52.6 42.3-22 15.9-45.2 30.2-67.7 45.4-19.5 13.2-39.1 26.4-58.1 40.4-10.2 7.5-19.4 16.4-29 24.7-20.9 18-38.2 39.1-53.1 62.1-11.1 17.1-20 35.3-26.7 54.6-7 20-12.4 40.3-14.6 61.4-1.1 11-2.3 21.9-2.9 32.9-.7 11.6-1.4 23.2-.9 34.8.7 16.1 1.9 32.3 4 48.2 2.8 21.9 6.7 43.7 10.1 65.5.1.6.4 1.2 1.1 3.1-13.9-.9-27.1-1.4-40.2-2.9-12.7-1.4-25.3-3.4-37.8-6.1-25.1-5.3-49-14.4-71.5-26.7-21.6-11.8-40.8-26.9-57-45.3-22.6-25.6-37.7-55.3-46.6-88.3-4.3-16-7.6-32.1-9-48.7-.4-4.9-1.4-9.8-2.1-14.7V637zM1981 679h-50v237.5h-77.7V679.2h-93.2v237.3h-76.9V678.9h-42.7v-54.5h41.1c.2-1.5.5-2.5.6-3.6.4-12.8 0-25.6 1.2-38.3 1.7-18.9 6.8-36.7 21.3-50.4 8.8-8.3 19.8-12 31.1-14.9 19.7-4.9 39.7-4.2 59.7-4 4.2 0 8.5.9 13 1.4v62.2c-10.4 0-20.9-.6-31.2.2-9.8.8-16.5 9.7-17.4 22-.5 6.8-.1 13.7-.1 20.5 0 1.3.1 2.6.2 4.3h92.1v-6.7c-.2-18.3.1-36.6 5-54.5 6.4-23.4 21.1-38.2 44.7-44.4 20.9-5.6 42.2-5.1 63.5-4.9 4.3 0 8.5.9 13.2 1.4v63.2c-11.3 0-22.7-1.1-33.7.3-9 1.2-14 9.7-14 18.9V624h50.2v55zM1211 1234c-5.9-1.4-11.9-2.6-17.8-4.2-11.7-3.3-21.9-9-31.1-17.2-17.8-15.9-27-36.2-30.8-59.1-2.9-17.8-2.7-35.6.6-53.6 2.8-15.4 7.8-29.7 17.1-42.4 13-17.9 30-30 52.1-33.2 12.5-1.8 25.5-2.8 38.1-1.9 29.5 2 52.3 16.2 67.7 41.6 8.6 14.3 12.5 30 14.2 46.5 2.1 20.6 1.3 41-5.3 60.6-10.8 32.1-31.4 54.1-66 60.7-3.3.6-6.5 1.4-9.7 2.1-9.8.1-19.4.1-29.1.1zm15.1-176.2c-16.1-1.3-28.4 5.9-35.9 13.3-16.8 16.5-18.5 38-19.2 59.7-.2 5.8 1 11.8 1.9 17.6 2 13.3 6.9 25.4 16.1 35.2 11 11.7 25.1 15.6 40.8 14.6 15.2-.9 27.3-7.4 36.5-19.5 10.9-14.4 13.1-31.3 13.6-48.4.3-9.4-1.2-19-2.9-28.4-4.1-23-22.8-46.1-50.9-44.1zM566 1234c-4.8-1-9.7-2.1-14.5-3.2-23.3-5.3-40.3-19.2-52.4-39.4-8.1-13.4-12.4-28-13.9-43.5-2.3-23.7-1.8-47 6.9-69.6 4.6-11.8 11.4-21.9 20.3-31.2 11.2-11.8 24.7-19.1 40.2-22.6 14.8-3.4 29.8-3.1 44.8-1.5 14.2 1.5 27.3 5.7 38.7 14 17 12.4 28.8 28.8 34.6 49.1 3.5 12.4 5.1 25 5.2 38 .2 18.1-1.3 35.9-8.1 52.8-11.8 29.4-32.2 49-64.2 55-2.9.5-5.8 1.4-8.7 2.1H566zm-40.6-106.2c.5 6.4.7 12.9 1.5 19.3 1.7 14.2 7 27.1 17 37.3 12.3 12.6 28.3 16 45.1 13.5 21.7-3.1 34.6-17.6 40.8-37.5 6.1-19.6 6.2-39.9 1.3-60-3.5-14.6-10.6-27-23.4-35.5-9.4-6.2-19.8-7.4-30.7-7.1-19.3.5-32.9 9.7-42.1 26.1-7.6 13.6-9.5 28.5-9.5 43.9zM787 1234c-3.9-.7-7.8-1.6-11.7-2.1-18.8-2.7-35.5-9.4-48.4-23.8-7.7-8.6-12.5-18.7-13.7-30.4-.4-3.6-.8-7.1-1.3-11.1 2-.1 3.5-.3 4.9-.3h20c4.7 0 10.3-1.6 13.7.5 2.9 1.8 3.2 7.8 4.7 11.9 4.2 11.5 13.3 17.4 24.7 19.3 14.5 2.4 29.3 2.9 43.3-2.9 13.2-5.5 19.1-19.4 12.3-31.5-3.1-5.5-8.4-8.1-13.8-9.6-14.8-4.1-29.8-7.2-44.6-11.2-11.3-3.1-22.9-6-33.6-10.5-15.8-6.7-24.4-19.7-27.2-36.6-1.9-11-.7-21.6 3.1-32 5.9-16.4 17.3-27.6 33.1-34.4 16.3-7 33.6-8.3 51-6.9 20.3 1.7 38.7 8.5 53.1 23.8 10.8 11.5 15.2 25.4 15.6 41.7h-12.1c-8.2 0-16.3.1-24.5-.1-1.4-.1-3.9-1.8-4-2.9-1.7-16-12.3-23.3-26.5-26.4-12.9-2.9-25.9-2.5-38 3.6-9.5 4.7-13.4 12.7-12.1 23.2 1.1 8.4 7.1 12.6 14.1 14.8 10.1 3.2 20.5 5.4 30.7 8.2 15.7 4.3 31.8 7.8 47.1 13.1 18.7 6.5 28.6 20.5 31.2 40.4 1.4 11-.2 21.2-4.2 31.2-6.2 15.7-18 26.1-33 32.8-10.1 4.5-20.7 7.2-31.9 7.2-.6 0-1.3.7-1.9 1.1-6.8-.1-13.4-.1-20.1-.1zM992 1234c-3.1-.7-6.1-1.5-9.2-2.1-14-3-26.6-8.6-37.6-18.2-17.8-15.6-26.8-35.7-29.9-58.6-1.6-11.8-2.6-23.8-1.9-35.6 1.5-27.8 9.3-53.4 30.2-73.2 12.9-12.2 28.3-19.1 46.1-21.2 21.1-2.5 41.6-.4 60.5 9.4 21.2 11.1 33.5 29.5 38.7 52.6.5 2.4.8 4.8 1.2 7.8-13.6 0-26.7.1-39.9-.1-1 0-2.4-1.7-3-2.9-2.4-4.7-4.2-9.5-6.7-14.1-6.9-12.7-18.9-16.7-32.1-17.7-24.7-1.9-41.3 13.7-47.7 36.3-3.8 13.3-5.4 26.9-4.6 40.5.9 14.9 2.9 29.7 12.2 42.3 7.8 10.5 17.7 17.1 31.2 18.3 10.5.9 20.1-.5 29.1-6.1 9.7-6 14.1-15.7 17.7-25.9.5-1.5.9-3.1 1.4-4.9h42.1c-2.1 7.4-3.6 14.6-6.3 21.3-7.4 18.6-19.4 33.8-37.4 42.9-8.2 4.1-17.6 5.6-26.5 8.3-.8.3-1.6.8-2.4 1.1-8.5-.2-16.9-.2-25.2-.2zM1294.1 926.9c-23.4.4-46.2-3.1-67.9-12.2-12-5-23-11.8-32.7-20.8-19.9-18.4-33-40.9-41.5-66.4-4.6-13.9-6.8-28.2-8.1-42.8-2.4-27 1.3-53.1 10.1-78.5 8.8-25.4 23.2-47.3 43.6-64.8 15.2-13.1 33.5-21.3 53.2-25.1 12.1-2.3 24.4-3.1 36.7-4.1 21-1.7 41.6 1 61.7 7 22.7 6.7 42.1 19 57.2 37.2 18.2 21.9 30.2 46.9 35.5 75.1 2.8 14.8 4.4 29.7 3.8 44.7-1.6 37.6-12.2 72.1-35.7 102.2-19.2 24.5-44.4 39-74.7 44.4-13.6 2.4-27.4 3.6-41 5.3-.1-.4-.1-.8-.2-1.2zm70.5-157.2c-.5-6.8-.9-13.5-1.5-20.3-1.3-15.9-5.3-31-14.1-44.4-6.4-9.7-14.7-17.6-25.8-22.2-14.7-6.1-29.7-7.1-45.3-4-18.4 3.7-31.8 14-41.1 30.1-8.5 14.5-11.8 30.6-12.8 47-1.3 21.9-.5 43.9 8.1 64.7 4.6 11.2 10.9 21.4 21 28.7 15.4 11.2 32.5 14.4 51.3 12.1 24.8-3.1 41-16.7 50.7-39 7.4-16.9 9.4-34.6 9.5-52.7zM449.8 845.2h6.3c47.3 0 94.7-.1 142 .1 18.5.1 34.9 6.3 47.6 20.2 10.6 11.6 16.2 25.7 19.1 40.9.6 3.2.9 6.5 1.4 10.1H337.6c-1.1-8.6-2.3-17.4-3.5-26.1-1.6-11.4-3.2-22.7-4.8-34.1-.6-3.9-.1-6.6 4.3-8.5 29.1-12.8 56.3-28.9 81.4-48.3 16-12.4 30.6-26.4 42.2-43.1 10.2-14.6 16.9-30.8 16.9-48.9 0-10.3-3.8-19.9-8.2-29-1.4-3-1-4.1 1.9-5.6 17.3-9.4 34.5-19 51.5-28.8 4.5-2.6 6.7-2.1 9.6 2.3 10 15 14.6 31.4 16.2 49.3 1.7 18.6-1.1 36.4-6.4 53.9-4.8 15.8-12.8 30.1-23.1 43.1-13 16.4-28.5 30.1-46.2 41.2-6.1 3.7-12.4 7.1-19.6 11.3zM1509.4 517.4h76.2v399.1h-76.2V517.4zM185.2 1028.2h33.7c22.7 0 45.3-.1 68 0 16 0 30.5 4.6 42.6 15.3 7.3 6.5 11.3 15.4 13.3 24.8 2.6 12.4 1.2 24.5-4.9 35.9-4 7.5-10.6 12.1-18 16.5 3.9 2.1 7.7 3.7 11 6 12.6 8.9 18.1 21.7 19 36.6 1.1 18.9-4.7 35.4-18.5 48.6-9.3 9-20.9 13.2-33.5 14.9-25.3 3.5-50.7 1.5-76.1 1.9-10.3.2-20.7-.2-31 .1-4.5.1-5.6-1.5-5.6-5.7.2-20.3.1-40.7.1-61v-127.5c-.1-1.9-.1-3.8-.1-6.4zm40.9 165c19.6 0 38.6.5 57.5-.3 5.3-.2 10.9-3.3 15.4-6.4 7.8-5.3 7.9-13.9 8.3-22.6.6-14.4-10.4-21.8-21.9-22.9-11.7-1.1-23.5-.9-35.3-1.1-7.9-.2-15.9 0-24 0v53.3zm-.1-86c12 0 23.5.1 34.9 0 7.6-.1 15.3 0 22.8-1.2 4.8-.8 9.6-3.1 13.7-5.8 6.2-4.1 5.7-10.9 5.8-17.4.1-7.1-2.4-13.1-8.9-15.7-5.9-2.4-12.6-3.7-19-4-14.8-.6-29.6-.2-44.5-.2h-4.9c.1 15 .1 29.3.1 44.3zM1806 1228.8c-12.8 0-24.9.1-37-.1-.9 0-2.1-1.6-2.7-2.7-.4-.8-.1-2-.1-3v-194.8c14.6 0 28.7-.1 42.8.1 1.1 0 2.5 1.3 3.1 2.4 6.7 11.5 13.2 23 19.8 34.5 10.1 17.6 20.3 35.2 30.4 52.8 8.7 15.2 17.3 30.5 25.9 45.8.4.6.8 1.2 2 2.9v-138.2h39.7v193.9c0 6.5 0 6.5-6.7 6.5-10.5 0-21 .1-31.5-.1-1.9-.1-4.5-1.4-5.4-3-7.5-12.3-14.7-24.8-21.9-37.3-9.9-17.2-19.8-34.3-29.6-51.5-8.3-14.5-16.5-29-24.8-43.6-1-1.7-2.1-3.3-3.9-6.1-.1 47.8-.1 94.4-.1 141.5zM1569.4 1228.5v-200.1h146.2v35.3h-105.4v42.2h96.4v34.7h-96.3v51.2h110.3v36.6c-50.4.1-100.7.1-151.2.1zM1368.6 1028.2h38.2c18.7 0 37.3-.5 56 .2 16 .6 30.6 6 42.2 17.5 8 7.9 12 18.1 13.7 28.9 2.2 14.3 2 28.5-1.7 42.7-4.3 16.4-14.3 27.8-30.2 33.1-8.6 2.9-17.8 4.6-26.9 5-16 .8-32.2.2-49 .2v6.5c0 20.2-.2 40.3.1 60.5.1 5-1.6 6.2-6.3 6.1-10.7-.3-21.3-.2-32-.1-3 0-4.6-.7-4.6-4.2.1-64.8.1-129.7.1-194.5 0-.3.2-.8.4-1.9zm42.4 92.9c15.5 0 30.6.8 45.6-.3 10.2-.7 17.8-7 20.2-17.4 1.4-6 1.9-12.6 1.1-18.7-1.4-11.1-7.5-19.1-20.2-20.7-9.3-1.2-18.8-.9-28.2-1.1-6.1-.1-12.2 0-18.5 0v58.2zM396.2 1028.4h41.3v200.4H427c-8.3 0-16.7-.3-25 .1-4.7.2-5.9-1.4-5.9-6 .1-53.3.1-106.6.1-160v-34.5z" />
</svg>